<?xml version="1.0" encoding="utf-8"?>
<!-- Generator: Adobe Illustrator 24.2.1, SVG Export Plug-In . SVG Version: 6.00 Build 0)  -->
<svg version="1.1" id="Layer_1" xmlns="http://www.w3.org/2000/svg" xmlns:xlink="http://www.w3.org/1999/xlink" x="0px" y="0px"
	 viewBox="0 0 24 24" style="enable-background:new 0 0 24 24;" xml:space="preserve">
<g>
	<path d="M12,22c-0.6,0-1-0.4-1-1c0-1.1-0.9-2-2-2H2c-0.6,0-1-0.4-1-1V3c0-0.6,0.4-1,1-1h6c2.8,0,5,2.2,5,5v14
		C13,21.6,12.6,22,12,22z M3,17h6c0.7,0,1.4,0.2,2,0.5V7c0-1.7-1.3-3-3-3H3V17z"/>
</g>
<g>
	<path d="M12,22c-0.6,0-1-0.4-1-1V7c0-2.8,2.2-5,5-5h6c0.6,0,1,0.4,1,1v15c0,0.6-0.4,1-1,1h-7c-1.1,0-2,0.9-2,2
		C13,21.6,12.6,22,12,22z M16,4c-1.7,0-3,1.3-3,3v10.5c0.6-0.3,1.3-0.5,2-0.5h6V4H16z"/>
</g>
</svg>
