<?xml version="1.0" encoding="utf-8"?>
<!-- Generator: Adobe Illustrator 24.2.1, SVG Export Plug-In . SVG Version: 6.00 Build 0)  -->
<svg version="1.1" id="Layer_1" xmlns="http://www.w3.org/2000/svg" xmlns:xlink="http://www.w3.org/1999/xlink" x="0px" y="0px"
	 viewBox="0 0 24 24" style="enable-background:new 0 0 24 24;" xml:space="preserve">
<g>
	<path d="M20,22H4c-1.7,0-3-1.3-3-3V9c0-1.7,1.3-3,3-3h16c1.7,0,3,1.3,3,3v10C23,20.7,21.7,22,20,22z M4,8C3.4,8,3,8.4,3,9v10
		c0,0.6,0.4,1,1,1h16c0.6,0,1-0.4,1-1V9c0-0.6-0.4-1-1-1H4z"/>
</g>
<g>
	<path d="M16,22c-0.6,0-1-0.4-1-1V5c0-0.6-0.4-1-1-1h-4C9.4,4,9,4.4,9,5v16c0,0.6-0.4,1-1,1s-1-0.4-1-1V5c0-1.7,1.3-3,3-3h4
		c1.7,0,3,1.3,3,3v16C17,21.6,16.6,22,16,22z"/>
</g>
</svg>
