<?xml version="1.0" encoding="utf-8"?>
<!-- Generator: Adobe Illustrator 24.2.1, SVG Export Plug-In . SVG Version: 6.00 Build 0)  -->
<svg version="1.1" id="Layer_1" xmlns="http://www.w3.org/2000/svg" xmlns:xlink="http://www.w3.org/1999/xlink" x="0px" y="0px"
	 viewBox="0 0 24 24" style="enable-background:new 0 0 24 24;" xml:space="preserve">
<g>
	<path d="M12,23C12,23,12,23,12,23C5.9,23,1,18.1,1,12C1,5.9,5.9,1,12,1c0,0,0,0,0,0c1.6,0,3.1,0.3,4.5,1C17,2.2,17.2,2.8,17,3.3
		c-0.2,0.5-0.8,0.7-1.3,0.5C14.5,3.3,13.3,3,12,3c0,0,0,0,0,0c-5,0-9,4-9,9c0,5,4,9,9,9c0,0,0,0,0,0c5,0,9-4,9-9v-0.9
		c0-0.6,0.4-1,1-1s1,0.4,1,1V12C23,18.1,18.1,23,12,23z"/>
</g>
<g>
	<path d="M12,15c-0.3,0-0.5-0.1-0.7-0.3l-3-3c-0.4-0.4-0.4-1,0-1.4s1-0.4,1.4,0l2.3,2.3l9.3-9.3c0.4-0.4,1-0.4,1.4,0
		c0.4,0.4,0.4,1,0,1.4l-10,10C12.5,14.9,12.3,15,12,15z"/>
</g>
</svg>
