<?xml version="1.0" encoding="utf-8"?>
<!-- Generator: Adobe Illustrator 24.2.1, SVG Export Plug-In . SVG Version: 6.00 Build 0)  -->
<svg version="1.1" id="Layer_1" xmlns="http://www.w3.org/2000/svg" xmlns:xlink="http://www.w3.org/1999/xlink" x="0px" y="0px"
	 viewBox="0 0 200 200" style="enable-background:new 0 0 200 200;" xml:space="preserve">
<style type="text/css">
	.st0{fill:#FE718D;}
</style>
<g>
	<path class="st0" d="M100.1,172H100c-39.6,0-71.9-32.2-72-71.9c0-4.4,3.6-8,8-8c0,0,0,0,0,0c4.4,0,8,3.6,8,8
		c0.1,30.8,25.1,55.8,55.9,55.9l0.2,0c4.4,0,8,3.6,8,8C108.1,168.4,104.6,171.9,100.1,172L100.1,172z M100.1,164.4L100.1,164.4
		l0-0.4L100.1,164.4z M164,108c-4.4,0-8-3.6-8-8c0-30.9-25.1-56-56-56h-0.2c-4.4,0-8-3.6-8-8s3.6-8,8-8h0.2c39.7,0,72,32.3,72,72
		C172,104.4,168.4,108,164,108C164,108,164,108,164,108z"/>
</g>
</svg>
