<?xml version="1.0" encoding="utf-8"?>
<!-- Generator: Adobe Illustrator 24.2.1, SVG Export Plug-In . SVG Version: 6.00 Build 0)  -->
<svg version="1.1" id="Layer_1" xmlns="http://www.w3.org/2000/svg" xmlns:xlink="http://www.w3.org/1999/xlink" x="0px" y="0px"
	 viewBox="0 0 24 24" style="enable-background:new 0 0 24 24;" xml:space="preserve">
<g>
	<path d="M16,22H5c-1.7,0-3-1.3-3-3V8c0-1.7,1.3-3,3-3h6c0.6,0,1,0.4,1,1s-0.4,1-1,1H5C4.4,7,4,7.4,4,8v11c0,0.6,0.4,1,1,1h11
		c0.6,0,1-0.4,1-1v-6c0-0.6,0.4-1,1-1s1,0.4,1,1v6C19,20.7,17.7,22,16,22z"/>
</g>
<g>
	<path d="M21,10c-0.6,0-1-0.4-1-1V4h-5c-0.6,0-1-0.4-1-1s0.4-1,1-1h6c0.6,0,1,0.4,1,1v6C22,9.6,21.6,10,21,10z"/>
</g>
<g>
	<path d="M10,15c-0.3,0-0.5-0.1-0.7-0.3c-0.4-0.4-0.4-1,0-1.4l11-11c0.4-0.4,1-0.4,1.4,0s0.4,1,0,1.4l-11,11
		C10.5,14.9,10.3,15,10,15z"/>
</g>
</svg>
