<?xml version="1.0" encoding="utf-8"?>
<!-- Generator: Adobe Illustrator 24.2.1, SVG Export Plug-In . SVG Version: 6.00 Build 0)  -->
<svg version="1.1" id="Layer_1" xmlns="http://www.w3.org/2000/svg" xmlns:xlink="http://www.w3.org/1999/xlink" x="0px" y="0px"
	 viewBox="0 0 24 24" style="enable-background:new 0 0 24 24;" xml:space="preserve">
<g>
	<path d="M21,19c-0.6,0-1-0.4-1-1v-6c0-4.4-3.6-8-8-8s-8,3.6-8,8v6c0,0.6-0.4,1-1,1s-1-0.4-1-1v-6C2,6.5,6.5,2,12,2
		c5.5,0,10,4.5,10,10v6C22,18.6,21.6,19,21,19z"/>
</g>
<g>
	<path d="M19,22h-1c-1.7,0-3-1.3-3-3v-3c0-1.7,1.3-3,3-3h3c0.6,0,1,0.4,1,1v5C22,20.7,20.7,22,19,22z M18,15c-0.6,0-1,0.4-1,1v3
		c0,0.6,0.4,1,1,1h1c0.6,0,1-0.4,1-1v-4H18z M6,22H5c-1.7,0-3-1.3-3-3v-5c0-0.6,0.4-1,1-1h3c1.7,0,3,1.3,3,3v3C9,20.7,7.7,22,6,22z
		 M4,15v4c0,0.6,0.4,1,1,1h1c0.6,0,1-0.4,1-1v-3c0-0.6-0.4-1-1-1H4z"/>
</g>
</svg>
