<?xml version="1.0" encoding="utf-8"?>
<!-- Generator: Adobe Illustrator 24.2.1, SVG Export Plug-In . SVG Version: 6.00 Build 0)  -->
<svg version="1.1" id="Layer_1" xmlns="http://www.w3.org/2000/svg" xmlns:xlink="http://www.w3.org/1999/xlink" x="0px" y="0px"
	 viewBox="0 0 24 24" style="enable-background:new 0 0 24 24;" xml:space="preserve">
<g>
	<path d="M19,23H5c-1.7,0-3-1.3-3-3V9c0-0.3,0.1-0.6,0.4-0.8l9-7c0.4-0.3,0.9-0.3,1.2,0l9,7C21.9,8.4,22,8.7,22,9v11
		C22,21.7,20.7,23,19,23z M4,9.5V20c0,0.6,0.4,1,1,1h14c0.6,0,1-0.4,1-1V9.5l-8-6.2L4,9.5z"/>
</g>
<g>
	<path d="M15,23c-0.6,0-1-0.4-1-1v-9h-4v9c0,0.6-0.4,1-1,1s-1-0.4-1-1V12c0-0.6,0.4-1,1-1h6c0.6,0,1,0.4,1,1v10
		C16,22.6,15.6,23,15,23z"/>
</g>
</svg>
