<?xml version="1.0" encoding="utf-8"?>
<!-- Generator: Adobe Illustrator 24.2.1, SVG Export Plug-In . SVG Version: 6.00 Build 0)  -->
<svg version="1.1" id="Layer_1" xmlns="http://www.w3.org/2000/svg" xmlns:xlink="http://www.w3.org/1999/xlink" x="0px" y="0px"
	 viewBox="0 0 24 24" style="enable-background:new 0 0 24 24;" xml:space="preserve">
<g>
	<path d="M9,22H5c-1.7,0-3-1.3-3-3V5c0-1.7,1.3-3,3-3h4c0.6,0,1,0.4,1,1S9.6,4,9,4H5C4.4,4,4,4.4,4,5v14c0,0.6,0.4,1,1,1h4
		c0.6,0,1,0.4,1,1S9.6,22,9,22z"/>
</g>
<g>
	<path d="M16,18c-0.3,0-0.5-0.1-0.7-0.3c-0.4-0.4-0.4-1,0-1.4l4.3-4.3l-4.3-4.3c-0.4-0.4-0.4-1,0-1.4s1-0.4,1.4,0l5,5
		c0.4,0.4,0.4,1,0,1.4l-5,5C16.5,17.9,16.3,18,16,18z"/>
</g>
<g>
	<path d="M21,13H9c-0.6,0-1-0.4-1-1s0.4-1,1-1h12c0.6,0,1,0.4,1,1S21.6,13,21,13z"/>
</g>
</svg>
