<?xml version="1.0" encoding="utf-8"?>
<!-- Generator: Adobe Illustrator 24.2.1, SVG Export Plug-In . SVG Version: 6.00 Build 0)  -->
<svg version="1.1" xmlns="http://www.w3.org/2000/svg" xmlns:xlink="http://www.w3.org/1999/xlink" x="0px" y="0px"
	 viewBox="0 0 500 500" style="enable-background:new 0 0 500 500;" xml:space="preserve">
<style type="text/css">
	.st0{fill:#EBEBEB;}
	.st1{fill:#E0E0E0;}
	.st2{fill:#F5F5F5;}
	.st3{fill:#FFFFFF;}
	.st4{fill:#F0F0F0;}
	.st5{fill:#E6E6E6;}
	.st6{fill:#FAFAFA;}
	.st7{display:none;}
	.st8{display:inline;}
	.st9{fill:#407BFF;}
	.st10{opacity:0.9;fill:#FFFFFF;}
	.st11{opacity:0.2;}
	.st12{opacity:0.2;fill:#FFFFFF;}
	.st13{opacity:0.5;fill:#FFFFFF;}
	.st14{fill:none;stroke:#407BFF;stroke-miterlimit:10;}
	.st15{opacity:0.1;}
	.st16{opacity:0.3;}
	.st17{opacity:0.4;}
	.st18{fill:#263238;}
	.st19{fill:#ED847E;}
	.st20{fill:#FFC3BD;}
</style>
<g id="Background_Complete">
	<g>
		<rect y="382.4" class="st0" width="500" height="0.25"/>
		<rect x="416.78" y="398.49" class="st0" width="33.12" height="0.25"/>
		<rect x="322.53" y="401.21" class="st0" width="8.69" height="0.25"/>
		<rect x="396.59" y="389.21" class="st0" width="19.19" height="0.25"/>
		<rect x="52.46" y="390.89" class="st0" width="43.19" height="0.25"/>
		<rect x="104.56" y="390.89" class="st0" width="6.33" height="0.25"/>
		<rect x="131.47" y="395.11" class="st0" width="93.68" height="0.25"/>
		<path class="st0" d="M237.01,337.8H43.92c-3.15,0-5.71-2.56-5.71-5.71V60.66c0-3.15,2.56-5.71,5.71-5.71h193.1
			c3.15,0,5.71,2.56,5.71,5.71v271.43C242.72,335.24,240.16,337.8,237.01,337.8z M43.92,55.2c-3.01,0-5.46,2.45-5.46,5.46v271.43
			c0,3.01,2.45,5.46,5.46,5.46h193.1c3.01,0,5.46-2.45,5.46-5.46V60.66c0-3.01-2.45-5.46-5.46-5.46H43.92z"/>
		<path class="st0" d="M453.31,337.8h-193.1c-3.15,0-5.71-2.56-5.71-5.71V60.66c0-3.15,2.56-5.71,5.71-5.71h193.1
			c3.15,0,5.71,2.56,5.71,5.71v271.43C459.02,335.24,456.46,337.8,453.31,337.8z M260.21,55.2c-3.01,0-5.46,2.45-5.46,5.46v271.43
			c0,3.01,2.45,5.46,5.46,5.46h193.1c3.01,0,5.46-2.45,5.46-5.46V60.66c0-3.01-2.45-5.46-5.46-5.46H260.21z"/>
	</g>
	<g>
		<g>
			<rect x="92.03" y="285.87" class="st0" width="126.42" height="8.92"/>
			<rect x="163.48" y="285.87" class="st1" width="54.97" height="8.92"/>
			<rect x="92.03" y="294.79" class="st0" width="18.68" height="87.61"/>
			<polygon class="st1" points="110.71,303.83 92.03,297.47 92.03,294.79 110.71,294.79 			"/>
			<rect x="199.77" y="294.79" class="st1" width="18.68" height="87.61"/>
			<rect x="163.48" y="294.79" class="st0" width="18.68" height="87.61"/>
			<polygon class="st1" points="182.15,303.83 163.48,297.47 163.48,294.79 182.15,294.79 			"/>
			<rect x="128.32" y="294.79" class="st1" width="18.68" height="87.61"/>
		</g>
		<g>
			<rect x="71" y="87.17" class="st0" width="159.33" height="135.67"/>
			
				<rect x="230.33" y="87.17" transform="matrix(-1 -1.224647e-16 1.224647e-16 -1 462.4444 309.9997)" class="st1" width="1.78" height="135.67"/>
			
				<rect x="88.83" y="81.33" transform="matrix(-1.836970e-16 1 -1 -1.836970e-16 305.6665 4.3332)" class="st2" width="123.67" height="147.33"/>
		</g>
		<g>
			<path class="st3" d="M148.89,198.06c8.98-30.03,11.5-74.25,30.65-68.14c19.15,6.1-5.94,71.53-5.94,71.53L148.89,198.06z"/>
			<path class="st3" d="M164.35,199.55c-9.16-43.48-6.85-101.21-35.31-99.88c-28.46,1.32,0,101.77,0,101.77L164.35,199.55z"/>
			<g>
				<path class="st0" d="M184.46,194.67h-62.3c-2.77,0-4.87,2.03-4.99,4.6c-1.27,28.7,3.43,57.95,12.18,86.59h47.71
					c8.75-28.64,13.45-57.89,12.18-86.59C189.13,196.71,187.03,194.67,184.46,194.67z"/>
			</g>
		</g>
		<g>
			<g>
				<g>
					<rect x="322.69" y="102.3" class="st1" width="3.51" height="280.1"/>
					<rect x="405.18" y="102.3" class="st1" width="3.51" height="280.1"/>
					<rect x="297.8" y="102.3" class="st0" width="3.51" height="280.1"/>
					<rect x="380.29" y="102.3" class="st0" width="3.51" height="280.1"/>
					<rect x="297.8" y="100.38" class="st0" width="110.89" height="3.83"/>
					<rect x="297.8" y="168.97" class="st0" width="110.89" height="3.83"/>
					<rect x="297.8" y="237.56" class="st0" width="110.89" height="3.83"/>
					<rect x="297.8" y="306.15" class="st0" width="110.89" height="3.83"/>
					<rect x="297.8" y="374.74" class="st0" width="110.89" height="3.83"/>
					<rect x="383.8" y="100.38" class="st1" width="24.89" height="3.83"/>
					<rect x="383.8" y="168.97" class="st1" width="24.89" height="3.83"/>
					<rect x="383.8" y="237.56" class="st1" width="24.89" height="3.83"/>
					<rect x="383.8" y="306.15" class="st1" width="24.89" height="3.83"/>
					<rect x="383.8" y="374.74" class="st1" width="24.89" height="3.83"/>
				</g>
			</g>
			<path class="st4" d="M342.53,123.71v-5.4H329.2v5.4c0,3.53-2.86,6.39-6.39,6.39l0,0c-3.53,0-6.39,2.86-6.39,6.39v32.49h38.88
				v-32.49c0-3.53-2.86-6.39-6.39-6.39h0C345.39,130.1,342.53,127.24,342.53,123.71z"/>
			<g>
				<rect x="311.7" y="215.26" class="st4" width="58.42" height="22.31"/>
				
					<rect x="370.12" y="215.26" transform="matrix(-1 -1.224647e-16 1.224647e-16 -1 750.4124 452.8169)" class="st5" width="10.17" height="22.31"/>
				
					<rect x="370.12" y="225.18" transform="matrix(-1 -1.224647e-16 1.224647e-16 -1 750.4124 452.8168)" class="st0" width="10.17" height="2.46"/>
				<rect x="311.7" y="225.18" class="st2" width="58.42" height="2.46"/>
			</g>
			<g>
				<rect x="308.84" y="335.3" class="st4" width="45.63" height="39.44"/>
				
					<rect x="354.47" y="335.3" transform="matrix(-1 -1.224647e-16 1.224647e-16 -1 716.8775 710.0451)" class="st5" width="7.94" height="39.44"/>
				
					<rect x="354.47" y="352.85" transform="matrix(-1 -1.224647e-16 1.224647e-16 -1 716.8775 710.045)" class="st0" width="7.94" height="4.35"/>
				<rect x="308.84" y="352.85" class="st2" width="45.63" height="4.35"/>
				
					<rect x="354.47" y="348.25" transform="matrix(-1 -1.224647e-16 1.224647e-16 -1 716.8775 698.0506)" class="st0" width="7.94" height="1.55"/>
				<rect x="308.84" y="348.25" class="st2" width="45.63" height="1.55"/>
			</g>
			<g>
				<g>
					<rect x="311.7" y="266.05" class="st4" width="8.26" height="40.1"/>
					<rect x="311.7" y="280.34" class="st6" width="8.26" height="11.52"/>
					
						<rect x="319.97" y="266.05" transform="matrix(-1 -1.224647e-16 1.224647e-16 -1 668.0332 572.2054)" class="st5" width="28.1" height="40.1"/>
				</g>
				<g>
					<rect x="323.39" y="260.87" class="st0" width="9.33" height="45.28"/>
					<rect x="323.39" y="275.26" class="st6" width="9.33" height="6.97"/>
					<rect x="323.39" y="286.9" class="st6" width="9.33" height="6.97"/>
					
						<rect x="332.72" y="260.87" transform="matrix(-1 -1.224647e-16 1.224647e-16 -1 697.1812 567.0197)" class="st1" width="31.73" height="45.28"/>
				</g>
				<g>
					<rect x="338.08" y="266.05" class="st4" width="5.03" height="40.1"/>
					<rect x="338.94" y="271.13" class="st6" width="3.3" height="29.94"/>
					
						<rect x="343.11" y="266.05" transform="matrix(-1 -1.224647e-16 1.224647e-16 -1 703.2985 572.2054)" class="st5" width="17.09" height="40.1"/>
				</g>
				<g>
					<rect x="350.86" y="263.94" class="st0" width="5.68" height="42.21"/>
					<rect x="350.86" y="277.35" class="st6" width="5.68" height="6.5"/>
					<rect x="350.86" y="288.21" class="st6" width="5.68" height="6.5"/>
					
						<rect x="356.54" y="263.94" transform="matrix(-1 -1.224647e-16 1.224647e-16 -1 732.3752 570.0888)" class="st1" width="19.3" height="42.21"/>
				</g>
			</g>
			
				<ellipse transform="matrix(0.7071 -0.7071 0.7071 0.7071 -42.3206 303.4691)" class="st2" cx="345.16" cy="202.82" rx="12.44" ry="12.44"/>
			
				<ellipse transform="matrix(0.9871 -0.1602 0.1602 0.9871 -28.4641 60.1604)" class="st0" cx="358.92" cy="206.63" rx="8.62" ry="8.62"/>
		</g>
	</g>
</g>
<g id="Background_Simple" class="st7">
	<g class="st8">
		<path class="st9" d="M219.12,183.7c1.74-0.37,3.46-0.76,5.18-1.15c42.22-9.73,90.5-15.37,127.11,1.78
			c35.89,16.82,31.48,52.44,10.49,85.16c-35.93,56.01-172.03,109.14-208.73,52.21c-11.86-18.41,8.59-50.8-6.13-72.5
			c-16.76-24.7-94.32-9.08-78.82-63.65c8.59-30.26,30.63-28.48,54.31-18.66c13.59,5.63,26.57,12.64,40.63,17.41
			C180.24,190.08,200.16,187.76,219.12,183.7z"/>
		<path class="st10" d="M219.12,183.7c1.74-0.37,3.46-0.76,5.18-1.15c42.22-9.73,90.5-15.37,127.11,1.78
			c35.89,16.82,31.48,52.44,10.49,85.16c-35.93,56.01-172.03,109.14-208.73,52.21c-11.86-18.41,8.59-50.8-6.13-72.5
			c-16.76-24.7-94.32-9.08-78.82-63.65c8.59-30.26,30.63-28.48,54.31-18.66c13.59,5.63,26.57,12.64,40.63,17.41
			C180.24,190.08,200.16,187.76,219.12,183.7z"/>
	</g>
</g>
<g id="Shadow_1_">
	<ellipse id="_x3C_Path_x3E__356_" class="st2" cx="250" cy="416.24" rx="193.89" ry="11.32"/>
</g>
<g id="Box">
	<g>
		<path class="st9" d="M254.55,338.69H126.11v66.34c0,3.57,2.9,6.47,6.47,6.47h115.5c3.57,0,6.47-2.9,6.47-6.47V338.69z"/>
		<g>
			<path class="st9" d="M126.11,338.69h90.88l-11.18-14.31c-1.23-1.57-4.27-2.84-6.8-2.84h-81.73c-2.53,0-3.58,1.27-2.36,2.84
				L126.11,338.69z"/>
			<path class="st11" d="M126.11,338.69h90.88l-11.18-14.31c-1.23-1.57-4.27-2.84-6.8-2.84h-81.73c-2.53,0-3.58,1.27-2.36,2.84
				L126.11,338.69z"/>
		</g>
		<path class="st9" d="M254.55,338.69h-90.88l11.18-9.33c1.23-1.02,4.27-1.85,6.8-1.85h81.73c2.53,0,3.58,0.83,2.36,1.85
			L254.55,338.69z"/>
		<path class="st12" d="M254.55,338.69h-90.88v66.34c0,3.57,2.9,6.47,6.47,6.47h77.94c3.57,0,6.47-2.9,6.47-6.47V338.69z"/>
		<polygon class="st13" points="137.39,338.69 137.39,384.17 140.53,381.69 142.74,384.17 144.66,381.41 146.63,384.17 
			149.37,382.09 152.39,384.17 152.39,338.69 		"/>
	</g>
</g>
<g id="Character_1_">
	<g>
		<g>
			<line class="st14" x1="157.72" y1="239.48" x2="141.57" y2="225.92"/>
			<line class="st14" x1="166.09" y1="246.51" x2="161.17" y2="242.37"/>
			<path class="st9" d="M214.47,274.89l53.28-66.59l-70.94-59.55l-47.04,53.93l-6.96,13.49c-1.46,1.68-1.26,4.03,0.47,5.49
				l64.01,53.74C209.37,277.12,212.73,276.89,214.47,274.89z"/>
			<polygon class="st13" points="177.93,225.78 170.26,238.14 173.35,238.8 174.4,241.67 176.45,241.78 177.4,244.23 179.91,244.96 
				181.84,248.03 189.51,235.68 			"/>
			<polygon class="st15" points="265.43,206.35 217.65,259.65 149.78,202.67 196.81,148.74 			"/>
			<g>
				<polygon class="st9" points="265.43,206.35 217.65,259.65 237.43,261.11 284.47,207.18 				"/>
				<polygon class="st16" points="265.43,206.35 217.65,259.65 237.43,261.11 284.47,207.18 				"/>
			</g>
			<g>
				<polygon class="st9" points="177.78,147.9 129.99,201.21 149.78,202.67 196.81,148.74 				"/>
				<polygon class="st17" points="177.78,147.9 129.99,201.21 149.78,202.67 196.81,148.74 				"/>
			</g>
			<polygon class="st15" points="250.72,222.76 265.43,206.35 196.81,148.74 188.03,169.9 			"/>
			<polygon class="st11" points="149.78,202.67 196.81,148.74 188.03,169.9 154.91,206.98 			"/>
		</g>
		<g>
			<path class="st18" d="M282.01,106.01c0.19,0.65,0,1.27-0.42,1.39c-0.42,0.12-0.92-0.3-1.11-0.94c-0.19-0.65,0-1.27,0.42-1.39
				C281.33,104.94,281.82,105.36,282.01,106.01z"/>
			<path class="st19" d="M282.07,107.26c0,0-0.37,4.16-1.46,6.43c1.46,0.73,3.25-0.33,3.25-0.33L282.07,107.26z"/>
			<path class="st18" d="M283.33,101.73c0.08-0.04,0.15-0.12,0.19-0.22c0.07-0.21-0.04-0.43-0.24-0.5
				c-2.06-0.73-3.52,0.37-3.58,0.41c-0.17,0.13-0.21,0.38-0.07,0.55c0.13,0.17,0.38,0.2,0.55,0.07l0,0c0.05-0.04,1.2-0.88,2.84-0.3
				C283.12,101.79,283.23,101.78,283.33,101.73z"/>
			<path class="st20" d="M304.24,110.28c0.44,5.3,1.75,15.03,4.88,17.24c0,0-0.75,6.37-11.96,8.02c-12.34,1.82-6.8-5.25-6.8-5.25
				c6.49-2.6,5.58-7.57,3.72-12.09l4.77-5.46C300.63,110.69,304.02,107.57,304.24,110.28z"/>
			<path class="st3" d="M313.15,130.11c1-0.91-1.02-4.55-2.23-5.05c-3.22-1.35-16.4-0.02-21.35,4.24c-1.42,2.25-0.39,4.69-0.39,4.69
				L313.15,130.11z"/>
			<path class="st9" d="M355.09,397.41c-0.82,0.25-1.65,0.37-2.08,0.06c-0.18-0.13-0.37-0.39-0.27-0.9
				c0.06-0.27,0.21-0.48,0.46-0.62c1.08-0.63,3.75,0.2,3.86,0.24c0.07,0.02,0.13,0.09,0.14,0.17c0.01,0.08-0.03,0.15-0.1,0.19
				C356.72,396.77,355.91,397.16,355.09,397.41z M353.63,396.19c-0.08,0.03-0.16,0.06-0.22,0.1c-0.15,0.09-0.24,0.21-0.27,0.36
				c-0.08,0.36,0.07,0.46,0.11,0.5c0.48,0.34,2.11-0.15,3.24-0.72C355.67,396.22,354.35,395.97,353.63,396.19z"/>
			<path class="st9" d="M357.06,396.56c-0.03,0.01-0.06,0.01-0.1,0c-0.96-0.2-3.09-1.45-3.2-2.39c-0.02-0.17,0.01-0.49,0.45-0.68
				c0.28-0.13,0.58-0.13,0.88,0c1.16,0.47,2.06,2.72,2.09,2.81c0.03,0.07,0.01,0.14-0.03,0.2
				C357.13,396.53,357.1,396.55,357.06,396.56z M354.46,393.83c-0.03,0.01-0.06,0.02-0.08,0.03c-0.24,0.11-0.22,0.22-0.22,0.28
				c0.06,0.56,1.48,1.56,2.49,1.94c-0.3-0.64-0.97-1.91-1.71-2.21C354.77,393.79,354.61,393.78,354.46,393.83z"/>
			<path class="st9" d="M296.48,408.15c-1.07,0-2.1-0.15-2.45-0.63c-0.12-0.17-0.22-0.46,0.02-0.86c0.13-0.23,0.34-0.38,0.63-0.46
				c1.39-0.38,4.3,1.28,4.43,1.35c0.07,0.04,0.11,0.12,0.1,0.2c-0.01,0.08-0.08,0.15-0.16,0.16
				C298.51,408.02,297.48,408.15,296.48,408.15z M295.16,406.53c-0.14,0-0.27,0.01-0.38,0.05c-0.18,0.05-0.31,0.14-0.39,0.28
				c-0.14,0.25-0.09,0.37-0.04,0.44c0.39,0.54,2.5,0.55,4.05,0.33C297.63,407.22,296.13,406.53,295.16,406.53z"/>
			<path class="st9" d="M299,407.92c-0.03,0-0.05-0.01-0.08-0.02c-1.01-0.45-3-2.26-2.85-3.2c0.04-0.22,0.19-0.5,0.74-0.55
				c0.41-0.04,0.77,0.07,1.1,0.34c1.06,0.87,1.29,3.12,1.3,3.21c0.01,0.07-0.02,0.14-0.08,0.18
				C299.08,407.91,299.04,407.92,299,407.92z M296.97,404.54c-0.04,0-0.08,0-0.12,0.01c-0.36,0.04-0.38,0.18-0.39,0.22
				c-0.09,0.57,1.26,1.98,2.29,2.6c-0.11-0.66-0.4-2-1.1-2.57C297.44,404.62,297.22,404.54,296.97,404.54z"/>
			<polygon class="st20" points="308.18,407.72 299.83,407.72 299,388.4 307.34,388.4 			"/>
			<polygon class="st20" points="366.83,394.53 359.14,397.18 351.16,378.97 358.85,376.32 			"/>
			<path class="st18" d="M357.31,395.27l8.96-2.75c0.33-0.1,0.68,0.04,0.85,0.34l3.75,6.61c0.39,0.69,0.02,1.56-0.73,1.78
				c-3.14,0.91-4.72,1.19-8.66,2.4c-2.42,0.74-8.54,3.06-11.97,3.75c-3.36,0.68-4.56-2.61-3.22-3.2c6.02-2.65,8.46-5.66,9.89-8.03
				C356.43,395.73,356.84,395.42,357.31,395.27z"/>
			<path class="st18" d="M299.89,406.75l9.11,0c0.34,0,0.64,0.24,0.71,0.57l1.65,7.42c0.17,0.77-0.41,1.5-1.2,1.48
				c-3.29-0.06-8.04-0.25-12.17-0.25c-4.83,0-6.87,0.26-12.53,0.26c-3.42,0-4.38-3.46-2.94-3.78c6.53-1.43,9.72-1.58,15.36-5.06
				C298.49,407.03,299.17,406.75,299.89,406.75z"/>
			<g>
				<g>
					<path class="st20" d="M324.14,132.84c2.43,2.23,4.53,4.46,6.71,6.79c2.13,2.34,4.2,4.74,6.16,7.31
						c1.98,2.55,3.85,5.23,5.56,8.25c0.85,1.52,1.66,3.11,2.34,4.94c0.17,0.46,0.34,0.91,0.48,1.43c0.15,0.5,0.3,0.99,0.41,1.56
						l0.17,0.83l0.12,0.92c0.07,0.44,0.14,1.66,0,2.55c-0.26,1.88-0.99,3.32-1.72,4.44c-0.74,1.11-1.53,1.93-2.3,2.65
						c-1.55,1.42-3.06,2.43-4.57,3.33c-3.01,1.77-5.99,3.04-8.98,4.18c-6,2.25-11.97,3.82-18.18,5L308.6,181
						c5.43-2.35,10.93-4.89,16.03-7.61c2.54-1.36,5.01-2.83,7.11-4.38c1.04-0.76,1.98-1.58,2.59-2.29c0.31-0.35,0.51-0.68,0.59-0.86
						c0.07-0.17-0.03-0.15-0.11,0.21c-0.07,0.67-0.05,0.15-0.22-0.21c-0.04-0.17-0.14-0.4-0.23-0.62c-0.07-0.21-0.2-0.46-0.31-0.71
						c-0.47-0.98-1.1-2.08-1.81-3.17c-1.44-2.2-3.18-4.42-5-6.61c-1.84-2.18-3.78-4.35-5.77-6.48c-1.95-2.14-4.08-4.27-6.04-6.26
						L324.14,132.84z"/>
				</g>
				<path class="st20" d="M310.87,180.07l-7.92,2.38l5.06,8.32c0,0,4.66-1.93,5.68-5.88L310.87,180.07z"/>
				<polygon class="st20" points="299.82,185.4 302.92,192.26 308.01,190.77 302.95,182.45 				"/>
				<g>
					<g>
						<path class="st9" d="M305.7,135.1c-0.75,7.99,16.17,20.37,16.17,20.37l16.29-11.15c0,0-3.35-7.18-12.02-12.75
							C316.82,125.6,306.64,125.16,305.7,135.1z"/>
					</g>
					<g class="st16">
						<path class="st3" d="M305.7,135.1c-0.75,7.99,16.17,20.37,16.17,20.37l16.29-11.15c0,0-3.35-7.18-12.02-12.75
							C316.82,125.6,306.64,125.16,305.7,135.1z"/>
					</g>
				</g>
			</g>
			<g>
				<g>
					<path class="st9" d="M278,134.46c0,0-7.32,11.22,10.05,71.4l44.14-6.52c-0.62-6.1-8.01-32.71-8.25-61.8
						c-0.05-5.91-5.01-10.6-10.91-10.3c-1.29,0.07-2.61,0.16-3.91,0.29c-5.68,0.56-13.87,1.59-18.76,2.77
						C283.91,131.86,278,134.46,278,134.46z"/>
				</g>
				<g class="st16">
					<path class="st3" d="M278,134.46c0,0-7.32,11.22,10.05,71.4l44.14-6.52c-0.62-6.1-8.01-32.71-8.25-61.8
						c-0.05-5.91-5.01-10.6-10.91-10.3c-1.29,0.07-2.61,0.16-3.91,0.29c-5.68,0.56-13.87,1.59-18.76,2.77
						C283.91,131.86,278,134.46,278,134.46z"/>
				</g>
			</g>
			<path class="st11" d="M276.92,153.8l0.15-0.17l10.39,0.92c1.57,6.7-4.2,15.84-7.25,20.08
				C278.43,166.04,277.43,159.21,276.92,153.8z"/>
			<g>
				<polygon class="st11" points="299,388.41 299.43,398.36 307.78,398.36 307.35,388.41 				"/>
				<polygon class="st11" points="358.85,376.32 351.16,378.97 355.28,388.36 362.97,385.71 				"/>
			</g>
			<path class="st20" d="M303.15,98.32c1.84,8.07,3.33,12.7,0.52,17.95c-4.23,7.89-15.08,7.13-19.3-0.23
				c-3.79-6.62-6.17-18.71,0.67-24.15C291.77,86.54,301.31,90.25,303.15,98.32z"/>
			<path class="st18" d="M286.94,106.23l-3.07,1.88l0.29-10.5c0,0-3.22,0.22-5.56-1.61c1.11-1.06,18.39-7.11,23.78-6.06
				c0.56-0.24,1.24-1.28,1.24-1.28s0.21,1.31-0.71,1.81c0.67-0.13,2.31,0.19,2.77,1.16c-1.45-0.31-2.29,0.13-2.29,0.13
				s6.04,0.91,3.88,9.23c-2.39,9.17-1.6,14.44-1.6,14.44s-4.46,3.44-8.35,2.81C293.19,113.69,287.21,108.21,286.94,106.23z"/>
			<path class="st18" d="M281.06,95.17c-4.88,0.04-6.63-2.38-7.88-4.38c3.5-0.38,10.79-2.63,16.21-3c5.42-0.38,11.33,0.63,9.54,2.96
				S281.06,95.17,281.06,95.17z"/>
			<path class="st18" d="M282.13,93c-3.97-0.55-7.91-4.33-4.91-7.94c1.11,2.66,8.61,2.35,13.92,1.24c6.97-1.46,11.85,0.9,9.37,5.67
				C299.16,94.57,282.13,93,282.13,93z"/>
			<path class="st20" d="M291.26,103.84c0.63,2.07,0.4,4.33-0.27,6c-1.01,2.51-3.22,2-4.37-0.17c-1.04-1.96-1.77-5.62-0.07-7.43
				C288.23,100.46,290.54,101.47,291.26,103.84z"/>
			<path class="st18" d="M303.71,203.55c0,0,7.16,60.95,12.36,84.83c5.69,26.15,33.76,97.48,33.76,97.48l14.04-4.84
				c0,0-18-53.7-22.77-90.26c-3.67-28.09-8.9-91.41-8.9-91.41L303.71,203.55z"/>
			<path class="st9" d="M346.25,381.38c-0.06,0.02,2.87,5.99,2.87,5.99l16.35-5.31l-1.92-4.88L346.25,381.38z"/>
			<path class="st16" d="M307.66,234.82c2.24,16.93,5.11,36.96,7.64,49.81C318.95,264.96,319.87,240.21,307.66,234.82z"/>
			<path class="st18" d="M288.05,205.86c0,0-5.94,57.26-5.03,82.7c0.94,26.46,13.31,107.88,13.31,107.88h14.13
				c0,0-2.6-79.87-1.97-105.86c0.69-28.33,11.31-89.4,11.31-89.4L288.05,205.86z"/>
			<path class="st9" d="M293.6,390.81c-0.07,0,0.8,5.87,0.8,5.87h17.19l0.46-5.24L293.6,390.81z"/>
			<g>
				<path class="st20" d="M285.31,148.52c-1.56,2.48-3.14,4.71-4.79,7.01c-1.63,2.28-3.35,4.5-5.11,6.7
					c-3.54,4.38-7.33,8.62-11.57,12.62c-1.12,0.97-2.16,1.97-3.36,2.91l-0.88,0.71l-0.44,0.35c-0.16,0.13-0.23,0.2-0.56,0.43
					c-1.11,0.81-2.21,1.31-3.23,1.67c-2.06,0.7-3.84,0.87-5.53,0.94c-1.68,0.07-3.25-0.04-4.77-0.21
					c-6.07-0.75-11.41-2.44-16.75-4.73l1.72-6.02c5.18,0.52,10.6,0.96,15.43,0.74c1.2-0.07,2.36-0.19,3.39-0.37
					c1.02-0.18,1.95-0.47,2.44-0.76c0.25-0.13,0.38-0.26,0.34-0.29c-0.06,0.04,0.13-0.13,0.22-0.22l0.33-0.31l0.67-0.63
					c0.9-0.8,1.76-1.77,2.63-2.65c1.73-1.86,3.44-3.77,5.08-5.81c1.67-1.99,3.28-4.07,4.87-6.16c1.6-2.09,3.15-4.24,4.72-6.37
					c1.54-2.13,3.08-4.36,4.52-6.44L285.31,148.52z"/>
			</g>
			<g>
				<g>
					<path class="st9" d="M291.12,145.87c3.36,10.99-16.14,23.2-16.14,23.2l-12.68-16.16c0,0,3.52-7.09,10.5-14.69
						C281.42,128.83,288.56,137.5,291.12,145.87z"/>
				</g>
				<g class="st16">
					<path class="st3" d="M291.12,145.87c3.36,10.99-16.14,23.2-16.14,23.2l-12.68-16.16c0,0,3.52-7.09,10.5-14.69
						C281.42,128.83,288.56,137.5,291.12,145.87z"/>
				</g>
			</g>
			<path class="st20" d="M232.98,171.33l-10.26-1.88l1.08,8.89c0,0,5.33,2.99,9.21-1.69L232.98,171.33z"/>
			<polygon class="st20" points="218.77,171.45 220.99,177.86 223.79,178.33 222.71,169.45 			"/>
		</g>
	</g>
</g>
</svg>
