<?xml version="1.0" encoding="utf-8"?>
<!-- Generator: Adobe Illustrator 24.2.1, SVG Export Plug-In . SVG Version: 6.00 Build 0)  -->
<svg version="1.1" id="Layer_1" xmlns="http://www.w3.org/2000/svg" xmlns:xlink="http://www.w3.org/1999/xlink" x="0px" y="0px"
	 viewBox="0 0 33.5 29.22" style="enable-background:new 0 0 33.5 29.22;" xml:space="preserve">
<path d="M29.4,7.31l-4.27-7.2L16.74,0L8.37,0.11L4.1,7.31L0,14.61l4.1,7.3l4.27,7.21l8.37,0.09l8.38-0.09l4.27-7.21l4.1-7.3
	L29.4,7.31z M23.06,3.37c-0.01,0.05-0.03,0.11-0.07,0.17c-0.03,0.06-0.08,0.13-0.15,0.2c-0.05,0.07-0.15,0.16-0.25,0.26
	c-0.12,0.09-0.23,0.2-0.36,0.3c-0.83,0.64-1.57,1.3-2.18,1.96c-3.14,3.44-4.58,6.48-4.3,9.16v0.15l1.12,0.18
	c1.28,0.2,2.28,0.63,2.99,1.3c0.72,0.67,1.17,1.56,1.34,2.67c0.35,2.28-0.06,3.99-1.22,5.12c-0.59,0.59-1.24,1.01-1.96,1.25
	c-0.72,0.24-1.51,0.34-2.37,0.26c-3.84-0.33-5.56-2.87-5.16-7.64C11,12.47,14.59,7.34,21.27,3.33c0.77-0.46,1.25-0.6,1.49-0.4
	c0.07,0.05,0.13,0.09,0.18,0.15c0.05,0.05,0.08,0.08,0.09,0.11c0.01,0.03,0.02,0.05,0.03,0.07C23.08,3.29,23.08,3.32,23.06,3.37z"/>
</svg>
