<svg
            xmlns="http://www.w3.org/2000/svg" viewBox="0 0 33.5 29.22" fill="#7033FF">
            <path d="M29.4 7.31L25.13.11 16.74 0 8.37.11 4.1 7.31 0 14.61l4.1 7.3 4.27 7.21 8.37.09 8.38-.09 4.27-7.21 4.1-7.3-4.09-7.3zm-6.34-3.94c-.01.05-.03.11-.07.17-.03.06-.08.13-.15.2-.05.07-.15.16-.25.26-.12.09-.23.2-.36.3-.83.64-1.57 1.3-2.18 1.96-3.14 3.44-4.58 6.48-4.3 9.16v.15l1.12.18c1.28.2 2.28.63 2.99 1.3.72.67 1.17 1.56 1.34 2.67.35 2.28-.06 3.99-1.22 5.12-.59.59-1.24 1.01-1.96 1.25s-1.51.34-2.37.26c-3.84-.33-5.56-2.87-5.16-7.64.51-6.24 4.1-11.37 10.78-15.38.77-.46 1.25-.6 1.49-.4.07.05.13.09.18.15.05.05.08.08.09.11.01.03.02.05.03.07.02.03.02.06 0 .11z"/>
        </svg>