<svg xmlns="http://www.w3.org/2000/svg" version="1.1" xmlns:xlink="http://www.w3.org/1999/xlink" xmlns:svgjs="http://svgjs.com/svgjs" width="1440" height="560" preserveAspectRatio="none" viewBox="0 0 1440 560"><g mask="url(&quot;#SvgjsMask1016&quot;)" fill="none"><rect width="1440" height="560" x="0" y="0" fill="url(#SvgjsLinearGradient1017)"></rect><path d="M-85.05 400.06L-85.05 400.06" stroke="#132e65" stroke-width="1.5"></path><path d="M-85.05 400.06L-62.24 524.69" stroke="#132e65" stroke-width="1.5"></path><path d="M-85.05 400.06L75.86 496.93" stroke="#132e65" stroke-width="1.5"></path><path d="M-85.05 400.06L94.54 337.52" stroke="#132e65" stroke-width="1.5"></path><path d="M-62.24 524.69L-62.24 524.69" stroke="#132e65" stroke-width="1.5"></path><path d="M-62.24 524.69L75.86 496.93" stroke="#132e65" stroke-width="1.5"></path><path d="M-62.24 524.69L-65.42 697.52" stroke="#132e65" stroke-width="1.5"></path><path d="M-62.24 524.69L61.94 666.47" stroke="#132e65" stroke-width="1.5"></path><path d="M-65.42 697.52L-65.42 697.52" stroke="#132e65" stroke-width="1.5"></path><path d="M-65.42 697.52L61.94 666.47" stroke="#132e65" stroke-width="1.5"></path><path d="M94.54 337.52L94.54 337.52" stroke="#132e65" stroke-width="1.5"></path><path d="M94.54 337.52L252.25 362.11" stroke="#132e65" stroke-width="1.5"></path><path d="M94.54 337.52L75.86 496.93" stroke="#132e65" stroke-width="1.5"></path><path d="M94.54 337.52L251.39 507.72" stroke="#132e65" stroke-width="1.5"></path><path d="M75.86 496.93L75.86 496.93" stroke="#132e65" stroke-width="1.5"></path><path d="M75.86 496.93L61.94 666.47" stroke="#132e65" stroke-width="1.5"></path><path d="M75.86 496.93L251.39 507.72" stroke="#132e65" stroke-width="1.5"></path><path d="M61.94 666.47L61.94 666.47" stroke="#132e65" stroke-width="1.5"></path><path d="M61.94 666.47L209.69 661.71" stroke="#132e65" stroke-width="1.5"></path><path d="M252.25 362.11L252.25 362.11" stroke="#132e65" stroke-width="1.5"></path><path d="M252.25 362.11L383.91 403.18" stroke="#132e65" stroke-width="1.5"></path><path d="M252.25 362.11L251.39 507.72" stroke="#132e65" stroke-width="1.5"></path><path d="M251.39 507.72L251.39 507.72" stroke="#132e65" stroke-width="1.5"></path><path d="M251.39 507.72L368.87 505.83" stroke="#132e65" stroke-width="1.5"></path><path d="M209.69 661.71L209.69 661.71" stroke="#132e65" stroke-width="1.5"></path><path d="M209.69 661.71L345.56 658.97" stroke="#132e65" stroke-width="1.5"></path><path d="M209.69 661.71L251.39 507.72" stroke="#132e65" stroke-width="1.5"></path><path d="M209.69 661.71L75.86 496.93" stroke="#132e65" stroke-width="1.5"></path><path d="M383.91 403.18L383.91 403.18" stroke="#132e65" stroke-width="1.5"></path><path d="M383.91 403.18L368.87 505.83" stroke="#132e65" stroke-width="1.5"></path><path d="M383.91 403.18L528.92 401.01" stroke="#132e65" stroke-width="1.5"></path><path d="M368.87 505.83L368.87 505.83" stroke="#132e65" stroke-width="1.5"></path><path d="M368.87 505.83L345.56 658.97" stroke="#132e65" stroke-width="1.5"></path><path d="M368.87 505.83L544.29 502.49" stroke="#132e65" stroke-width="1.5"></path><path d="M368.87 505.83L252.25 362.11" stroke="#132e65" stroke-width="1.5"></path><path d="M345.56 658.97L345.56 658.97" stroke="#132e65" stroke-width="1.5"></path><path d="M528.92 401.01L528.92 401.01" stroke="#132e65" stroke-width="1.5"></path><path d="M528.92 401.01L544.29 502.49" stroke="#132e65" stroke-width="1.5"></path><path d="M528.92 401.01L660.6 537.63" stroke="#132e65" stroke-width="1.5"></path><path d="M528.92 401.01L368.87 505.83" stroke="#132e65" stroke-width="1.5"></path><path d="M528.92 401.01L252.25 362.11" stroke="#132e65" stroke-width="1.5"></path><path d="M528.92 401.01L251.39 507.72" stroke="#132e65" stroke-width="1.5"></path><path d="M544.29 502.49L544.29 502.49" stroke="#132e65" stroke-width="1.5"></path><path d="M544.29 502.49L660.6 537.63" stroke="#132e65" stroke-width="1.5"></path><path d="M544.29 502.49L383.91 403.18" stroke="#132e65" stroke-width="1.5"></path><path d="M544.29 502.49L545.2 699.39" stroke="#132e65" stroke-width="1.5"></path><path d="M545.2 699.39L545.2 699.39" stroke="#132e65" stroke-width="1.5"></path><path d="M545.2 699.39L705.63 640.74" stroke="#132e65" stroke-width="1.5"></path><path d="M545.2 699.39L660.6 537.63" stroke="#132e65" stroke-width="1.5"></path><path d="M660.6 537.63L660.6 537.63" stroke="#132e65" stroke-width="1.5"></path><path d="M660.6 537.63L705.63 640.74" stroke="#132e65" stroke-width="1.5"></path><path d="M705.63 640.74L705.63 640.74" stroke="#132e65" stroke-width="1.5"></path><path d="M705.63 640.74L797.89 700.43" stroke="#132e65" stroke-width="1.5"></path><path d="M829.26 258.57L829.26 258.57" stroke="#132e65" stroke-width="1.5"></path><path d="M829.26 258.57L854.06 364.87" stroke="#132e65" stroke-width="1.5"></path><path d="M829.26 258.57L984.42 241.04" stroke="#132e65" stroke-width="1.5"></path><path d="M829.26 258.57L1004.57 346.25" stroke="#132e65" stroke-width="1.5"></path><path d="M829.26 258.57L941.11 77.51" stroke="#132e65" stroke-width="1.5"></path><path d="M854.06 364.87L854.06 364.87" stroke="#132e65" stroke-width="1.5"></path><path d="M854.06 364.87L1004.57 346.25" stroke="#132e65" stroke-width="1.5"></path><path d="M854.06 364.87L984.42 241.04" stroke="#132e65" stroke-width="1.5"></path><path d="M795.14 554.12L795.14 554.12" stroke="#132e65" stroke-width="1.5"></path><path d="M795.14 554.12L705.63 640.74" stroke="#132e65" stroke-width="1.5"></path><path d="M795.14 554.12L660.6 537.63" stroke="#132e65" stroke-width="1.5"></path><path d="M795.14 554.12L797.89 700.43" stroke="#132e65" stroke-width="1.5"></path><path d="M795.14 554.12L854.06 364.87" stroke="#132e65" stroke-width="1.5"></path><path d="M795.14 554.12L1000.93 499.17" stroke="#132e65" stroke-width="1.5"></path><path d="M795.14 554.12L979.15 703.2" stroke="#132e65" stroke-width="1.5"></path><path d="M797.89 700.43L797.89 700.43" stroke="#132e65" stroke-width="1.5"></path><path d="M990.69 -110.23L990.69 -110.23" stroke="#132e65" stroke-width="1.5"></path><path d="M990.69 -110.23L1092.54 -57.8" stroke="#132e65" stroke-width="1.5"></path><path d="M990.69 -110.23L941.11 77.51" stroke="#132e65" stroke-width="1.5"></path><path d="M990.69 -110.23L1161.05 38.09" stroke="#132e65" stroke-width="1.5"></path><path d="M941.11 77.51L941.11 77.51" stroke="#132e65" stroke-width="1.5"></path><path d="M941.11 77.51L984.42 241.04" stroke="#132e65" stroke-width="1.5"></path><path d="M941.11 77.51L1092.54 -57.8" stroke="#132e65" stroke-width="1.5"></path><path d="M984.42 241.04L984.42 241.04" stroke="#132e65" stroke-width="1.5"></path><path d="M984.42 241.04L1004.57 346.25" stroke="#132e65" stroke-width="1.5"></path><path d="M984.42 241.04L1147.94 236.34" stroke="#132e65" stroke-width="1.5"></path><path d="M1004.57 346.25L1004.57 346.25" stroke="#132e65" stroke-width="1.5"></path><path d="M1004.57 346.25L1121.09 371.78" stroke="#132e65" stroke-width="1.5"></path><path d="M1004.57 346.25L1000.93 499.17" stroke="#132e65" stroke-width="1.5"></path><path d="M1004.57 346.25L1147.94 236.34" stroke="#132e65" stroke-width="1.5"></path><path d="M1000.93 499.17L1000.93 499.17" stroke="#132e65" stroke-width="1.5"></path><path d="M1000.93 499.17L1127.38 517.2" stroke="#132e65" stroke-width="1.5"></path><path d="M1000.93 499.17L1121.09 371.78" stroke="#132e65" stroke-width="1.5"></path><path d="M1000.93 499.17L854.06 364.87" stroke="#132e65" stroke-width="1.5"></path><path d="M979.15 703.2L979.15 703.2" stroke="#132e65" stroke-width="1.5"></path><path d="M979.15 703.2L797.89 700.43" stroke="#132e65" stroke-width="1.5"></path><path d="M979.15 703.2L1155.62 646.04" stroke="#132e65" stroke-width="1.5"></path><path d="M1092.54 -57.8L1092.54 -57.8" stroke="#132e65" stroke-width="1.5"></path><path d="M1092.54 -57.8L1161.05 38.09" stroke="#132e65" stroke-width="1.5"></path><path d="M1092.54 -57.8L1272.47 -86.1" stroke="#132e65" stroke-width="1.5"></path><path d="M1161.05 38.09L1161.05 38.09" stroke="#132e65" stroke-width="1.5"></path><path d="M1161.05 38.09L1239.21 89.16" stroke="#132e65" stroke-width="1.5"></path><path d="M1161.05 38.09L1272.47 -86.1" stroke="#132e65" stroke-width="1.5"></path><path d="M1161.05 38.09L1147.94 236.34" stroke="#132e65" stroke-width="1.5"></path><path d="M1161.05 38.09L1280.68 210.9" stroke="#132e65" stroke-width="1.5"></path><path d="M1147.94 236.34L1147.94 236.34" stroke="#132e65" stroke-width="1.5"></path><path d="M1147.94 236.34L1280.68 210.9" stroke="#132e65" stroke-width="1.5"></path><path d="M1147.94 236.34L1121.09 371.78" stroke="#132e65" stroke-width="1.5"></path><path d="M1121.09 371.78L1121.09 371.78" stroke="#132e65" stroke-width="1.5"></path><path d="M1127.38 517.2L1127.38 517.2" stroke="#132e65" stroke-width="1.5"></path><path d="M1127.38 517.2L1155.62 646.04" stroke="#132e65" stroke-width="1.5"></path><path d="M1127.38 517.2L1121.09 371.78" stroke="#132e65" stroke-width="1.5"></path><path d="M1127.38 517.2L1276.29 499.66" stroke="#132e65" stroke-width="1.5"></path><path d="M1127.38 517.2L1249.57 641.96" stroke="#132e65" stroke-width="1.5"></path><path d="M1155.62 646.04L1155.62 646.04" stroke="#132e65" stroke-width="1.5"></path><path d="M1155.62 646.04L1249.57 641.96" stroke="#132e65" stroke-width="1.5"></path><path d="M1155.62 646.04L1276.29 499.66" stroke="#132e65" stroke-width="1.5"></path><path d="M1155.62 646.04L1000.93 499.17" stroke="#132e65" stroke-width="1.5"></path><path d="M1272.47 -86.1L1272.47 -86.1" stroke="#132e65" stroke-width="1.5"></path><path d="M1272.47 -86.1L1239.21 89.16" stroke="#132e65" stroke-width="1.5"></path><path d="M1272.47 -86.1L1388.95 61.69" stroke="#132e65" stroke-width="1.5"></path><path d="M1272.47 -86.1L990.69 -110.23" stroke="#132e65" stroke-width="1.5"></path><path d="M1272.47 -86.1L1280.68 210.9" stroke="#132e65" stroke-width="1.5"></path><path d="M1239.21 89.16L1239.21 89.16" stroke="#132e65" stroke-width="1.5"></path><path d="M1239.21 89.16L1280.68 210.9" stroke="#132e65" stroke-width="1.5"></path><path d="M1239.21 89.16L1388.95 61.69" stroke="#132e65" stroke-width="1.5"></path><path d="M1280.68 210.9L1280.68 210.9" stroke="#132e65" stroke-width="1.5"></path><path d="M1280.68 210.9L1388.95 61.69" stroke="#132e65" stroke-width="1.5"></path><path d="M1276.03 408.44L1276.03 408.44" stroke="#132e65" stroke-width="1.5"></path><path d="M1276.03 408.44L1276.29 499.66" stroke="#132e65" stroke-width="1.5"></path><path d="M1276.03 408.44L1121.09 371.78" stroke="#132e65" stroke-width="1.5"></path><path d="M1276.03 408.44L1433.53 364.24" stroke="#132e65" stroke-width="1.5"></path><path d="M1276.03 408.44L1127.38 517.2" stroke="#132e65" stroke-width="1.5"></path><path d="M1276.29 499.66L1276.29 499.66" stroke="#132e65" stroke-width="1.5"></path><path d="M1276.29 499.66L1249.57 641.96" stroke="#132e65" stroke-width="1.5"></path><path d="M1249.57 641.96L1249.57 641.96" stroke="#132e65" stroke-width="1.5"></path><path d="M1249.57 641.96L1450.26 688.25" stroke="#132e65" stroke-width="1.5"></path><path d="M1249.57 641.96L1276.03 408.44" stroke="#132e65" stroke-width="1.5"></path><path d="M1249.57 641.96L1445.03 509.32" stroke="#132e65" stroke-width="1.5"></path><path d="M1388.95 61.69L1388.95 61.69" stroke="#132e65" stroke-width="1.5"></path><path d="M1433.53 364.24L1433.53 364.24" stroke="#132e65" stroke-width="1.5"></path><path d="M1433.53 364.24L1575.66 350.04" stroke="#132e65" stroke-width="1.5"></path><path d="M1433.53 364.24L1445.03 509.32" stroke="#132e65" stroke-width="1.5"></path><path d="M1433.53 364.24L1578.04 219.27" stroke="#132e65" stroke-width="1.5"></path><path d="M1445.03 509.32L1445.03 509.32" stroke="#132e65" stroke-width="1.5"></path><path d="M1445.03 509.32L1570.33 521.32" stroke="#132e65" stroke-width="1.5"></path><path d="M1450.26 688.25L1450.26 688.25" stroke="#132e65" stroke-width="1.5"></path><path d="M1450.26 688.25L1585.58 693.74" stroke="#132e65" stroke-width="1.5"></path><path d="M1450.26 688.25L1445.03 509.32" stroke="#132e65" stroke-width="1.5"></path><path d="M1450.26 688.25L1570.33 521.32" stroke="#132e65" stroke-width="1.5"></path><path d="M1581.54 68.59L1581.54 68.59" stroke="#132e65" stroke-width="1.5"></path><path d="M1581.54 68.59L1578.04 219.27" stroke="#132e65" stroke-width="1.5"></path><path d="M1581.54 68.59L1388.95 61.69" stroke="#132e65" stroke-width="1.5"></path><path d="M1581.54 68.59L1575.66 350.04" stroke="#132e65" stroke-width="1.5"></path><path d="M1581.54 68.59L1433.53 364.24" stroke="#132e65" stroke-width="1.5"></path><path d="M1578.04 219.27L1578.04 219.27" stroke="#132e65" stroke-width="1.5"></path><path d="M1578.04 219.27L1575.66 350.04" stroke="#132e65" stroke-width="1.5"></path><path d="M1578.04 219.27L1388.95 61.69" stroke="#132e65" stroke-width="1.5"></path><path d="M1575.66 350.04L1575.66 350.04" stroke="#132e65" stroke-width="1.5"></path><path d="M1575.66 350.04L1570.33 521.32" stroke="#132e65" stroke-width="1.5"></path><path d="M1575.66 350.04L1445.03 509.32" stroke="#132e65" stroke-width="1.5"></path><path d="M1575.66 350.04L1276.03 408.44" stroke="#132e65" stroke-width="1.5"></path><path d="M1570.33 521.32L1570.33 521.32" stroke="#132e65" stroke-width="1.5"></path><path d="M1570.33 521.32L1585.58 693.74" stroke="#132e65" stroke-width="1.5"></path><path d="M1585.58 693.74L1585.58 693.74" stroke="#132e65" stroke-width="1.5"></path><circle r="5" cx="-85.05" cy="400.06" fill="#132e65"></circle><circle r="5" cx="-62.24" cy="524.69" fill="#132e65"></circle><circle r="5" cx="-65.42" cy="697.52" fill="#132e65"></circle><circle r="5" cx="94.54" cy="337.52" fill="#132e65"></circle><circle r="5" cx="75.86" cy="496.93" fill="#132e65"></circle><circle r="5" cx="61.94" cy="666.47" fill="#132e65"></circle><circle r="5" cx="252.25" cy="362.11" fill="#132e65"></circle><circle r="5" cx="251.39" cy="507.72" fill="#132e65"></circle><circle r="5" cx="209.69" cy="661.71" fill="#132e65"></circle><circle r="5" cx="383.91" cy="403.18" fill="#132e65"></circle><circle r="5" cx="368.87" cy="505.83" fill="#132e65"></circle><circle r="5" cx="345.56" cy="658.97" fill="#132e65"></circle><circle r="5" cx="528.92" cy="401.01" fill="#132e65"></circle><circle r="5" cx="544.29" cy="502.49" fill="#132e65"></circle><circle r="5" cx="545.2" cy="699.39" fill="#132e65"></circle><circle r="5" cx="660.6" cy="537.63" fill="#132e65"></circle><circle r="5" cx="705.63" cy="640.74" fill="#132e65"></circle><circle r="5" cx="829.26" cy="258.57" fill="#132e65"></circle><circle r="5" cx="854.06" cy="364.87" fill="#132e65"></circle><circle r="5" cx="795.14" cy="554.12" fill="#132e65"></circle><circle r="5" cx="797.89" cy="700.43" fill="#132e65"></circle><circle r="5" cx="990.69" cy="-110.23" fill="#132e65"></circle><circle r="5" cx="941.11" cy="77.51" fill="#132e65"></circle><circle r="5" cx="984.42" cy="241.04" fill="#132e65"></circle><circle r="5" cx="1004.57" cy="346.25" fill="#132e65"></circle><circle r="5" cx="1000.93" cy="499.17" fill="#132e65"></circle><circle r="5" cx="979.15" cy="703.2" fill="#132e65"></circle><circle r="5" cx="1092.54" cy="-57.8" fill="#132e65"></circle><circle r="5" cx="1161.05" cy="38.09" fill="#132e65"></circle><circle r="5" cx="1147.94" cy="236.34" fill="#132e65"></circle><circle r="5" cx="1121.09" cy="371.78" fill="#132e65"></circle><circle r="5" cx="1127.38" cy="517.2" fill="#132e65"></circle><circle r="5" cx="1155.62" cy="646.04" fill="#132e65"></circle><circle r="5" cx="1272.47" cy="-86.1" fill="#132e65"></circle><circle r="5" cx="1239.21" cy="89.16" fill="#132e65"></circle><circle r="5" cx="1280.68" cy="210.9" fill="#132e65"></circle><circle r="5" cx="1276.03" cy="408.44" fill="#132e65"></circle><circle r="5" cx="1276.29" cy="499.66" fill="#132e65"></circle><circle r="5" cx="1249.57" cy="641.96" fill="#132e65"></circle><circle r="5" cx="1388.95" cy="61.69" fill="#132e65"></circle><circle r="5" cx="1433.53" cy="364.24" fill="#132e65"></circle><circle r="5" cx="1445.03" cy="509.32" fill="#132e65"></circle><circle r="5" cx="1450.26" cy="688.25" fill="#132e65"></circle><circle r="5" cx="1581.54" cy="68.59" fill="#132e65"></circle><circle r="5" cx="1578.04" cy="219.27" fill="#132e65"></circle><circle r="5" cx="1575.66" cy="350.04" fill="#132e65"></circle><circle r="5" cx="1570.33" cy="521.32" fill="#132e65"></circle><circle r="5" cx="1585.58" cy="693.74" fill="#132e65"></circle><path d="M-44.85 697.77L-44.85 697.77" stroke="hsl(228.5, 77.2%, 51.5%)" stroke-width="1.5"></path><path d="M-44.85 697.77L83.93 699.13" stroke="hsl(228.5, 77.2%, 51.5%)" stroke-width="1.5"></path><path d="M-44.85 697.77L-103.12 558.04" stroke="hsl(228.5, 77.2%, 51.5%)" stroke-width="1.5"></path><path d="M-44.85 697.77L77.64 508.6" stroke="hsl(228.5, 77.2%, 51.5%)" stroke-width="1.5"></path><path d="M-44.85 697.77L255.74 668.56" stroke="hsl(228.5, 77.2%, 51.5%)" stroke-width="1.5"></path><path d="M77.64 508.6L77.64 508.6" stroke="hsl(228.5, 77.2%, 51.5%)" stroke-width="1.5"></path><path d="M77.64 508.6L251.75 540.41" stroke="hsl(228.5, 77.2%, 51.5%)" stroke-width="1.5"></path><path d="M77.64 508.6L-103.12 558.04" stroke="hsl(228.5, 77.2%, 51.5%)" stroke-width="1.5"></path><path d="M77.64 508.6L83.93 699.13" stroke="hsl(228.5, 77.2%, 51.5%)" stroke-width="1.5"></path><path d="M788.26 371.58L788.26 371.58" stroke="hsl(228.5, 77.2%, 51.5%)" stroke-width="1.5"></path><path d="M788.26 371.58L842.74 535.04" stroke="hsl(228.5, 77.2%, 51.5%)" stroke-width="1.5"></path><path d="M788.26 371.58L962.22 352.11" stroke="hsl(228.5, 77.2%, 51.5%)" stroke-width="1.5"></path><path d="M1135.36 91.52L1135.36 91.52" stroke="hsl(228.5, 77.2%, 51.5%)" stroke-width="1.5"></path><path d="M1135.36 91.52L1263.26 86.95" stroke="hsl(228.5, 77.2%, 51.5%)" stroke-width="1.5"></path><path d="M1135.36 91.52L1089.76 255.07" stroke="hsl(228.5, 77.2%, 51.5%)" stroke-width="1.5"></path><path d="M1135.36 91.52L1292.24 212.93" stroke="hsl(228.5, 77.2%, 51.5%)" stroke-width="1.5"></path><path d="M1135.36 91.52L1258.12 -78.05" stroke="hsl(228.5, 77.2%, 51.5%)" stroke-width="1.5"></path><path d="M1135.36 91.52L1388.97 77.09" stroke="hsl(228.5, 77.2%, 51.5%)" stroke-width="1.5"></path><path d="M1135.36 91.52L1390.31 -47.23" stroke="hsl(228.5, 77.2%, 51.5%)" stroke-width="1.5"></path><path d="M1286.62 497.31L1286.62 497.31" stroke="hsl(228.5, 77.2%, 51.5%)" stroke-width="1.5"></path><path d="M1286.62 497.31L1392.76 516.41" stroke="hsl(228.5, 77.2%, 51.5%)" stroke-width="1.5"></path><path d="M1286.62 497.31L1258.91 369.33" stroke="hsl(228.5, 77.2%, 51.5%)" stroke-width="1.5"></path><path d="M1286.62 497.31L1116.47 500.58" stroke="hsl(228.5, 77.2%, 51.5%)" stroke-width="1.5"></path><path d="M1390.31 -47.23L1390.31 -47.23" stroke="hsl(228.5, 77.2%, 51.5%)" stroke-width="1.5"></path><path d="M1390.31 -47.23L1388.97 77.09" stroke="hsl(228.5, 77.2%, 51.5%)" stroke-width="1.5"></path><path d="M1390.31 -47.23L1258.12 -78.05" stroke="hsl(228.5, 77.2%, 51.5%)" stroke-width="1.5"></path><path d="M1390.31 -47.23L1559.66 -93.48" stroke="hsl(228.5, 77.2%, 51.5%)" stroke-width="1.5"></path><path d="M1390.31 -47.23L1539.28 48.83" stroke="hsl(228.5, 77.2%, 51.5%)" stroke-width="1.5"></path><path d="M1395.03 235.13L1395.03 235.13" stroke="hsl(228.5, 77.2%, 51.5%)" stroke-width="1.5"></path><path d="M1395.03 235.13L1292.24 212.93" stroke="hsl(228.5, 77.2%, 51.5%)" stroke-width="1.5"></path><path d="M1395.03 235.13L1426.42 372.01" stroke="hsl(228.5, 77.2%, 51.5%)" stroke-width="1.5"></path><path d="M1586.93 211.54L1586.93 211.54" stroke="hsl(228.5, 77.2%, 51.5%)" stroke-width="1.5"></path><path d="M1586.93 211.54L1539.28 48.83" stroke="hsl(228.5, 77.2%, 51.5%)" stroke-width="1.5"></path><path d="M1586.93 211.54L1553.54 378.47" stroke="hsl(228.5, 77.2%, 51.5%)" stroke-width="1.5"></path><path d="M1586.93 211.54L1395.03 235.13" stroke="hsl(228.5, 77.2%, 51.5%)" stroke-width="1.5"></path><path d="M1586.93 211.54L1426.42 372.01" stroke="hsl(228.5, 77.2%, 51.5%)" stroke-width="1.5"></path><path d="M1553.54 378.47L1553.54 378.47" stroke="hsl(228.5, 77.2%, 51.5%)" stroke-width="1.5"></path><path d="M1553.54 378.47L1426.42 372.01" stroke="hsl(228.5, 77.2%, 51.5%)" stroke-width="1.5"></path><path d="M1553.54 378.47L1541.23 517.13" stroke="hsl(228.5, 77.2%, 51.5%)" stroke-width="1.5"></path><path d="M1553.54 378.47L1392.76 516.41" stroke="hsl(228.5, 77.2%, 51.5%)" stroke-width="1.5"></path><path d="M1553.54 378.47L1395.03 235.13" stroke="hsl(228.5, 77.2%, 51.5%)" stroke-width="1.5"></path><path d="M1553.54 378.47L1286.62 497.31" stroke="hsl(228.5, 77.2%, 51.5%)" stroke-width="1.5"></path><path d="M-103.12 558.04L-103.12 558.04" stroke="hsl(228.5, 77.2%, 51.5%)" stroke-width="1.5"></path><path d="M83.93 699.13L83.93 699.13" stroke="hsl(228.5, 77.2%, 51.5%)" stroke-width="1.5"></path><path d="M83.93 699.13L255.74 668.56" stroke="hsl(228.5, 77.2%, 51.5%)" stroke-width="1.5"></path><path d="M83.93 699.13L251.75 540.41" stroke="hsl(228.5, 77.2%, 51.5%)" stroke-width="1.5"></path><path d="M83.93 699.13L-103.12 558.04" stroke="hsl(228.5, 77.2%, 51.5%)" stroke-width="1.5"></path><path d="M83.93 699.13L353.84 547.87" stroke="hsl(228.5, 77.2%, 51.5%)" stroke-width="1.5"></path><path d="M251.75 540.41L251.75 540.41" stroke="hsl(228.5, 77.2%, 51.5%)" stroke-width="1.5"></path><path d="M251.75 540.41L353.84 547.87" stroke="hsl(228.5, 77.2%, 51.5%)" stroke-width="1.5"></path><path d="M251.75 540.41L255.74 668.56" stroke="hsl(228.5, 77.2%, 51.5%)" stroke-width="1.5"></path><path d="M255.74 668.56L255.74 668.56" stroke="hsl(228.5, 77.2%, 51.5%)" stroke-width="1.5"></path><path d="M255.74 668.56L407.35 700.41" stroke="hsl(228.5, 77.2%, 51.5%)" stroke-width="1.5"></path><path d="M353.84 547.87L353.84 547.87" stroke="hsl(228.5, 77.2%, 51.5%)" stroke-width="1.5"></path><path d="M353.84 547.87L493.39 543.81" stroke="hsl(228.5, 77.2%, 51.5%)" stroke-width="1.5"></path><path d="M407.35 700.41L407.35 700.41" stroke="hsl(228.5, 77.2%, 51.5%)" stroke-width="1.5"></path><path d="M407.35 700.41L521.15 652.14" stroke="hsl(228.5, 77.2%, 51.5%)" stroke-width="1.5"></path><path d="M493.39 543.81L493.39 543.81" stroke="hsl(228.5, 77.2%, 51.5%)" stroke-width="1.5"></path><path d="M493.39 543.81L521.15 652.14" stroke="hsl(228.5, 77.2%, 51.5%)" stroke-width="1.5"></path><path d="M493.39 543.81L658.06 501.24" stroke="hsl(228.5, 77.2%, 51.5%)" stroke-width="1.5"></path><path d="M493.39 543.81L407.35 700.41" stroke="hsl(228.5, 77.2%, 51.5%)" stroke-width="1.5"></path><path d="M493.39 543.81L251.75 540.41" stroke="hsl(228.5, 77.2%, 51.5%)" stroke-width="1.5"></path><path d="M521.15 652.14L521.15 652.14" stroke="hsl(228.5, 77.2%, 51.5%)" stroke-width="1.5"></path><path d="M658.06 501.24L658.06 501.24" stroke="hsl(228.5, 77.2%, 51.5%)" stroke-width="1.5"></path><path d="M658.06 501.24L788.26 371.58" stroke="hsl(228.5, 77.2%, 51.5%)" stroke-width="1.5"></path><path d="M658.06 501.24L842.74 535.04" stroke="hsl(228.5, 77.2%, 51.5%)" stroke-width="1.5"></path><path d="M705.52 683.62L705.52 683.62" stroke="hsl(228.5, 77.2%, 51.5%)" stroke-width="1.5"></path><path d="M705.52 683.62L521.15 652.14" stroke="hsl(228.5, 77.2%, 51.5%)" stroke-width="1.5"></path><path d="M705.52 683.62L658.06 501.24" stroke="hsl(228.5, 77.2%, 51.5%)" stroke-width="1.5"></path><path d="M842.74 535.04L842.74 535.04" stroke="hsl(228.5, 77.2%, 51.5%)" stroke-width="1.5"></path><path d="M842.74 535.04L978.34 548.81" stroke="hsl(228.5, 77.2%, 51.5%)" stroke-width="1.5"></path><path d="M842.74 535.04L937.72 654.75" stroke="hsl(228.5, 77.2%, 51.5%)" stroke-width="1.5"></path><path d="M962.22 352.11L962.22 352.11" stroke="hsl(228.5, 77.2%, 51.5%)" stroke-width="1.5"></path><path d="M962.22 352.11L1089.76 255.07" stroke="hsl(228.5, 77.2%, 51.5%)" stroke-width="1.5"></path><path d="M978.34 548.81L978.34 548.81" stroke="hsl(228.5, 77.2%, 51.5%)" stroke-width="1.5"></path><path d="M978.34 548.81L937.72 654.75" stroke="hsl(228.5, 77.2%, 51.5%)" stroke-width="1.5"></path><path d="M978.34 548.81L1116.47 500.58" stroke="hsl(228.5, 77.2%, 51.5%)" stroke-width="1.5"></path><path d="M978.34 548.81L962.22 352.11" stroke="hsl(228.5, 77.2%, 51.5%)" stroke-width="1.5"></path><path d="M937.72 654.75L937.72 654.75" stroke="hsl(228.5, 77.2%, 51.5%)" stroke-width="1.5"></path><path d="M1089.76 255.07L1089.76 255.07" stroke="hsl(228.5, 77.2%, 51.5%)" stroke-width="1.5"></path><path d="M1089.76 255.07L1151.92 384.64" stroke="hsl(228.5, 77.2%, 51.5%)" stroke-width="1.5"></path><path d="M1089.76 255.07L1258.91 369.33" stroke="hsl(228.5, 77.2%, 51.5%)" stroke-width="1.5"></path><path d="M1089.76 255.07L1292.24 212.93" stroke="hsl(228.5, 77.2%, 51.5%)" stroke-width="1.5"></path><path d="M1151.92 384.64L1151.92 384.64" stroke="hsl(228.5, 77.2%, 51.5%)" stroke-width="1.5"></path><path d="M1151.92 384.64L1258.91 369.33" stroke="hsl(228.5, 77.2%, 51.5%)" stroke-width="1.5"></path><path d="M1151.92 384.64L1116.47 500.58" stroke="hsl(228.5, 77.2%, 51.5%)" stroke-width="1.5"></path><path d="M1151.92 384.64L1286.62 497.31" stroke="hsl(228.5, 77.2%, 51.5%)" stroke-width="1.5"></path><path d="M1151.92 384.64L962.22 352.11" stroke="hsl(228.5, 77.2%, 51.5%)" stroke-width="1.5"></path><path d="M1116.47 500.58L1116.47 500.58" stroke="hsl(228.5, 77.2%, 51.5%)" stroke-width="1.5"></path><path d="M1116.47 500.58L1258.91 369.33" stroke="hsl(228.5, 77.2%, 51.5%)" stroke-width="1.5"></path><path d="M1116.47 500.58L1239.56 667.85" stroke="hsl(228.5, 77.2%, 51.5%)" stroke-width="1.5"></path><path d="M1258.12 -78.05L1258.12 -78.05" stroke="hsl(228.5, 77.2%, 51.5%)" stroke-width="1.5"></path><path d="M1258.12 -78.05L1263.26 86.95" stroke="hsl(228.5, 77.2%, 51.5%)" stroke-width="1.5"></path><path d="M1263.26 86.95L1263.26 86.95" stroke="hsl(228.5, 77.2%, 51.5%)" stroke-width="1.5"></path><path d="M1263.26 86.95L1388.97 77.09" stroke="hsl(228.5, 77.2%, 51.5%)" stroke-width="1.5"></path><path d="M1263.26 86.95L1292.24 212.93" stroke="hsl(228.5, 77.2%, 51.5%)" stroke-width="1.5"></path><path d="M1292.24 212.93L1292.24 212.93" stroke="hsl(228.5, 77.2%, 51.5%)" stroke-width="1.5"></path><path d="M1258.91 369.33L1258.91 369.33" stroke="hsl(228.5, 77.2%, 51.5%)" stroke-width="1.5"></path><path d="M1258.91 369.33L1292.24 212.93" stroke="hsl(228.5, 77.2%, 51.5%)" stroke-width="1.5"></path><path d="M1258.91 369.33L1426.42 372.01" stroke="hsl(228.5, 77.2%, 51.5%)" stroke-width="1.5"></path><path d="M1258.91 369.33L1395.03 235.13" stroke="hsl(228.5, 77.2%, 51.5%)" stroke-width="1.5"></path><path d="M1239.56 667.85L1239.56 667.85" stroke="hsl(228.5, 77.2%, 51.5%)" stroke-width="1.5"></path><path d="M1239.56 667.85L1286.62 497.31" stroke="hsl(228.5, 77.2%, 51.5%)" stroke-width="1.5"></path><path d="M1239.56 667.85L1392.76 516.41" stroke="hsl(228.5, 77.2%, 51.5%)" stroke-width="1.5"></path><path d="M1239.56 667.85L978.34 548.81" stroke="hsl(228.5, 77.2%, 51.5%)" stroke-width="1.5"></path><path d="M1388.97 77.09L1388.97 77.09" stroke="hsl(228.5, 77.2%, 51.5%)" stroke-width="1.5"></path><path d="M1388.97 77.09L1539.28 48.83" stroke="hsl(228.5, 77.2%, 51.5%)" stroke-width="1.5"></path><path d="M1388.97 77.09L1395.03 235.13" stroke="hsl(228.5, 77.2%, 51.5%)" stroke-width="1.5"></path><path d="M1388.97 77.09L1292.24 212.93" stroke="hsl(228.5, 77.2%, 51.5%)" stroke-width="1.5"></path><path d="M1426.42 372.01L1426.42 372.01" stroke="hsl(228.5, 77.2%, 51.5%)" stroke-width="1.5"></path><path d="M1392.76 516.41L1392.76 516.41" stroke="hsl(228.5, 77.2%, 51.5%)" stroke-width="1.5"></path><path d="M1392.76 516.41L1426.42 372.01" stroke="hsl(228.5, 77.2%, 51.5%)" stroke-width="1.5"></path><path d="M1392.76 516.41L1541.23 517.13" stroke="hsl(228.5, 77.2%, 51.5%)" stroke-width="1.5"></path><path d="M1392.76 516.41L1258.91 369.33" stroke="hsl(228.5, 77.2%, 51.5%)" stroke-width="1.5"></path><path d="M1559.66 -93.48L1559.66 -93.48" stroke="hsl(228.5, 77.2%, 51.5%)" stroke-width="1.5"></path><path d="M1559.66 -93.48L1539.28 48.83" stroke="hsl(228.5, 77.2%, 51.5%)" stroke-width="1.5"></path><path d="M1559.66 -93.48L1388.97 77.09" stroke="hsl(228.5, 77.2%, 51.5%)" stroke-width="1.5"></path><path d="M1559.66 -93.48L1258.12 -78.05" stroke="hsl(228.5, 77.2%, 51.5%)" stroke-width="1.5"></path><path d="M1539.28 48.83L1539.28 48.83" stroke="hsl(228.5, 77.2%, 51.5%)" stroke-width="1.5"></path><path d="M1541.23 517.13L1541.23 517.13" stroke="hsl(228.5, 77.2%, 51.5%)" stroke-width="1.5"></path><path d="M1541.23 517.13L1553.41 680.84" stroke="hsl(228.5, 77.2%, 51.5%)" stroke-width="1.5"></path><path d="M1541.23 517.13L1426.42 372.01" stroke="hsl(228.5, 77.2%, 51.5%)" stroke-width="1.5"></path><path d="M1541.23 517.13L1286.62 497.31" stroke="hsl(228.5, 77.2%, 51.5%)" stroke-width="1.5"></path><path d="M1553.41 680.84L1553.41 680.84" stroke="hsl(228.5, 77.2%, 51.5%)" stroke-width="1.5"></path><path d="M1553.41 680.84L1392.76 516.41" stroke="hsl(228.5, 77.2%, 51.5%)" stroke-width="1.5"></path><path d="M1553.41 680.84L1553.54 378.47" stroke="hsl(228.5, 77.2%, 51.5%)" stroke-width="1.5"></path><path d="M1553.41 680.84L1239.56 667.85" stroke="hsl(228.5, 77.2%, 51.5%)" stroke-width="1.5"></path><path d="M1553.41 680.84L1286.62 497.31" stroke="hsl(228.5, 77.2%, 51.5%)" stroke-width="1.5"></path><path d="M1553.41 680.84L1426.42 372.01" stroke="hsl(228.5, 77.2%, 51.5%)" stroke-width="1.5"></path><circle r="25" cx="-44.85" cy="697.77" fill="url(#SvgjsRadialGradient1018)"></circle><circle r="25" cx="77.64" cy="508.6" fill="url(#SvgjsRadialGradient1018)"></circle><circle r="25" cx="788.26" cy="371.58" fill="url(#SvgjsRadialGradient1018)"></circle><circle r="25" cx="1135.36" cy="91.52" fill="url(#SvgjsRadialGradient1018)"></circle><circle r="25" cx="1286.62" cy="497.31" fill="url(#SvgjsRadialGradient1018)"></circle><circle r="25" cx="1390.31" cy="-47.23" fill="url(#SvgjsRadialGradient1018)"></circle><circle r="25" cx="1395.03" cy="235.13" fill="url(#SvgjsRadialGradient1018)"></circle><circle r="25" cx="1586.93" cy="211.54" fill="url(#SvgjsRadialGradient1018)"></circle><circle r="25" cx="1553.54" cy="378.47" fill="url(#SvgjsRadialGradient1018)"></circle><circle r="5" cx="-103.12" cy="558.04" fill="#8b9ad9"></circle><circle r="5" cx="83.93" cy="699.13" fill="#8b9ad9"></circle><circle r="5" cx="251.75" cy="540.41" fill="#8b9ad9"></circle><circle r="5" cx="255.74" cy="668.56" fill="#8b9ad9"></circle><circle r="5" cx="353.84" cy="547.87" fill="#8b9ad9"></circle><circle r="5" cx="407.35" cy="700.41" fill="#8b9ad9"></circle><circle r="5" cx="493.39" cy="543.81" fill="#8b9ad9"></circle><circle r="5" cx="521.15" cy="652.14" fill="#8b9ad9"></circle><circle r="5" cx="658.06" cy="501.24" fill="#8b9ad9"></circle><circle r="5" cx="705.52" cy="683.62" fill="#8b9ad9"></circle><circle r="5" cx="842.74" cy="535.04" fill="#8b9ad9"></circle><circle r="5" cx="962.22" cy="352.11" fill="#8b9ad9"></circle><circle r="5" cx="978.34" cy="548.81" fill="#8b9ad9"></circle><circle r="5" cx="937.72" cy="654.75" fill="#8b9ad9"></circle><circle r="5" cx="1089.76" cy="255.07" fill="#8b9ad9"></circle><circle r="5" cx="1151.92" cy="384.64" fill="#8b9ad9"></circle><circle r="5" cx="1116.47" cy="500.58" fill="#8b9ad9"></circle><circle r="5" cx="1258.12" cy="-78.05" fill="#8b9ad9"></circle><circle r="5" cx="1263.26" cy="86.95" fill="#8b9ad9"></circle><circle r="5" cx="1292.24" cy="212.93" fill="#8b9ad9"></circle><circle r="5" cx="1258.91" cy="369.33" fill="#8b9ad9"></circle><circle r="5" cx="1239.56" cy="667.85" fill="#8b9ad9"></circle><circle r="5" cx="1388.97" cy="77.09" fill="#8b9ad9"></circle><circle r="5" cx="1426.42" cy="372.01" fill="#8b9ad9"></circle><circle r="5" cx="1392.76" cy="516.41" fill="#8b9ad9"></circle><circle r="5" cx="1559.66" cy="-93.48" fill="#8b9ad9"></circle><circle r="5" cx="1539.28" cy="48.83" fill="#8b9ad9"></circle><circle r="5" cx="1541.23" cy="517.13" fill="#8b9ad9"></circle><circle r="5" cx="1553.41" cy="680.84" fill="#8b9ad9"></circle></g><defs><mask id="SvgjsMask1016"><rect width="1440" height="560" fill="#ffffff"></rect></mask><linearGradient x1="15.28%" y1="-39.29%" x2="84.72%" y2="139.29%" gradientUnits="userSpaceOnUse" id="SvgjsLinearGradient1017"><stop stop-color="#0e2a47" offset="0"></stop><stop stop-color="#00459e" offset="1"></stop></linearGradient><radialGradient id="SvgjsRadialGradient1018"><stop stop-color="#ffffff" offset="0.1"></stop><stop stop-color="rgba(23, 53, 179, 1)" offset="0.2"></stop><stop stop-color="rgba(23, 53, 179, 0)" offset="1"></stop></radialGradient></defs></svg>