<?xml version="1.0" encoding="utf-8"?>
<!-- Generator: Adobe Illustrator 24.2.1, SVG Export Plug-In . SVG Version: 6.00 Build 0)  -->
<svg version="1.1" id="Layer_1" xmlns="http://www.w3.org/2000/svg" xmlns:xlink="http://www.w3.org/1999/xlink" x="0px" y="0px"
	 viewBox="0 0 2424 935.2" style="enable-background:new 0 0 2424 935.2;" xml:space="preserve">
<style type="text/css">
	.st0{fill:#42565E;}
	.st1{fill:#7891BA;}
	.st2{fill:#4A73AF;}
	.st3{fill:#F74F8B;}
	.st4{fill:#CAD0D8;}
	.st5{fill:#89B5E5;}
	.st6{opacity:0.5;fill:#891253;enable-background:new    ;}
	.st7{fill:none;}
	.st8{opacity:0.4;fill:#8FB0E2;enable-background:new    ;}
	.st9{fill:#7CC2ED;}
	.st10{opacity:0.4;}
	.st11{fill:#FFFFFF;}
	.st12{opacity:0.15;fill:#42565E;enable-background:new    ;}
	.st13{opacity:0.2;fill:#42565E;enable-background:new    ;}
	.st14{opacity:0.2;}
	.st15{opacity:0.15;fill:#050505;enable-background:new    ;}
	.st16{fill:#86A5D1;}
	.st17{fill:#F4A864;}
	.st18{fill:#EA8028;}
	.st19{fill:#566366;}
	.st20{opacity:0.6;fill:#4B5B5E;enable-background:new    ;}
	.st21{fill:#F9637C;}
	.st22{opacity:0.5;fill:#42565E;enable-background:new    ;}
	.st23{fill:#82CBF1;}
	.st24{opacity:0.4;fill:#7CC2ED;enable-background:new    ;}
	.st25{opacity:0.6;}
</style>
<path class="st0" d="M1999.3,856.2H1872c-2.8,0-5-2.2-5-5s2.2-5,5-5h118.7l92.3-593.8c0.5-2.7,3-4.6,5.8-4.1c2.7,0.5,4.5,3,4.1,5.6
	L1999.3,856.2z"/>
<path class="st1" d="M2274.6,42v-9.8c0-8.9,7.2-16.1,16.1-16.1s16.1,7.2,16.1,16.1V42"/>
<path class="st2" d="M2306.7,32.2V42c0-8.9-7.2-16.1-16.1-16.1s-16.1,7.2-16.1,16.1v-9.8c0-8.9,7.2-16.1,16.1-16.1
	S2306.7,23.3,2306.7,32.2z"/>
<path class="st1" d="M2133.6,39.2L2133.6,39.2c0-16.8,19.7-30.5,44-30.5h31.7c24.3,0,44,13.6,44,30.5l0,0"/>
<path class="st2" d="M2253.4,39.2h-1.8c-5.4-12.6-22.3-21.8-42.2-21.8h-31.7c-20,0-36.9,9.2-42.2,21.8h-1.8
	c0-16.8,19.7-30.5,44-30.5h31.7C2233.6,8.7,2253.4,22.3,2253.4,39.2z"/>
<path class="st0" d="M2253.4,40.5c-2.8,0-5-2.2-5-5c0-13.8-17.9-25.5-39-25.5h-31.7c-21.2,0-39,11.7-39,25.5c0,2.8-2.2,5-5,5
	s-5-2.2-5-5c0-19.5,22-35.5,49-35.5h31.7c27,0,49,15.9,49,35.5C2258.4,38.2,2256.1,40.5,2253.4,40.5z"/>
<path class="st0" d="M2306.7,45.8c-2.8,0-5-2.2-5-5v-9.9c0-6.1-4.9-11.1-11.1-11.1s-11.1,4.9-11.1,11.1v9.9c0,2.8-2.2,5-5,5
	s-5-2.2-5-5v-9.9c0-11.6,9.4-21.1,21.1-21.1s21.1,9.4,21.1,21.1v9.9C2311.7,43.6,2309.5,45.8,2306.7,45.8z"/>
<path class="st3" d="M2220.7,38.3v-8l0,0c0-3.8-3-6.8-6.8-6.8l0,0H2173c-3.8,0-6.8,3-6.8,6.8l0,0l0,0v9.3"/>
<path class="st0" d="M2166.2,41.3c-1.7,0-3-1.3-3-3V29c0-5.4,4.4-9.8,9.8-9.8h40.9c5.4,0,9.8,4.4,9.8,9.8v8c0,1.7-1.3,3-3,3
	s-3-1.3-3-3v-8c0-2.1-1.7-3.8-3.8-3.8l0,0H2173c-2.1,0-3.8,1.7-3.8,3.8l0,0v9.3C2169.2,40,2167.9,41.3,2166.2,41.3z"/>
<path class="st4" d="M2217.9,452.5l18.6-4.7c4.3-1.1,8.6,1.5,9.7,5.8l94.6,372.3c1.1,4.3-1.5,8.6-5.8,9.7l-18.6,4.7
	c-4.3,1.1-8.6-1.5-9.7-5.8l-94.6-372.3C2211,457.9,2213.6,453.6,2217.9,452.5z"/>
<path class="st5" d="M2248.7,454.3l94.5,371.7c1.1,4.5-5.6,10-15,12.4l-98.6-387.8c4.1-1.1,8.4-1.4,12.7-0.7
	C2245.7,450.5,2248.1,452.1,2248.7,454.3z"/>
<path class="st0" d="M2306.4,848.3l-100.9-397l43.4-11l100.9,397L2306.4,848.3z M2217.1,458.1l96.2,378.5l24.9-6.3L2242,451.8
	L2217.1,458.1z"/>
<path class="st1" d="M2221.8,523.4l50.2-12.8c1.8-0.5,3.7,0.6,4.2,2.5l9,35.2c0.5,1.8-0.6,3.7-2.5,4.2l-50.2,12.8
	c-1.8,0.5-3.7-0.6-4.2-2.5l-9-35.2C2218.8,525.8,2219.9,523.9,2221.8,523.4z"/>
<path class="st2" d="M2277.2,517.2l6.9,27.2c1,4.1-1.4,8.2-5.5,9.2l-21.5,5.5l-10.6-41.9l21.5-5.5
	C2272.1,510.7,2276.2,513.1,2277.2,517.2z"/>
<path class="st0" d="M2231.9,570.9c-4.3,0-8.1-2.9-9.2-7.1l-8.3-32.8c-1.3-5.1,1.8-10.2,6.8-11.5l0,0l47.7-12.1
	c5.1-1.3,10.2,1.8,11.5,6.8l8.3,32.8c1.3,5.1-1.8,10.2-6.8,11.5l0,0l-47.8,12.1C2233.5,570.8,2232.7,570.9,2231.9,570.9z
	 M2271.3,516.5l-47.7,12.2l8.4,32.7l47.6-12.2L2271.3,516.5z M2279.7,549.2l1.2,4.6L2279.7,549.2z"/>
<path class="st0" d="M2280.9,536.3c-2.6,0-4.8-2.2-4.8-4.8c0-2.2,1.5-4.1,3.6-4.6l30.9-7.8c2.5-0.7,5.2,0.7,5.9,3.2
	s-0.7,5.2-3.2,5.9c-0.1,0-0.2,0.1-0.3,0.1l-30.9,7.8C2281.6,536.3,2281.2,536.3,2280.9,536.3z"/>
<path class="st0" d="M2305.6,548.3c-0.9,0-1.8-0.6-2-1.5l-10-39.4c-0.3-1.1,0.4-2.2,1.5-2.5s2.2,0.4,2.5,1.5l10,39.4
	c0.3,1.1-0.3,2.2-1.4,2.5C2306,548.3,2305.8,548.3,2305.6,548.3L2305.6,548.3z"/>
<path class="st1" d="M2263.7,688.3l50.2-12.8c1.8-0.5,3.7,0.6,4.2,2.5l9,35.2c0.5,1.8-0.6,3.7-2.5,4.2l-50.2,12.8
	c-1.8,0.5-3.7-0.6-4.2-2.5l-9-35.2C2260.8,690.7,2261.9,688.8,2263.7,688.3z"/>
<path class="st2" d="M2319.1,682.1l6.9,27.2c1,4.1-1.4,8.2-5.5,9.2L2299,724l-10.6-41.9l21.5-5.5
	C2314,675.6,2318.1,678.1,2319.1,682.1z"/>
<path class="st0" d="M2273.9,735.8c-4.3,0-8.1-2.9-9.2-7.1l-8.3-32.8c-1.3-5.1,1.8-10.2,6.8-11.5l0,0l47.8-12.1
	c5.1-1.3,10.2,1.8,11.5,6.8l0,0l8.3,32.8c1.3,5.1-1.8,10.2-6.9,11.5l0,0l-47.8,12.1C2275.5,735.7,2274.7,735.8,2273.9,735.8z
	 M2313.2,681.4l-47.7,12.2l8.4,32.7l47.6-12.2L2313.2,681.4z M2321.6,714.2l1.2,4.6L2321.6,714.2z"/>
<path class="st0" d="M2322.8,701.2c-2.6,0-4.8-2.2-4.8-4.8c0-2.2,1.5-4.1,3.6-4.6l30.9-7.8c2.5-0.7,5.2,0.7,5.9,3.2
	s-0.7,5.2-3.2,5.9c-0.1,0-0.2,0.1-0.3,0.1l-30.8,7.9C2323.6,701.2,2323.2,701.2,2322.8,701.2z"/>
<path class="st0" d="M2347.5,713.2c-0.9,0-1.8-0.6-2-1.5l-10-39.4c-0.3-1.1,0.4-2.2,1.5-2.5s2.2,0.4,2.5,1.5l10,39.4
	c0.3,1.1-0.3,2.2-1.4,2.5C2347.9,713.2,2347.7,713.2,2347.5,713.2L2347.5,713.2z"/>
<path class="st3" d="M2309.3,832.9l29.5-7.5c4.5-1.1,9.1,1.6,10.3,6.1l5,19.7c1.1,4.5-1.6,9.1-6.1,10.3l-29.5,7.5
	c-4.5,1.1-9.1-1.6-10.3-6.1l-5-19.7C2302.1,838.6,2304.8,834,2309.3,832.9z"/>
<path class="st0" d="M2318.6,873.3c-7.5,0-13.9-5.1-15.8-12.3l-3.5-13.7c-2.2-8.7,3.1-17.6,11.8-19.8l23.6-6
	c8.7-2.2,17.6,3.1,19.8,11.8l0,0l3.5,13.7c2.2,8.7-3.1,17.6-11.8,19.8l0,0l-23.6,6C2321.3,873.1,2320,873.3,2318.6,873.3z
	 M2338.7,830.6c-0.6,0-1.1,0.1-1.7,0.2l-23.6,6c-3.6,0.9-5.8,4.6-4.9,8.2l3.5,13.7c0.9,3.6,4.6,5.8,8.2,4.9l23.6-6
	c3.6-0.9,5.8-4.6,4.9-8.2l-3.5-13.7C2344.5,832.7,2341.8,830.6,2338.7,830.6z"/>
<path class="st4" d="M2165.2,447.9l18.5,5.3c4.2,1.2,6.7,5.7,5.5,9.9l-106.3,369.1c-1.2,4.2-5.7,6.7-9.9,5.5l-18.5-5.3
	c-4.2-1.2-6.7-5.7-5.5-9.9l106.3-369.1C2156.5,449.1,2161,446.7,2165.2,447.9z"/>
<path class="st5" d="M2190.9,465l-106.1,368.5c-1.3,4.4-9.9,5.8-19.2,3.1l110.7-384.5c4.1,1.1,8,3.1,11.3,5.8
	C2190.2,460.2,2191.6,462.8,2190.9,465z"/>
<path class="st0" d="M2084.9,846.6l-43-12.4l113.3-393.7l43,12.4L2084.9,846.6z M2053.7,827.7l24.7,7.1l108-375.3l-24.7-7.1
	L2053.7,827.7z"/>
<path class="st1" d="M2129,517.8l49.7,14.5c1.8,0.5,2.9,2.4,2.3,4.3l-10.2,34.9c-0.5,1.8-2.4,2.9-4.3,2.3l-49.7-14.5
	c-1.8-0.5-2.9-2.4-2.3-4.3l10.2-34.9C2125.2,518.3,2127.1,517.2,2129,517.8z"/>
<path class="st2" d="M2183.8,533.7l-7.8,27c-1.2,4-5.4,6.4-9.4,5.2l-21.3-6.1l12-41.6l21.3,6.1
	C2182.6,525.5,2184.9,529.7,2183.8,533.7z"/>
<path class="st0" d="M2169.8,572.1c-0.9,0-1.8-0.1-2.6-0.4l-47.4-13.6c-5-1.4-7.9-6.7-6.5-11.7l9.4-32.5c1.5-5,6.7-7.9,11.7-6.5
	l47.4,13.6c5,1.5,7.9,6.7,6.5,11.7l-9.4,32.5C2177.7,569.3,2174,572.1,2169.8,572.1L2169.8,572.1z M2169.8,562.6l-1.3,4.6
	L2169.8,562.6z M2131.8,516.6l-9.3,32.4l47.3,13.5l9.3-32.5L2131.8,516.6z"/>
<path class="st0" d="M2210.3,561.5c-0.4,0-0.9-0.1-1.3-0.2l-30.6-8.8c-2.5-0.7-4-3.4-3.3-5.9s3.4-4,5.9-3.3l30.6,8.8
	c2.5,0.7,4,3.4,3.2,5.9C2214.3,560.1,2212.4,561.5,2210.3,561.5L2210.3,561.5z"/>
<path class="st0" d="M2193.6,575.1c-1.1,0.1-2-0.8-2.1-1.9c0-0.2,0-0.5,0.1-0.7l11.3-39.1c0.3-1.1,1.4-1.7,2.5-1.4s1.7,1.4,1.4,2.5
	l0,0l-11.3,39.1C2195.3,574.5,2194.5,575.1,2193.6,575.1z"/>
<path class="st1" d="M2085.7,674.7l49.8,14.3c1.8,0.5,2.9,2.4,2.4,4.3l-10.1,34.9c-0.5,1.8-2.4,2.9-4.3,2.4l-49.8-14.3
	c-1.8-0.5-2.9-2.4-2.4-4.3l10.1-34.9C2081.9,675.2,2083.9,674.1,2085.7,674.7z"/>
<path class="st2" d="M2136.7,697.2l-7.8,27c-1.2,4-5.4,6.4-9.4,5.2l-21.3-6.1l12-41.6l21.3,6.1
	C2135.5,689,2137.8,693.2,2136.7,697.2z"/>
<path class="st0" d="M2122.7,735.7c-0.9,0-1.8-0.1-2.6-0.4l-47.4-13.6c-5-1.4-7.9-6.7-6.5-11.7l0,0l9.4-32.5c1.5-5,6.7-7.9,11.7-6.5
	l47.4,13.6c5,1.5,7.9,6.7,6.5,11.7l-9.4,32.5C2130.6,732.9,2126.9,735.6,2122.7,735.7z M2122.7,726.1l-1.3,4.6L2122.7,726.1
	L2122.7,726.1z M2084.7,680.1l-9.3,32.5l47.3,13.5l9.3-32.5L2084.7,680.1z"/>
<path class="st0" d="M2163.3,725c-0.4,0-0.9-0.1-1.3-0.2l-30.6-8.8c-2.5-0.7-4-3.4-3.3-5.9s3.4-4,5.9-3.3l30.6,8.8
	c2.5,0.7,4,3.4,3.2,5.9C2167.2,723.6,2165.4,725,2163.3,725L2163.3,725z"/>
<path class="st0" d="M2146.5,738.7c-1.1,0.1-2-0.8-2.1-1.9c0-0.2,0-0.5,0.1-0.7l11.3-39.1c0.3-1.1,1.4-1.7,2.5-1.4s1.7,1.4,1.4,2.5
	l0,0l-11.3,39.1C2148.2,738,2147.4,738.6,2146.5,738.7z"/>
<path class="st3" d="M2052.1,822.5l29.2,8.4c4.5,1.3,7.1,6,5.8,10.5l-5.6,19.5c-1.3,4.5-6,7.1-10.5,5.8l-29.2-8.4
	c-4.5-1.3-7.1-6-5.8-10.5l5.6-19.5C2043,823.8,2047.6,821.2,2052.1,822.5z"/>
<path class="st0" d="M2071.4,870.9c-1.5,0-3.1-0.2-4.5-0.6l-23.4-6.7c-8.6-2.5-13.6-11.5-11.1-20.1l3.9-13.6
	c2.5-8.6,11.5-13.6,20.1-11.1l0,0l23.4,6.7c8.6,2.5,13.6,11.5,11.1,20.1l0,0l-3.9,13.6C2085,866.1,2078.6,870.9,2071.4,870.9
	L2071.4,870.9z M2051.9,827.6c-3,0-5.6,2-6.5,4.9l-3.9,13.6c-1,3.6,1,7.3,4.6,8.3l23.4,6.7c3.6,1,7.3-1,8.3-4.6l3.9-13.6
	c1-3.6-1-7.3-4.6-8.3l-23.4-6.7C2053.2,827.7,2052.5,827.6,2051.9,827.6L2051.9,827.6z"/>
<path class="st4" d="M2194.1,459.7h16c4.4,0,7.9,3.6,7.9,7.9V831c0,4.4-3.6,7.9-7.9,7.9h-16c-4.4,0-7.9-3.6-7.9-7.9V467.6
	C2186.2,463.2,2189.7,459.7,2194.1,459.7z"/>
<path class="st5" d="M2220,468.6V832c0,4.3-7.1,7.9-15.9,7.9V460.7c3.9-0.1,7.7,0.7,11.3,2.3C2218.2,464.4,2220,466.4,2220,468.6z"
	/>
<path class="st0" d="M2223.8,844.4h-41.4V455.2h41.4V844.4z M2191.9,834.4h22.3V465.2h-22.3V834.4z"/>
<path class="st1" d="M2181.3,525.8h46.2c1.9,0,3.4,1.5,3.4,3.5v34.1c0,1.9-1.5,3.5-3.4,3.5h-46.2c-1.9,0-3.4-1.5-3.4-3.5v-34.1
	C2177.9,527.3,2179.4,525.8,2181.3,525.8z"/>
<path class="st2" d="M2231,533v26.6c0.1,3.9-3,7.1-6.9,7.2H2204v-41h20.1C2228,525.9,2231.1,529.1,2231,533z"/>
<path class="st0" d="M2225.6,572.5h-43.7c-5.3-0.1-9.6-4.6-9.5-9.9v-31.1c-0.1-5.3,4.1-9.8,9.5-9.9h43.7c5.3,0.1,9.6,4.6,9.5,9.9
	v31.1C2235.2,567.9,2231,572.4,2225.6,572.5z M2225.6,562.5L2225.6,562.5z M2225.5,531.4l-43.6,0.1l0.1,31.1l43.6-0.1L2225.5,531.4z
	"/>
<path class="st0" d="M2259.8,552H2231c-2.8,0-5-2.2-5-5s2.2-5,5-5h28.8c2.8,0,5,2.2,5,5S2262.6,552,2259.8,552L2259.8,552z"/>
<path class="st0" d="M2249.4,568.4c-1.1,0-2-1-2-2.1v-38.5c0-1.1,0.9-2,2-2s2,0.9,2,2v38.5C2251.5,567.4,2250.6,568.4,2249.4,568.4
	L2249.4,568.4z"/>
<path class="st1" d="M2181.3,687h46.2c1.9,0,3.4,1.5,3.4,3.5v34.1c0,1.9-1.5,3.5-3.4,3.5h-46.2c-1.9,0-3.4-1.5-3.4-3.5v-34.1
	C2177.9,688.6,2179.4,687,2181.3,687z"/>
<path class="st2" d="M2231,694.3v26.6c0.1,3.9-3,7.1-6.9,7.2H2204v-41h20.1C2228,687.1,2231.1,690.4,2231,694.3z"/>
<path class="st0" d="M2225.6,733.8h-43.7c-5.3-0.1-9.6-4.6-9.5-9.9v-31.1c-0.1-5.4,4.1-9.8,9.5-9.9h43.7c5.4,0.1,9.6,4.6,9.5,9.9
	v31.1C2235.2,729.2,2230.9,733.6,2225.6,733.8z M2225.6,723.8L2225.6,723.8z M2225.5,692.7l-43.6,0.1l0.1,31.1l43.6-0.1
	L2225.5,692.7z"/>
<path class="st0" d="M2259.8,713.3H2231c-2.8,0-5-2.2-5-5s2.2-5,5-5h28.8c2.8,0,5,2.2,5,5S2262.6,713.3,2259.8,713.3L2259.8,713.3z"
	/>
<path class="st0" d="M2249.4,729.7c-1.1,0-2-1-2-2.1V689c0-1.1,0.9-2,2-2s2,0.9,2,2v38.5C2251.5,728.7,2250.6,729.7,2249.4,729.7
	C2249.5,729.7,2249.4,729.7,2249.4,729.7z"/>
<path class="st3" d="M2189.6,830.5h26.1c4.6,0,8.4,3.8,8.4,8.4v18.5c0,4.6-3.8,8.4-8.4,8.4h-26.1c-4.6,0-8.4-3.8-8.4-8.4v-18.5
	C2181.2,834.2,2184.9,830.5,2189.6,830.5z"/>
<path class="st0" d="M2212.5,870.7h-19.8c-9,0-16.3-7.7-16.3-17v-11.1c0-9.4,7.3-17,16.3-17h19.8c9,0,16.3,7.7,16.3,17v11.1
	C2228.8,863,2221.5,870.7,2212.5,870.7z M2192.7,835.5c-3.8,0.1-6.8,3.3-6.7,7.1v11.1c-0.1,3.8,2.9,7,6.7,7.1h19.8
	c3.8-0.1,6.8-3.3,6.7-7.1v-11.1c0.1-3.8-2.9-7-6.7-7.1H2192.7z"/>
<path class="st3" d="M2099.7,368.8h207.6c6.6,0,12,5.4,12,12v34.6c0,6.6-5.4,12-12,12h-207.6c-6.6,0-12-5.4-12-12v-34.6
	C2087.7,374.1,2093.1,368.8,2099.7,368.8z"/>
<path class="st6" d="M2318,389.2h-231.7c0-9,7.3-16.3,16.4-16.4h198.9C2310.7,372.9,2318,380.2,2318,389.2z"/>
<path class="st1" d="M2275.8,432.8v24c0,6.3-5.1,11.4-11.4,11.5h-124.9c-6.3,0-11.4-5.1-11.4-11.5v-24"/>
<path class="st1" d="M2128,363.3V308c0-6.3,5.1-11.4,11.4-11.5h124.9c6.3,0,11.4,5.1,11.4,11.5v55.3"/>
<path class="st2" d="M2276.6,309.3v55.3h-73.9v-66.8h62.5C2271.5,297.9,2276.6,303,2276.6,309.3z"/>
<path class="st2" d="M2202.7,434.1h73.9v24c0,6.3-5.1,11.4-11.4,11.5h-62.5V434.1z"/>
<line class="st7" x1="2202.7" y1="434.1" x2="2202.7" y2="364.7"/>
<path class="st1" d="M2139.5,250.9v8c0,6.5,5.3,11.8,11.8,11.8h96.4c6.5,0,11.8-5.3,11.8-11.8v-7.6"/>
<path class="st2" d="M2259.4,252.7v7.6c0,0.6-0.1,1.3-0.2,1.9l-119.6-0.4c-0.1-0.5-0.1-1-0.1-1.5v-8L2259.4,252.7z"/>
<path class="st3" d="M2158.6,273.4v10c0,7.2,5.9,13.1,13.1,13.1l0,0h61c7.2,0,13.1-5.9,13.1-13.1l0,0v-10"/>
<rect x="2161.3" y="276.1" class="st6" width="87.2" height="8.2"/>
<path class="st1" d="M2102.8,44.5h201.4c22.7,0,41,18.4,41,41v123.7c0,22.7-18.4,41-41,41h-201.4c-22.7,0-41-18.4-41-41V85.5
	C2061.8,62.8,2080.2,44.5,2102.8,44.5z"/>
<path class="st8" d="M2341.1,98.5v8.2c0-26.8-21.8-48.6-48.6-48.6l0,0h-186.2c-26.8,0-48.6,21.8-48.6,48.6l0,0v-8.2
	c0-26.8,21.8-48.6,48.6-48.6l0,0h186.2C2319.4,49.9,2341.1,71.7,2341.1,98.5z"/>
<path class="st2" d="M2057.7,212.5v-16.4c0,23.1,21.8,41.8,48.6,41.8h186.2c26.8,0,48.6-18.7,48.6-41.8v16.4
	c0,23.1-21.8,41.8-48.6,41.8h-186.2C2079.5,254.3,2057.7,235.6,2057.7,212.5z"/>
<circle class="st2" cx="2204.9" cy="172.5" r="65.4"/>
<path class="st0" d="M2247.6,280.2h-96.4c-10.2,0-18.5-8.3-18.6-18.6v-8c0-3.8,3.1-6.8,6.8-6.8s6.8,3.1,6.8,6.8v8
	c0,2.7,2.2,4.9,4.9,4.9h96.4c2.7,0,4.9-2.2,4.9-4.9V254c0-3.8,3.1-6.8,6.8-6.8s6.8,3.1,6.8,6.8l0,0v7.6
	C2266.2,271.9,2257.9,280.2,2247.6,280.2z"/>
<path class="st0" d="M2234,303.4h-61c-11,0-19.9-8.9-19.9-19.9v-10.1c0-3.8,3.1-6.8,6.8-6.8s6.8,3.1,6.8,6.8l0,0v10
	c0,3.5,2.8,6.3,6.3,6.3h61c3.5,0,6.3-2.8,6.3-6.3v-10c0-3.8,3.1-6.8,6.8-6.8s6.8,3.1,6.8,6.8l0,0v10
	C2253.9,294.4,2245,303.3,2234,303.4z"/>
<path class="st0" d="M2275.8,370.1c-3.8,0-6.8-3-6.8-6.8l0,0V308c0-2.5-2.1-4.6-4.6-4.6h-125c-2.5,0-4.6,2.1-4.6,4.6v55.3
	c0,3.8-3.1,6.8-6.8,6.8s-6.8-3.1-6.8-6.8V308c0-10.1,8.2-18.2,18.3-18.3h124.9c10.1,0,18.2,8.2,18.3,18.3v55.3
	C2282.6,367.1,2279.6,370.1,2275.8,370.1z"/>
<path class="st0" d="M2264.4,475h-124.9c-10.1,0-18.2-8.2-18.3-18.3v-24c0-3.8,3.1-6.8,6.8-6.8s6.8,3.1,6.8,6.8l0,0v24
	c0,2.5,2.1,4.6,4.6,4.6h125c2.5,0,4.6-2.1,4.6-4.6v-24c0-3.8,3.1-6.8,6.8-6.8s6.8,3.1,6.8,6.8l0,0v24
	C2282.6,466.8,2274.5,475,2264.4,475z"/>
<path class="st0" d="M2301.4,435.5h-198.9c-12.8,0-23.1-10.4-23.2-23.2v-25.9c0-12.8,10.4-23.1,23.2-23.2h198.9
	c12.8,0,23.1,10.4,23.2,23.2v25.9C2324.5,425.1,2314.2,435.5,2301.4,435.5z M2102.5,376.9c-5.3,0-9.5,4.3-9.5,9.5v25.9
	c0,5.3,4.3,9.5,9.5,9.5h198.9c5.3,0,9.5-4.3,9.5-9.5v-25.9c0-5.3-4.3-9.5-9.5-9.5H2102.5z"/>
<circle class="st9" cx="2204.9" cy="153.5" r="65.4"/>
<g class="st10">
	<path class="st11" d="M2241.9,97l-80.6,102.9c-5.2-3.7-9.9-8.2-13.8-13.3l78.1-99.8C2231.6,89.4,2237,92.8,2241.9,97z"/>
	<path class="st11" d="M2260.2,122.4l-69.8,89.1c-6.8-0.9-13.4-2.9-19.6-5.9l78.9-100.7C2254.1,110.1,2257.6,116,2260.2,122.4z"/>
</g>
<path class="st0" d="M2204.9,225.7c-39.9,0-72.2-32.3-72.2-72.2s32.3-72.2,72.2-72.2s72.2,32.3,72.2,72.2l0,0
	C2277,193.3,2244.7,225.6,2204.9,225.7z M2204.9,94.9c-32.4,0-58.6,26.2-58.6,58.6s26.2,58.6,58.6,58.6c32.4,0,58.6-26.2,58.6-58.6
	C2263.4,121.1,2237.2,94.9,2204.9,94.9z"/>
<path class="st12" d="M2204.9,224.3c-39.1,0-70.8-31.7-70.8-70.9s31.7-70.8,70.9-70.8s70.8,31.7,70.8,70.8
	C2275.7,192.6,2244,224.3,2204.9,224.3z M2204.9,98c-30.6,0-55.4,24.8-55.4,55.4s24.8,55.5,55.4,55.5c30.6,0,55.4-24.8,55.4-55.4
	l0,0C2260.3,122.9,2235.5,98,2204.9,98L2204.9,98z"/>
<path class="st0" d="M2204.9,203.9c-27.8,0-50.4-22.6-50.4-50.4s22.6-50.4,50.4-50.4c27.8,0,50.4,22.6,50.4,50.4l0,0
	C2255.3,181.3,2232.7,203.8,2204.9,203.9z M2204.9,111.2c-23.3,0-42.2,18.9-42.2,42.2s18.9,42.2,42.2,42.2s42.2-18.9,42.2-42.2l0,0
	C2247.1,130.2,2228.2,111.3,2204.9,111.2z"/>
<path class="st13" d="M2204.9,201.2c-26.3,0-47.7-21.4-47.7-47.7s21.4-47.7,47.7-47.7s47.7,21.4,47.7,47.7l0,0
	C2252.5,179.8,2231.2,201.1,2204.9,201.2z M2204.9,114c-21.8,0-39.5,17.7-39.5,39.5s17.7,39.5,39.5,39.5s39.5-17.7,39.5-39.5
	C2244.3,131.7,2226.7,114,2204.9,114L2204.9,114z"/>
<circle class="st3" cx="2300.3" cy="86.7" r="12.3"/>
<path class="st0" d="M2300.3,101c-8.7,0-15.7-7-15.7-15.7s7-15.7,15.7-15.7s15.7,7,15.7,15.7l0,0C2315.9,94,2308.9,101,2300.3,101z
	 M2300.3,76.5c-4.9,0-8.9,4-8.9,8.9s4,8.9,8.9,8.9s8.9-4,8.9-8.9C2309.1,80.4,2305.1,76.5,2300.3,76.5L2300.3,76.5z"/>
<path class="st2" d="M2108,255c-3.8,0-6.8-3-6.8-6.8l0,0v-201c0-3.8,3.1-6.8,6.8-6.8s6.8,3.1,6.8,6.8l0,0v201
	C2114.8,252,2111.8,255,2108,255L2108,255z"/>
<path class="st0" d="M2293.2,257.7H2107c-30.6,0-55.4-24.8-55.4-55.4V93.7c0-30.6,24.8-55.4,55.4-55.4h186.2
	c30.6,0,55.4,24.8,55.4,55.4v108.5C2348.6,232.9,2323.8,257.7,2293.2,257.7z M2107,52c-23.1,0-41.8,18.7-41.8,41.8v108.5
	c0,23.1,18.7,41.8,41.8,41.8h186.2c23.1,0,41.8-18.7,41.8-41.8V93.7c0-23.1-18.7-41.7-41.8-41.7C2293.2,52,2107,52,2107,52z"/>
<path class="st0" d="M2110.7,253.6c-2.3,0-4.1-1.8-4.1-4.1l0,0v-201c0-2.3,1.8-4.1,4.1-4.1c2.2,0,4.1,1.8,4.1,4.1v201
	C2114.8,251.8,2113,253.6,2110.7,253.6z"/>
<g class="st14">
	<path class="st0" d="M1664.1,165.8h-130.3c-7,0-12.7-5.7-12.8-12.8v-40c0-7,5.7-12.7,12.8-12.8h130.3c7,0,12.7,5.7,12.7,12.8v40.1
		C1676.9,160.1,1671.2,165.8,1664.1,165.8z M1533.8,110.2c-1.5,0-2.7,1.2-2.8,2.8v40.1c0,1.5,1.2,2.7,2.8,2.8h130.3
		c1.5,0,2.7-1.2,2.8-2.8V113c0-1.5-1.2-2.7-2.8-2.8H1533.8z"/>
	<path class="st0" d="M1718.3,222.2H1588c-7,0-12.7-5.7-12.8-12.8v-40.1c0-7,5.7-12.7,12.8-12.8h130.3c7,0,12.7,5.7,12.8,12.8v40.1
		C1731,216.5,1725.3,222.2,1718.3,222.2z M1587.9,166.6c-1.5,0-2.7,1.2-2.8,2.8v40.1c0,1.5,1.2,2.7,2.8,2.8h130.3
		c1.5,0,2.7-1.2,2.8-2.8v-40.1c0-1.5-1.2-2.7-2.8-2.8L1587.9,166.6L1587.9,166.6z"/>
</g>
<g class="st14">
	<path class="st0" d="M1579.1,739.8h-130.3c-7,0-12.7-5.7-12.8-12.8v-40c0-7,5.7-12.7,12.8-12.8h130.3c7,0,12.7,5.7,12.7,12.8v40.1
		C1591.9,734.1,1586.2,739.8,1579.1,739.8z M1448.8,684.2c-1.5,0-2.7,1.2-2.8,2.8v40.1c0,1.5,1.2,2.7,2.8,2.8h130.3
		c1.5,0,2.7-1.2,2.8-2.8V687c0-1.5-1.2-2.7-2.8-2.8H1448.8z"/>
	<path class="st0" d="M1633.3,796.2H1503c-7,0-12.7-5.7-12.8-12.8v-40.1c0-7,5.7-12.7,12.8-12.8h130.3c7,0,12.7,5.7,12.8,12.8v40.1
		C1646,790.5,1640.3,796.2,1633.3,796.2z M1502.9,740.6c-1.5,0-2.7,1.2-2.8,2.8v40.1c0,1.5,1.2,2.7,2.8,2.8h130.3
		c1.5,0,2.7-1.2,2.8-2.8v-40.1c0-1.5-1.2-2.7-2.8-2.8H1502.9z"/>
</g>
<path class="st0" d="M1152,849.2c-2.8,0-5-2.2-5-5c0-2.4,1.6-4.4,4-4.9l69.5-15.1H1621c2.8,0,5,2.2,5,5s-2.2,5-5,5h-399.5
	l-68.5,14.9C1152.7,849.2,1152.4,849.2,1152,849.2z"/>
<path class="st0" d="M1589.8,853.2H1357c-13.9,0-26.9-7.7-36.6-21.5c-9.3-13.3-14.5-31-14.7-49.8l-0.7-70.6c0-2.7,2.2-5,4.9-5h0.1
	c2.8,0,5,2.2,5,5l0.7,70.6c0.3,33.9,18.8,61.5,41.2,61.5h227.5l213-310.4c1.6-2.3,4.7-2.9,7-1.3c2.3,1.6,2.9,4.7,1.3,7L1589.8,853.2
	z"/>
<polygon class="st1" points="880.8,725.4 880.8,914.2 1065.1,914.2 1065.1,732.2 "/>
<polygon class="st2" points="880.8,740 880.8,781.6 1065.1,781.6 1065.1,741.5 "/>
<path class="st0" d="M1070.1,919.2H875.8v-199l194.3,7.1v65.9c0,2.8-2.2,5-5,5s-5-2.2-5-5V737l-174.3-6.4v178.6h174.3v-96.3
	c0-2.8,2.2-5,5-5s5,2.2,5,5V919.2z"/>
<path class="st1" d="M837.1,842.3h268.3c19.3,0,35,15.7,35,35v4.3l0,0H802.1l0,0v-4.3C802.1,858,817.8,842.3,837.1,842.3z"/>
<path class="st0" d="M1147.6,887.8H799.3v-9.3c0-22.1,17.9-40,40-40h268.3c22.1,0,40,17.9,40,40V887.8z M809.4,877.8h328.3
	c-0.4-16.3-13.7-29.3-30-29.3H839.3C823,848.4,809.7,861.4,809.4,877.8L809.4,877.8z"/>
<path class="st1" d="M1490.1,102v624.2c0,12.6-10.2,22.8-22.8,22.8l0,0H500.8c-12.6,0-22.8-10.1-22.8-22.7v-0.1V102
	c0-3.4,0.8-6.8,2.3-9.9l0,0c3.2-6.6,9.3-11.3,16.5-12.5l0.3-0.1c1.2-0.2,2.4-0.3,3.7-0.3h966.5c1.2,0,2.4,0.1,3.6,0.3l0,0
	C1482,81.3,1490.1,90.8,1490.1,102z"/>
<path class="st11" d="M511.9,114.1h945.2c4,0,7.3,3.3,7.3,7.3V708c0,4-3.3,7.3-7.3,7.3H511.9c-4,0-7.3-3.3-7.3-7.3V121.4
	C504.6,117.3,507.9,114.1,511.9,114.1z"/>
<path class="st11" d="M514.3,114.1h945.2c4,0,7.3,3.3,7.3,7.3V708c0,4-3.3,7.3-7.3,7.3H514.3c-4,0-7.3-3.3-7.3-7.3V121.4
	C507,117.3,510.3,114.1,514.3,114.1z"/>
<path class="st4" d="M511.2,114.1h949.2c4,0,7.3,3.3,7.3,7.3v1.8c0,4-3.3,7.3-7.3,7.3H511.2c-4,0-7.3-3.3-7.3-7.3v-1.8
	C503.9,117.3,507.2,114.1,511.2,114.1z"/>
<path class="st15" d="M511.2,698.4h949.2c4,0,7.3,3.3,7.3,7.3v1.8c0,4-3.3,7.3-7.3,7.3H511.2c-4,0-7.3-3.3-7.3-7.3v-1.8
	C503.9,701.7,507.2,698.4,511.2,698.4z"/>
<path class="st2" d="M1474.4,118.3c-0.1-8.1-3.7-15.6-9.6-19.8c-2.5-1.8-5.2-3.3-8.1-4.5c-2.1-0.9-4.4-1.3-6.7-1.3H514.7
	c-4.5,0-8.8,1.5-12.3,4.3l-0.2,0.2c-5.6,4.7-9,12.3-9.2,20.3l-0.3,12.1L479.2,614v105.2c0,5.8,1.7,11.5,5,16.3
	c0.2,0.3,0.3,0.5,0.5,0.7c4,5.1,9.7,8.3,16.1,8.3h968.4c4.3,0,8.5-1.5,11.9-4.1c0.9-0.8,1.5-2,1.4-3.2L1474.4,118.3z M1467.8,121.9
	v577c0,6.6-4.6,12-10.2,12h-945c-2,0-4-1-5.2-2.7c-0.1-0.1-0.2-0.2-0.3-0.3c-1.2-1.6-1.9-3.5-1.8-5.5v-581c0-0.4-0.1-0.8-0.2-1.2
	c-0.2-0.8-0.3-1.6-0.3-2.4c0-2.1,0.7-4.2,2-5.8c0.6-0.7,1.2-1.2,2-1.6c1-0.7,2.2-1.1,3.5-1.1h945.8c1.1,0.1,2.1,0.7,2.6,1.8l0.2,0.3
	c0.4,0.8,1.2,1.4,2.1,1.7c2.9,0.5,3.8,3,3.8,7C1466.8,121.5,1468.4,120.7,1467.8,121.9L1467.8,121.9z"/>
<path class="st0" d="M1456.9,720H511.7c-6.8,0-12.3-5.5-12.3-12.3V121.1c0-6.8,5.5-12.3,12.3-12.3h945.2c6.8,0,12.3,5.5,12.3,12.3
	v586.6C1469.2,714.5,1463.7,720,1456.9,720z M511.7,118.8c-1.3,0-2.3,1-2.3,2.3v586.6c0,1.3,1,2.3,2.3,2.3h945.2
	c1.3,0,2.3-1,2.3-2.3V121.1c0-1.3-1-2.3-2.3-2.3L511.7,118.8z"/>
<path class="st0" d="M1470.9,754.3H497.7c-13.5,0-24.4-12.5-24.4-27.8V102.3c0-15.3,11-27.8,24.4-27.8h142.1c2.8,0,5,2.2,5,5
	s-2.2,5-5,5H497.7c-8,0-14.4,8-14.4,17.8v624.2c0,9.8,6.5,17.8,14.4,17.8h973.2c8,0,14.4-8,14.4-17.8V102.3
	c0-9.8-6.5-17.8-14.4-17.8H766.6c-2.8,0-5-2.2-5-5s2.2-5,5-5h704.3c13.5,0,24.4,12.5,24.4,27.8v624.2
	C1495.3,741.8,1484.4,754.3,1470.9,754.3z"/>
<path class="st0" d="M749,84.5h-20.5c-2.8,0-5-2.2-5-5s2.2-5,5-5H749c2.8,0,5,2.2,5,5S751.7,84.5,749,84.5L749,84.5z"/>
<path class="st0" d="M706.3,84.5h-46.1c-2.8,0-5-2.2-5-5s2.2-5,5-5h46c2.8,0,5,2.2,5,5S709.1,84.5,706.3,84.5L706.3,84.5z"/>
<path class="st1" d="M1624.5,262.2h282.2c20.9,0,37.9,17,37.9,37.9v528.2c0,20.9-17,37.9-37.9,37.9h-282.2
	c-20.9,0-37.9-17-37.9-37.9V300.1C1586.7,279.2,1603.6,262.2,1624.5,262.2z"/>
<path class="st2" d="M1948,820.2v17.9c0,15-17,27.1-37.9,27.1h-282.2c-20.9,0-37.9-12.1-37.9-27.1v-17.9c0,15,17,27.1,37.9,27.1
	h282.2C1931,847.3,1948,835.2,1948,820.2z"/>
<path class="st16" d="M1586.7,308.2v-17.9c0-15,17-27.1,37.9-27.1h282.2c20.9,0,37.9,12.1,37.9,27.1v17.9c0-15-17-27.1-37.9-27.1
	h-282.2C1603.6,281.1,1586.7,293.2,1586.7,308.2z"/>
<path class="st17" d="M30.5,881.2h2363c14.1,0,25.5,11.4,25.5,25.5l0,0c0,14.1-11.4,25.5-25.5,25.5H30.5C16.4,932.2,5,920.8,5,906.7
	l0,0C5,892.6,16.4,881.2,30.5,881.2z"/>
<path class="st18" d="M2419,901.7c0,6.6-2.4,13.1-6.8,18c-4.2,4.7-10.1,7.4-16.4,7.5H28.3C15.4,927.2,5,915.8,5,901.7
	c0-3.1,0.5-6.1,1.5-9c3.3,9.6,11.8,16.5,21.8,16.5h2367.5c6.3-0.1,12.3-2.8,16.4-7.5c2.4-2.6,4.2-5.7,5.3-9
	C2418.5,895.6,2419,898.7,2419,901.7z"/>
<path class="st0" d="M2393.5,935.2H30.5C13.7,935.2,0,921.6,0,904.7s13.7-30.5,30.5-30.5h2363c16.8,0,30.5,13.7,30.5,30.5
	S2410.3,935.2,2393.5,935.2z M30.5,884.2c-11.3,0-20.5,9.2-20.5,20.5s9.2,20.5,20.5,20.5h2363c11.3,0,20.5-9.2,20.5-20.5
	s-9.2-20.5-20.5-20.5H30.5z"/>
<circle class="st3" cx="1648.4" cy="319" r="11.4"/>
<path class="st0" d="M1648.4,332.3c-8,0-14.5-6.5-14.5-14.6s6.5-14.5,14.6-14.5c8,0,14.5,6.5,14.5,14.6
	C1663,325.7,1656.5,332.2,1648.4,332.3z M1648.4,309.5c-4.5,0-8.2,3.7-8.2,8.2s3.7,8.2,8.2,8.2s8.2-3.7,8.2-8.2l0,0
	C1656.7,313.2,1653,309.5,1648.4,309.5z"/>
<path class="st0" d="M1906.8,871.7h-282.3c-23.7,0-42.9-19.2-42.9-42.9V300.6c0-23.7,19.2-42.9,42.9-42.9h61.5c2.8,0,5,2.2,5,5
	s-2.2,5-5,5h-61.5c-18.2,0-32.9,14.7-32.9,32.9v528.3c0,18.2,14.7,32.9,32.9,32.9h282.3c18.2,0,32.9-14.7,32.9-32.9V300.6
	c0-18.1-14.7-32.9-32.9-32.9H1862c-2.8,0-5-2.2-5-5s2.2-5,5-5h44.8c23.7,0,42.9,19.2,42.9,42.9v528.3
	C1949.6,852.5,1930.4,871.7,1906.8,871.7z"/>
<path class="st0" d="M1832,267.7h-22c-2.8,0-5-2.2-5-5s2.2-5,5-5h22c2.8,0,5,2.2,5,5S1834.8,267.7,1832,267.7z"/>
<path class="st0" d="M1786,267.7h-67c-2.8,0-5-2.2-5-5s2.2-5,5-5h67c2.8,0,5,2.2,5,5S1788.8,267.7,1786,267.7z"/>
<path class="st15" d="M604.6,510.8L569,636.1c-2.3,8.1-10.7,12.8-18.8,10.5l0,0L507,634.3l-1.7-0.5l-0.7-0.2l-0.2-0.1l-25.2-7.2
	l-1-0.3l-0.2-0.1v-10.5l-18.4-5.2c-2,3.6-5.2,6.4-8.9,8l-22.7-6.5c-2.4-3.4-3.6-7.4-3.4-11.5l-28.2-8l1.4-4.8l0,0l1.4-4.7l14.1-49.6
	l3.1-11l6.4-22.3l0,0l0.3-1l3.1-11l11.5-40.5l27.7,7.9l4.8,1.4l4.7,1.4l3.3,0.9l0.2,0.1l5.2,1.5l2.7,0.8l5.7,1.6l1.9,0.5l2.8,0.8
	l4.8,1.4l3,0.9l0.2,0.1l0.7,0.2l1.7,0.5l82.1,23.3l4.8,1.4l0.3,0.1C602.2,494.3,606.9,502.7,604.6,510.8L604.6,510.8z"/>
<g class="st14">
	<path class="st0" d="M367.7,769.8H237.4c-7,0-12.7-5.7-12.8-12.8v-40c0-7,5.7-12.7,12.8-12.8h130.3c7,0,12.7,5.7,12.8,12.8v40.1
		C380.4,764.1,374.7,769.8,367.7,769.8z M237.4,714.2c-1.5,0-2.7,1.2-2.8,2.8v40.1c0,1.5,1.2,2.7,2.8,2.8h130.3
		c1.5,0,2.7-1.2,2.8-2.8V717c0-1.5-1.2-2.7-2.8-2.8H237.4z"/>
	<path class="st0" d="M421.8,826.2H291.5c-7,0-12.7-5.7-12.8-12.8v-40.1c0-7,5.7-12.7,12.8-12.8h130.3c7,0,12.7,5.7,12.8,12.8v40.1
		C434.6,820.5,428.9,826.2,421.8,826.2z M291.5,770.6c-1.5,0-2.7,1.2-2.8,2.8v40.1c0,1.5,1.2,2.7,2.8,2.8h130.3
		c1.5,0,2.7-1.2,2.8-2.8v-40.1c0-1.5-1.2-2.7-2.8-2.8H291.5z"/>
</g>
<g class="st14">
	<path class="st0" d="M241.7,306.8H111.4c-7,0-12.7-5.7-12.8-12.8v-40c0-7,5.7-12.7,12.8-12.8h130.3c7,0,12.7,5.7,12.8,12.8v40.1
		C254.4,301.1,248.7,306.8,241.7,306.8z M111.4,251.2c-1.5,0-2.7,1.2-2.8,2.8v40.1c0,1.5,1.2,2.7,2.8,2.8h130.3
		c1.5,0,2.7-1.2,2.8-2.8V254c0-1.5-1.2-2.7-2.8-2.8H111.4z"/>
	<path class="st0" d="M295.8,363.2H165.5c-7,0-12.7-5.7-12.8-12.8v-40.1c0-7,5.7-12.7,12.8-12.8h130.3c7,0,12.7,5.7,12.8,12.8v40.1
		C308.6,357.5,302.9,363.2,295.8,363.2z M165.5,307.6c-1.5,0-2.7,1.2-2.8,2.8v40.1c0,1.5,1.2,2.7,2.8,2.8h130.3
		c1.5,0,2.7-1.2,2.8-2.8v-40.1c0-1.5-1.2-2.7-2.8-2.8H165.5z"/>
</g>
<g class="st14">
	<path class="st0" d="M544.8,80.8H414.5c-7,0-12.7-5.7-12.8-12.8V28c0-7,5.7-12.8,12.8-12.8h130.3c7,0,12.8,5.7,12.8,12.8v40.1
		C557.6,75.1,551.9,80.8,544.8,80.8z M414.5,25.2c-1.5,0-2.8,1.2-2.8,2.8l0,0v40.1c0,1.5,1.2,2.7,2.8,2.8h130.3
		c1.5,0,2.7-1.2,2.8-2.8V28c0-1.5-1.2-2.7-2.8-2.8H414.5z"/>
	<path class="st0" d="M490.7,137.2H360.4c-7,0-12.7-5.7-12.8-12.8V84.3c0-7,5.7-12.7,12.8-12.8h130.3c7,0,12.7,5.7,12.8,12.8v40.1
		C503.4,131.5,497.7,137.2,490.7,137.2z M360.4,81.6c-1.5,0-2.7,1.2-2.8,2.8v40.1c0,1.5,1.2,2.7,2.8,2.8h130.3
		c1.5,0,2.7-1.2,2.8-2.8V84.3c0-1.5-1.2-2.7-2.8-2.8L360.4,81.6z"/>
</g>
<path class="st11" d="M99.5,407.7L93,430.5l0,0l-64-18.2c-3.9-1.1-6.2-5.2-5.2-9.1l0,0l2.4-8.5c1.1-3.9,5.2-6.2,9.2-5.1l0,0
	L99.5,407.7L99.5,407.7z"/>
<path class="st4" d="M94.2,429.8l-59.8-17c-6.3-1.8-9.9-8.3-8.2-14.6l0,0l71.1,20.2L94.2,429.8z"/>
<path class="st0" d="M22.5,397.1c2.5-8.9,11.8-14.1,20.7-11.5l64.5,18.3l-9.2,32.3L34,417.9C25.2,415.3,20,406,22.5,397.1z
	 M95.5,410.7l-55-15.6c-3.7-1-7.5,1.1-8.5,4.8c-1,3.7,1.1,7.5,4.8,8.5l55,15.6L95.5,410.7z"/>
<path class="st0" d="M234.8,311.4c0.7-2.5,2-4.9,3.6-7c4.9-6.4,13.2-9,21-6.8l128.7,36.6c10.5,3,16.6,13.9,13.6,24.5
	c-1.4,4.8-4.6,9-8.9,11.6l-56.1,33.6c-2.3,1.4-5.4,0.6-6.8-1.7c-1.4-2.3-0.6-5.4,1.7-6.8l56.1-33.6c4.7-2.8,6.2-8.9,3.4-13.7
	c-1.3-2.2-3.4-3.8-5.8-4.4l-128.7-36.6c-5.3-1.5-10.8,1.6-12.3,6.9c-0.7,2.5-0.4,5.3,0.9,7.6l32.4,58.2c1.4,2.3,0.6,5.4-1.8,6.7
	c-2.3,1.4-5.4,0.6-6.7-1.8c0-0.1-0.1-0.1-0.1-0.2l-32.4-58.2C234,321.9,233.4,316.5,234.8,311.4z"/>
<path class="st0" d="M157.8,582.4c1.4-5,4.8-9.3,9.4-11.8l58.2-32.4c2.4-1.3,5.4-0.4,6.7,2.1c1.2,2.3,0.4,5.2-1.9,6.6L172,579.3
	c-4.8,2.7-6.5,8.7-3.8,13.5c1.3,2.3,3.4,4,6,4.7l128.7,36.6c5.3,1.5,10.8-1.6,12.3-6.9c0.7-2.4,0.4-5-0.7-7.2l-30-58.1
	c-1.3-2.4-0.3-5.4,2.1-6.6s5.4-0.3,6.6,2.1l0,0l30,58.1c5,9.7,1.2,21.7-8.5,26.7c-4.5,2.3-9.7,2.8-14.5,1.5L171.4,607
	c-7.8-2.1-13.4-8.8-14.3-16.8C156.9,587.6,157.1,584.9,157.8,582.4z"/>
<path class="st0" d="M284,558.1c0.5-1.7,1.8-3,3.5-3.4l152.3-38.3L330.5,403.7c-1.9-2-1.9-5.1,0.1-7s5.1-1.9,7,0.1l121.2,125
	L290,564.3c-2.6,0.7-5.3-0.9-6-3.6C283.8,559.8,283.8,559,284,558.1L284,558.1z"/>
<path class="st0" d="M103.4,420.8l168.8-42.5c2.6-0.6,5.3,1,5.9,3.7c0.6,2.6-0.9,5.2-3.5,5.9l-152.3,38.4L231.6,539
	c1.9,2,1.9,5.1-0.1,7s-5.1,1.9-7-0.1L103.4,420.8z"/>
<path class="st0" d="M207.5,712.2l138.4-486.9c0.7-2.6,3.5-4.1,6.1-3.4c2.6,0.7,4.1,3.5,3.4,6.1L217,714.9c-0.7,2.6-3.5,4.1-6.1,3.4
	C208.3,717.5,206.8,714.8,207.5,712.2L207.5,712.2L207.5,712.2z"/>
<path class="st11" d="M379.9,582.6l-250-71.1c-1.6-0.4-3.1-1-4.6-1.6c-0.7-0.3-1.5-0.6-2.2-0.9c-1.8-0.8-3.5-1.7-5.2-2.8
	c-0.7-0.4-1.3-0.8-2-1.3l-0.9-0.7c-2.1-1.6-4.2-3.4-6-5.3c-0.5-0.6-1.1-1.1-1.6-1.7c-0.8-0.9-1.5-1.7-2.2-2.6s-1.3-1.8-2-2.8
	c-7.5-11.5-9.7-25.7-5.9-38.9l18.1-63.7c0.1-0.4,0.2-0.8,0.3-1.2c0.1-0.2,0.1-0.4,0.2-0.6s0.2-0.5,0.3-0.8c0.3-0.9,0.6-1.8,1-2.7
	c0.2-0.4,0.3-0.8,0.5-1.2c0.2-0.4,0.3-0.8,0.5-1.1c0.6-1.2,1.2-2.3,1.8-3.4c0.2-0.3,0.4-0.7,0.6-1s0.2-0.4,0.4-0.6s0.4-0.6,0.6-0.9
	s0.5-0.7,0.7-1s0.5-0.8,0.8-1.1c0.8-1,1.6-2,2.5-3c0.3-0.4,0.7-0.7,1-1.1l0.8-0.8c0.3-0.3,0.6-0.6,0.9-0.9l0.9-0.9l1-0.9
	c0.6-0.5,1.3-1,1.9-1.5l0.1-0.1c0.7-0.5,1.4-1,2.1-1.5c0.4-0.3,0.7-0.5,1.1-0.7l1.1-0.7c0.4-0.2,0.7-0.4,1.1-0.6l1.1-0.6
	c0.4-0.2,0.8-0.4,1.1-0.6l1.2-0.5c0.4-0.2,0.8-0.4,1.2-0.5c10-4.3,21.1-5,31.6-2l250,71.1L379.9,582.6z"/>
<path class="st11" d="M83.5,460.3l23.7-83.3c1.1-3.9,5.2-6.2,9.1-5.1l0,0c3.9,1.1,6.2,5.2,5.1,9.1l-23.7,83.3
	c-1.1,3.9-5.2,6.2-9.1,5.1l0,0C84.7,468.3,82.4,464.2,83.5,460.3z"/>
<path class="st4" d="M85.2,468.4c-0.7-0.2-1.3-0.5-1.9-0.9c3.3-0.1,6.1-2.2,7-5.4l23.8-83.3c0.5-1.9,0.3-3.9-0.7-5.6
	c-0.6-1.1-1.5-2-2.5-2.6c4.1,0,7.4,3.3,7.4,7.4c0,0.7-0.1,1.4-0.3,2.1l-23.7,83.3C93.2,467.2,89.1,469.5,85.2,468.4L85.2,468.4z"/>
<path class="st0" d="M80.2,459.3l23.7-83.3c1.5-5.8,7.5-9.3,13.3-7.7c5.8,1.5,9.3,7.5,7.7,13.3c0,0.1-0.1,0.3-0.1,0.4l-23.7,83.3
	c-1.7,5.7-7.8,9-13.5,7.2C82,470.8,78.7,465,80.2,459.3L80.2,459.3z M118.1,380c0.6-2.1-0.6-4.3-2.7-4.9s-4.3,0.6-4.9,2.7l0,0
	l-23.7,83.4c-0.6,2.1,0.6,4.3,2.7,4.9s4.3-0.6,4.9-2.7L118.1,380z"/>
<path class="st4" d="M185,531.4c0.4,0.4,0.8,0.6,1.3,0.9c-1.3-2.1-1-4.7,0.6-6.5l42.5-47.8c1-1.1,2.3-1.7,3.8-1.8
	c0.9-0.1,1.8,0.1,2.6,0.5c-1.6-2.6-5-3.4-7.5-1.8c-0.4,0.3-0.8,0.6-1.2,1l-42.5,47.8C182.5,525.9,182.7,529.3,185,531.4L185,531.4z"
	/>
<path class="st4" d="M163.2,525.2c0.4,0.4,0.8,0.6,1.3,0.9c-1.3-2.1-1-4.7,0.6-6.5l42.5-47.8c1-1.1,2.3-1.7,3.8-1.8
	c0.9-0.1,1.8,0.1,2.6,0.5c-1.6-2.6-5-3.4-7.5-1.8c-0.4,0.3-0.8,0.6-1.2,1l-42.5,47.8C160.8,519.7,161,523.1,163.2,525.2
	C163.2,525.1,163.2,525.1,163.2,525.2z"/>
<path class="st4" d="M141.4,519c0.4,0.4,0.8,0.6,1.3,0.9c-1.3-2.1-1-4.7,0.6-6.5l42.5-47.8c1-1.1,2.3-1.7,3.8-1.8
	c0.9-0.1,1.8,0.1,2.6,0.5c-1.6-2.6-5-3.4-7.5-1.8c-0.4,0.3-0.8,0.6-1.2,1L141,511.2C139,513.5,139.1,516.9,141.4,519L141.4,519z"/>
<path class="st4" d="M252.4,550.5c0.4,0.4,0.8,0.6,1.3,0.9c-1.3-2.1-1-4.7,0.6-6.5l42.5-47.9c1-1.1,2.3-1.7,3.8-1.8
	c0.9-0.1,1.8,0.1,2.6,0.5c-1.6-2.6-5-3.4-7.5-1.8c-0.4,0.3-0.8,0.6-1.2,1L252,542.7C249.9,545,250.1,548.5,252.4,550.5L252.4,550.5z
	"/>
<path class="st4" d="M230.6,544.3c0.4,0.4,0.8,0.6,1.3,0.9c-1.3-2.1-1-4.7,0.6-6.5l42.5-47.8c1-1.1,2.3-1.7,3.8-1.8
	c0.9-0.1,1.8,0.1,2.6,0.5c-1.6-2.6-5-3.4-7.5-1.8c-0.4,0.3-0.8,0.6-1.2,1l-42.5,47.8C228.1,538.8,228.3,542.3,230.6,544.3
	L230.6,544.3z"/>
<path class="st4" d="M208.8,538.1c0.4,0.4,0.8,0.6,1.3,0.9c-1.3-2.1-1-4.7,0.6-6.5l42.5-47.8c1-1.1,2.3-1.7,3.8-1.8
	c0.9-0.1,1.8,0.1,2.6,0.5c-1.6-2.6-5-3.4-7.5-1.8c-0.4,0.3-0.8,0.6-1.2,1l-42.5,47.8C206.3,532.6,206.5,536.1,208.8,538.1
	L208.8,538.1z"/>
<path class="st4" d="M298.5,384.7c0.5-0.1,1.1-0.1,1.6,0c-2.2,1.1-3.4,3.5-2.9,5.8l11,63c0.2,1.4,1.1,2.7,2.2,3.5
	c0.7,0.5,1.6,0.9,2.5,1c-2.7,1.3-6,0.2-7.3-2.5c-0.2-0.5-0.4-1-0.5-1.5l-11-63C293.5,388.1,295.5,385.2,298.5,384.7L298.5,384.7z"/>
<path class="st4" d="M276.7,378.5c0.5-0.1,1.1-0.1,1.6,0c-2.2,1.1-3.4,3.5-2.9,5.8l11,63c0.2,1.4,1.1,2.7,2.2,3.5
	c0.7,0.5,1.6,0.9,2.5,1c-2.7,1.3-6,0.2-7.3-2.5c-0.2-0.5-0.4-1-0.5-1.5l-11-63C271.7,381.9,273.7,379,276.7,378.5
	C276.6,378.5,276.7,378.5,276.7,378.5z"/>
<path class="st4" d="M254.9,372.3c0.5-0.1,1.1-0.1,1.6,0c-2.2,1.1-3.4,3.5-2.9,5.8l11,63c0.2,1.4,1.1,2.7,2.2,3.5
	c0.7,0.5,1.6,0.9,2.5,1c-2.7,1.3-6,0.2-7.3-2.5c-0.2-0.5-0.4-1-0.5-1.5l-11-63C249.9,375.7,251.8,372.8,254.9,372.3
	C254.8,372.3,254.8,372.3,254.9,372.3z"/>
<path class="st19" d="M539.3,627.9l-156.6-44.5l44-154.6l156.6,44.5c8.1,2.3,12.8,10.7,10.5,18.8l0,0l-35.6,125.3
	C555.8,625.5,547.4,630.2,539.3,627.9z"/>
<path class="st20" d="M540.3,628.1l-156.6-44.5l44-154.6l7.4,2.1L416.7,533c-3.9,21.8,8.5,43.3,29.4,50.8L556.3,623
	C552.5,627.8,546.2,629.8,540.3,628.1z"/>
<path class="st4" d="M341.5,569.8c-1.3-0.4-2.5-0.9-3.7-1.5c5.9,0.2,11.1-3,12.5-8l37.2-130.8c0.8-3.1,0.2-6.4-1.6-9
	c-1.2-1.8-2.9-3.3-4.8-4.4c1.3,0,2.7,0.3,3.9,0.6c3.4,0.9,6.4,3,8.5,5.9c1.9,2.6,2.5,5.9,1.6,9L358,562.4
	C356.2,568.6,348.8,571.9,341.5,569.8z"/>
<path class="st4" d="M231.3,368.7c0.5-0.1,1.1-0.1,1.6,0c-2.2,1.1-3.4,3.5-2.9,5.8l11,63c0.2,1.4,1.1,2.7,2.2,3.5
	c0.7,0.5,1.6,0.9,2.5,1c-2.7,1.3-6,0.2-7.3-2.5c-0.2-0.5-0.4-1-0.5-1.5l-11-63C226.3,372.1,228.3,369.2,231.3,368.7
	C231.2,368.7,231.3,368.7,231.3,368.7z"/>
<path class="st4" d="M209.5,362.5c0.5-0.1,1.1-0.1,1.6,0c-2.2,1.1-3.4,3.5-2.9,5.8l11,63c0.2,1.4,1.1,2.7,2.2,3.5
	c0.7,0.5,1.6,0.9,2.5,1c-2.7,1.3-6,0.2-7.3-2.5c-0.2-0.5-0.4-1-0.5-1.5l-11-63C204.5,365.9,206.5,363,209.5,362.5
	C209.4,362.5,209.5,362.5,209.5,362.5z"/>
<path class="st4" d="M187.6,356.3c0.5-0.1,1.1-0.1,1.6,0c-2.2,1.1-3.4,3.5-2.9,5.8l11,63c0.2,1.4,1.1,2.7,2.2,3.5
	c0.7,0.5,1.6,0.9,2.5,1c-2.7,1.3-6,0.2-7.3-2.5c-0.2-0.5-0.4-1-0.5-1.5l-11-63C182.7,359.7,184.6,356.8,187.6,356.3L187.6,356.3z"/>
<path class="st4" d="M382.8,583.4l-250-71.1c-25.1-7.1-39.7-33.3-32.6-58.4l0,0l18.1-63.7c3.9-13.7,13.7-24.9,26.8-30.5
	c-4.3,5.1-7.5,11.1-9.3,17.6L117.7,441c-7.1,25.1,7.4,51.3,32.5,58.4l0,0l237.2,67.4L382.8,583.4z"/>
<path class="st0" d="M307.1,397.7l-0.6,2l1,0.3L307.1,397.7z M274.7,387.8l-1.9,0.5l-1.6,0.4l-1.8,0.5l2,0.6l1.8,0.5l2.2,0.6
	L274.7,387.8L274.7,387.8z M265,545.9l0.8-0.9l-0.5-0.1L265,545.9z M231.3,535.2l-1.7-0.5L227,534l1.7,1.8l1.1,1.2l1.5,1.5l0.4,0.4
	c0.1,0.1,0.2,0.2,0.3,0.3c0.1-0.2,0.3-0.4,0.4-0.5l2.2-2.5l-1.1-0.3L231.3,535.2z M584.6,468.5L507,446.4l-0.7-0.2l-1-0.3l-0.7-0.2
	l-0.2-0.1l-3-0.9l-2.8-0.8l-2.3-0.7l-5.3-1.5l-6.9-2l-2.6-0.8l-3.2-0.9l-0.2-0.1l-1.8-0.5l-4.9-1.4l-39-11.1l-4.2-1.2l-0.7-0.2
	l-2.8-0.8l-2.3-0.7l-5.3-1.5l-9.5-2.7l0,0l-5.2-1.5l-4.9-1.4l-53.9-15.3l0,0l-3.8-1.1l-8.6-2.5l-0.3-0.1l0,0l-17.2-4.9l-3.2-0.9
	l-1-0.3l-0.3-0.1l-1.9-0.5l-1.4-0.4l-3.7-1l-2.2-0.6l-0.6-0.2l-1.4-0.3l-1.4-0.4l-0.8-0.2l0,0l-4-1.1l-3.1-0.9l-1.3-0.4l-1.9-0.5
	l-1.4-0.4l-3.7-1l-1.8-0.5h-0.1l0,0l-0.9-0.3l-1.3-0.4l-1.5-0.4l-0.7-0.2l0,0l-4.2-1.2l-3.2-0.9l-1.1-0.3h-0.2l-1.9-0.5l-1.4-0.4
	l-3.7-1l-2.8-0.8l-1.2-0.3l-1.7-0.5l0,0l-0.5-0.1l-6.2-1.8l-3.2-0.9l-1.4-0.4l0,0l-4.3-1.2l-3.2-0.9l-3.2-0.9L224,366l-3.2-0.9l0,0
	l-1.4-0.4l-4.3-1.2l0,0l-3.2-0.9l-3.2-0.9l-6.7-1.9l-3.2-0.9l-1.4-0.4l0,0l-0.5-0.1l-3.7-1.1l-3.2-0.9l-3.2-0.9l-8.4-2.4
	c-6.6-1.9-13.5-2.4-20.3-1.6c-14.1,1.7-26.9,8.9-35.6,20.2c-0.7,0.9-1.4,1.9-2.1,2.9s-1.3,2-1.9,3.1c-0.1,0.1-0.1,0.2-0.2,0.3
	c-1.9,3.5-3.5,7.2-4.6,11.1l-9,31.6l-0.3,1.1l-8.8,31c-1.2,4-1.8,8.2-2,12.4v0.2c0,1.3,0,2.6,0,3.9s0.2,2.4,0.3,3.5
	c2.4,21.1,17.2,38.6,37.6,44.4l8.5,2.4l3.2,0.9l2.9,0.8l4.4,1.3l0,0l1.4,0.4l0,0l3.2,0.9l6.9,2l3.2,0.9l2.9,0.8l4.4,1.3l0,0l1.4,0.4
	l3.3,0.7l6.9,2l3.2,0.9l2.9,0.8l4.4,1.3l0,0l1.4,0.4l0,0l3.2,0.9l8.3,2.4l3.2,0.9l2.9,0.8l4.4,1.3l1,0.3l0.4,0.1l2.7,0.8l0.6,0.2
	l6.9,2l2.5,0.7h0.1l0,0l0.6,0.2l2.9,0.8l4.4,1.3l1.4,0.4l0,0l3.2,0.9l6.9,2l2,0.6l1.2,0.3l2.9,0.8l4.4,1.3l1,0.3l0.4,0.1l3.2,0.9
	l17.6,5h0.1l10,2.8l0,0l2.6,0.7l0,0l54,15.4l4.9,1.4l5.2,1.5l9.5,2.7l5.2,1.5l0,0l2.4,0.7l2.8,0.8l0.7,0.2l0,0h0.1l4.1,1.2l10.7,3.1
	l28.2,8l4.9,1.4l5.2,1.5l9.5,2.7l5.2,1.5l2.4,0.7l2.8,0.8l4.9,1.4l18.5,5.3l0.2,0.1l1,0.3l25.2,7.2l0.2,0.1l0.7,0.2l1.7,0.5l31,8.8
	c10.7,3,21.9-3.2,24.9-13.9l35.5-124.8l0.1-0.5C601.6,482.7,595.3,471.5,584.6,468.5L584.6,468.5z M589,490.7L553.4,616
	c-0.5,1.9-1.6,3.6-3.1,4.9c-2.6,2.3-6.3,3.2-9.7,2.2l-33.7-9.5l-1.7-0.5l-0.7-0.2l-0.2-0.1l-25-7.1l-1.2-0.3l-0.2-0.1l-15.1-4.3
	l-4.7-1.3l-2.9-0.8l-1.9-0.5l-5.7-1.6l-11.4-3.2l-4.7-1.3l-4.8-1.3l-27.7-7.9l-10.2-2.9l-3.8-1.1l-1-0.3l-2.9-0.8l-1.9-0.5l0,0
	l-5.7-1.6l-11.4-3.2l-4.7-1.3l-4.8-1.3l-1.3-0.4l-7.6-2.2l-30.8-8.8l0,0l-19-5.4l0,0l-20.6-5.8l-3.2-0.9l-1.3-0.4l-1.9-0.5l-1.4-0.4
	l-0.5-0.1l-3.4-1l-3.2-0.9l-2.2-0.6l-0.7-0.2l-0.3-0.1l-2.4-0.7l-1.6-0.5l-3.2-0.9l-1.2-0.4l-1.9-0.5l-1.4-0.4l-3.9-1.1l-3.2-0.9
	l0,0l-2.1-0.6l-1.1-0.3l-2.3-0.6l-1.7-0.5l-2.2-1l0,0l-0.6-0.2l-1.3-0.4l-1.9-0.5l-1.4-0.4l-3.9-1.1l-3.2-0.9l-1.9-0.5l-1.2-0.3
	l-2.1-0.6l-1.5-0.4l-1.9-0.5l-3.2-0.9l-1.3-0.3l-1.9-0.5l-1.4-0.4l-3.9-1.1l-3.2-0.9l0,0l-2.2-0.6l0,0l-0.9-0.3l-2.4-0.7l-1.6-0.5
	l-3.2-0.9l-1.3-0.3L178,520l-1.4-0.4l-3.9-1.1l0,0l-3.2-0.9l0,0l-2.1-0.6l0,0l-1.1-0.3l-2.3-0.6l-1.7-0.5l-3.2-0.9l-1.3-0.3
	l-1.9-0.5l-1.4-0.4l-3.9-1.1l-3.2-0.9l0,0l-1.9-0.6l-1.2-0.3l-2.1-0.6l0,0l-8.1-2.3c-22.5-6.4-35.5-29.8-29.2-52.3l7.3-25.5l0,0
	l3.4-12.1l7.4-26.1c2.6-9.2,8.3-17.3,16.1-22.9l0,0c10.5-7.5,23.8-9.8,36.2-6.3l8.2,2.3l2,0.6l1.3,0.4l1.9,0.5l3.1,0.9l3.9,1.1
	l1.4,0.4l1.9,0.5l1.2,0.4l3.2,0.9l1.8,0.5l2.2,0.6l1.2,0.3l2,0.6l3.2,0.9l3.9,1.1l1.4,0.4l1.9,0.5l1.2,0.4l3.2,0.9l1.7,0.5l2.3,0.6
	l1,0.3l2.1,0.6l3.1,0.9l3.9,1.1l1.4,0.4l1.9,0.5l0,0l1.2,0.4l3.2,0.9l2.9,0.8l1,0.3l2,0.6l1.3,0.4l1.8,0.5l3.2,0.9l3.9,1.1l1.4,0.4
	l1.9,0.5l1.3,0.4l1.1,0.3l0,0l2,0.6l1.8,0.5l2.2,0.6l1.2,0.3l2,0.6l3.2,0.9l3.9,1.1l1.4,0.4l1.9,0.5l1.3,0.4l3.1,0.9l1.7,0.5
	l2.1,0.6l0.2,0.1l1,0.3l0,0l2.1,0.6l3.2,0.9l3,0.9l1,0.3l1.4,0.4l1.9,0.5l1.3,0.4l3.2,0.9l19,5.4l19,5.4l0,0l33.8,9.6l7,2l0.6,0.2
	l0,0l4.1,1.2l4.7,1.4l11.4,3.2l5.7,1.6l0,0l1.9,0.5l0,0l2.8,0.8l1,0.3l3.8,1.1l0,0l4,1.1l33.9,9.6l4.7,1.4l4.7,1.4l0.5,0.1l0.2,0.1
	l5.5,1.6l5.2,1.5l5.7,1.6l1.9,0.5l2.8,0.8l4.8,1.4l0.3,0.1l0.2,0.1l0.7,0.2l1.7,0.5l75,21.3c5.4,1.5,8.6,7.1,7.1,12.5
	C589,490.6,589,490.7,589,490.7z M233.6,535.8l-2.3-0.6l-1.7-0.5L227,534l0,0l1.7,1.8l1.1,1.2l1.5,1.5l0.4,0.4
	c0.1,0.1,0.2,0.2,0.3,0.3c0.1-0.2,0.3-0.4,0.4-0.5l2.2-2.5L233.6,535.8z M265.3,544.8l-0.3,1l0.8-0.9L265.3,544.8z M274.8,387.8
	h-0.1l-1.9,0.5l-1.6,0.4l-1.8,0.5l2,0.6l1.8,0.5l2.2,0.6L274.8,387.8z M307.1,397.7l-0.6,2l1,0.3L307.1,397.7z"/>
<path class="st0" d="M378,582l44-154.6c0.7-2.6,3.5-4.1,6.1-3.4s4.1,3.5,3.4,6.1l-44,154.6c-0.8,2.6-3.5,4.1-6.1,3.4
	S377.2,584.6,378,582z"/>
<path class="st11" d="M356.1,576.3l44.2-155.6c2.1-7.3,9.7-11.6,17.1-9.5l0,0c7.3,2.1,11.6,9.7,9.5,17.1l-44.2,155.6
	c-2.1,7.3-9.7,11.6-17.1,9.5l0,0C358.2,591.3,354,583.7,356.1,576.3z"/>
<path class="st4" d="M362.7,592.5c-1.3-0.4-2.5-0.9-3.6-1.6c6.1-0.1,11.4-4.1,13.1-10l44.2-155.6c1-3.5,0.6-7.3-1.2-10.5
	c-1.1-2-2.7-3.7-4.6-4.9c7.6-0.1,13.9,6,14,13.6c0,1.3-0.2,2.6-0.5,3.9L379.8,583C377.7,590.3,370.1,594.6,362.7,592.5L362.7,592.5z
	"/>
<path class="st0" d="M351.3,575l44.2-155.6c2.3-10.1,12.4-16.4,22.5-14.1s16.4,12.4,14.1,22.5c-0.1,0.6-0.3,1.2-0.5,1.8l-44.2,155.6
	c-3.3,9.8-14,15-23.8,11.7C354.5,593.8,349.2,584.3,351.3,575L351.3,575z M422.1,427c1.3-4.7-1.4-9.6-6.1-11
	c-4.7-1.3-9.6,1.4-11,6.1l0,0l-44.2,155.6c-1.1,4.8,1.8,9.6,6.6,10.7c4.5,1.1,9.1-1.5,10.5-5.9L422.1,427z"/>
<path class="st11" d="M188.1,527.5l42.5-47.8c2-2.3,5.5-2.5,7.7-0.5l0,0c2.3,2,2.5,5.5,0.5,7.7l-42.5,47.8c-2,2.3-5.5,2.5-7.7,0.5
	l0,0C186.3,533.2,186.1,529.8,188.1,527.5z"/>
<path class="st4" d="M237.5,478.4c-0.4-0.4-0.8-0.6-1.3-0.9c1.3,2.1,1,4.7-0.6,6.5l-42.5,47.8c-1,1.1-2.3,1.7-3.8,1.8
	c-0.9,0.1-1.8-0.1-2.6-0.5c1.6,2.6,5,3.4,7.5,1.8c0.4-0.3,0.8-0.6,1.2-1l42.5-47.8C239.9,483.9,239.7,480.4,237.5,478.4L237.5,478.4
	z"/>
<path class="st0" d="M184.1,528.8c0.3-1.2,1-2.3,1.8-3.3l42.5-47.8c3-3.5,8.3-4,11.9-0.9c3.5,3,4,8.3,0.9,11.9
	c-0.1,0.1-0.1,0.2-0.2,0.3l-42.5,47.8c-3.1,3.5-8.4,3.8-11.9,0.7C184.2,535.3,183.2,531.9,184.1,528.8L184.1,528.8z M237.1,484
	c0.4-1.3-0.4-2.7-1.8-3.1c-0.9-0.3-1.9,0-2.5,0.7l-42.5,47.8c-1,1-0.9,2.6,0.1,3.5s2.6,0.9,3.5-0.1c0.1-0.1,0.1-0.1,0.1-0.2
	l42.5-47.8C236.8,484.7,237,484.4,237.1,484L237.1,484z"/>
<path class="st11" d="M166.1,521.3l42.5-47.8c2-2.3,5.5-2.5,7.7-0.5l0,0c2.3,2,2.5,5.5,0.5,7.7l-42.5,47.8c-2,2.3-5.5,2.5-7.7,0.5
	l0,0C164.3,527,164.1,523.5,166.1,521.3z"/>
<path class="st4" d="M215.5,472.2c-0.4-0.4-0.8-0.6-1.3-0.9c1.3,2.1,1,4.7-0.6,6.5l-42.5,47.8c-1,1.1-2.3,1.7-3.8,1.8
	c-0.9,0.1-1.8-0.1-2.6-0.5c1.6,2.6,5,3.4,7.5,1.8c0.4-0.3,0.8-0.6,1.2-1l42.6-47.8C218,477.7,217.8,474.2,215.5,472.2L215.5,472.2z"
	/>
<path class="st0" d="M162.1,522.6c0.3-1.2,1-2.3,1.8-3.3l42.5-47.8c3.1-3.5,8.4-3.8,11.9-0.7c3.5,3.1,3.8,8.4,0.7,11.9l-42.5,47.8
	c-3.1,3.5-8.4,3.8-11.9,0.7C162.2,529,161.2,525.7,162.1,522.6z M215.1,477.7c0.4-1.3-0.4-2.7-1.8-3.1c-0.9-0.3-1.9,0-2.5,0.7
	l-42.5,47.8c-1,1-0.9,2.6,0.1,3.5s2.6,0.9,3.5-0.1c0.1-0.1,0.1-0.1,0.1-0.2l42.5-47.8C214.9,478.4,215.1,478.1,215.1,477.7
	L215.1,477.7z"/>
<path class="st11" d="M144.2,515l42.5-47.8c2-2.3,5.5-2.5,7.7-0.5l0,0c2.3,2,2.5,5.5,0.5,7.7l-42.5,47.8c-2,2.3-5.5,2.5-7.7,0.5l0,0
	C142.4,520.7,142.2,517.3,144.2,515z"/>
<path class="st4" d="M193.6,466c-0.4-0.4-0.8-0.6-1.3-0.9c1.3,2.1,1,4.7-0.6,6.5l-42.5,47.8c-1,1.1-2.3,1.7-3.8,1.8
	c-0.9,0.1-1.8-0.1-2.6-0.5c1.6,2.6,5,3.4,7.5,1.8c0.4-0.3,0.8-0.6,1.2-1l42.5-47.9C196,471.4,195.8,468,193.6,466z"/>
<path class="st0" d="M140.2,516.3c0.3-1.2,1-2.3,1.8-3.3l42.5-47.8c3.1-3.5,8.4-3.8,11.9-0.7c3.5,3.1,3.8,8.4,0.7,11.9l-42.5,47.8
	c-3.1,3.5-8.4,3.8-11.9,0.7C140.3,522.8,139.3,519.4,140.2,516.3z M193.2,471.5c0.4-1.3-0.4-2.7-1.8-3.1c-0.9-0.3-1.9,0-2.5,0.7
	L146.4,517c-1,1-0.9,2.6,0.1,3.5s2.6,0.9,3.5-0.1c0.1-0.1,0.1-0.1,0.1-0.2l42.5-47.8C192.9,472.2,193.1,471.9,193.2,471.5
	L193.2,471.5z"/>
<path class="st11" d="M255.5,546.7l42.5-47.8c2-2.3,5.5-2.5,7.7-0.5l0,0c2.3,2,2.5,5.5,0.5,7.7l-42.5,47.8c-2,2.3-5.5,2.5-7.7,0.5
	l0,0C253.7,552.4,253.5,548.9,255.5,546.7z"/>
<path class="st4" d="M304.8,497.6c-0.4-0.4-0.8-0.6-1.3-0.9c1.3,2.1,1,4.7-0.6,6.5L260.4,551c-1,1.1-2.3,1.7-3.8,1.8
	c-0.9,0.1-1.8-0.1-2.6-0.5c1.6,2.6,5,3.4,7.5,1.8c0.4-0.3,0.8-0.6,1.2-1l42.5-47.8C307.3,503,307.1,499.6,304.8,497.6L304.8,497.6z"
	/>
<path class="st0" d="M251.4,548c0.3-1.2,1-2.3,1.8-3.3l42.5-47.8c2.8-3.7,8.1-4.4,11.8-1.6s4.4,8.1,1.6,11.8
	c-0.2,0.3-0.5,0.6-0.8,0.9l-42.5,47.8c-3.1,3.5-8.4,3.7-11.9,0.6C251.6,554.4,250.6,551.1,251.4,548z M304.5,503.2
	c0.4-1.3-0.4-2.7-1.8-3.1c-0.9-0.3-1.9,0-2.5,0.7l-42.5,47.8c-1,1-0.9,2.6,0.1,3.5s2.6,0.9,3.5-0.1c0.1-0.1,0.1-0.1,0.1-0.2
	l42.5-47.8C304.2,503.8,304.4,503.5,304.5,503.2L304.5,503.2z"/>
<path class="st11" d="M233.5,540.4l42.5-47.8c2-2.3,5.5-2.5,7.7-0.5l0,0c2.3,2,2.5,5.5,0.5,7.7l-42.5,47.8c-2,2.3-5.5,2.5-7.7,0.5
	l0,0C231.7,546.1,231.5,542.7,233.5,540.4z"/>
<path class="st4" d="M282.9,491.3c-0.4-0.4-0.8-0.6-1.3-0.9c1.3,2.1,1.1,4.7-0.5,6.5l-42.5,47.8c-1,1.1-2.3,1.7-3.8,1.8
	c-0.9,0.1-1.8-0.1-2.6-0.5c1.6,2.6,5,3.4,7.5,1.8c0.4-0.3,0.8-0.6,1.2-1l42.5-47.9C285.3,496.8,285.1,493.3,282.9,491.3z"/>
<path class="st0" d="M229.5,541.7c0.3-1.2,1-2.3,1.8-3.3l42.5-47.8c3.1-3.5,8.4-3.8,11.9-0.7c3.5,3.1,3.8,8.4,0.7,11.9l0,0
	l-42.5,47.8c-3.1,3.5-8.4,3.8-11.9,0.7C229.6,548.2,228.6,544.8,229.5,541.7L229.5,541.7z M282.5,496.9c0.4-1.3-0.4-2.7-1.8-3.1
	c-0.9-0.3-1.9,0-2.5,0.7l-42.5,47.8c-1,1-0.9,2.6,0.1,3.5s2.6,0.9,3.5-0.1c0.1-0.1,0.1-0.1,0.1-0.2l42.6-47.8
	C282.2,497.6,282.4,497.2,282.5,496.9L282.5,496.9z"/>
<path class="st11" d="M211.5,534.2l42.5-47.8c2-2.3,5.5-2.5,7.7-0.5l0,0c2.3,2,2.5,5.5,0.5,7.7l-42.5,47.8c-2,2.3-5.5,2.5-7.7,0.5
	l0,0C209.7,539.9,209.5,536.4,211.5,534.2z"/>
<path class="st4" d="M260.9,485.1c-0.4-0.4-0.8-0.6-1.3-0.9c1.3,2.1,1,4.7-0.6,6.5l-42.5,47.8c-1,1.1-2.3,1.7-3.8,1.8
	c-0.9,0.1-1.8-0.1-2.6-0.5c1.6,2.6,5,3.4,7.5,1.8c0.4-0.3,0.8-0.6,1.2-1l42.5-47.8C263.4,490.6,263.2,487.1,260.9,485.1L260.9,485.1
	z"/>
<path class="st0" d="M207.5,535.5c0.3-1.2,1-2.3,1.8-3.3l42.5-47.8c3.1-3.5,8.4-3.8,11.9-0.7c3.5,3.1,3.8,8.4,0.7,11.9l0,0
	l-42.5,47.8c-3.1,3.5-8.4,3.8-11.9,0.7C207.6,541.9,206.7,538.6,207.5,535.5L207.5,535.5z M260.5,490.6c0.4-1.3-0.4-2.7-1.8-3.1
	c-0.9-0.3-1.9,0-2.5,0.7L213.7,536c-1,1-0.9,2.6,0.1,3.5s2.6,0.9,3.5-0.1c0.1-0.1,0.1-0.1,0.1-0.2l42.5-47.8
	C260.3,491.3,260.5,491,260.5,490.6L260.5,490.6z"/>
<path class="st11" d="M236.3,367.4L236.3,367.4c3-0.5,5.8,1.5,6.3,4.4l11,63.1c0.5,3-1.5,5.8-4.4,6.3l0,0c-3,0.5-5.8-1.5-6.3-4.4
	l-11-63.1C231.3,370.8,233.3,367.9,236.3,367.4z"/>
<path class="st4" d="M248,441.5c-0.5,0.1-1.1,0.1-1.6,0c2.2-1.1,3.4-3.5,2.9-5.8l-11-63c-0.2-1.4-1.1-2.7-2.2-3.5
	c-0.7-0.5-1.6-0.9-2.5-1c2.7-1.3,6-0.2,7.3,2.5c0.2,0.5,0.4,1,0.5,1.5l11,63C253,438.1,251,440.9,248,441.5L248,441.5z"/>
<path class="st0" d="M229.1,370.5c1.3-4.5,5.9-7.1,10.4-5.8c3.1,0.9,5.4,3.5,6,6.6l11,63c0.8,4.6-2.3,8.9-6.9,9.7l0,0
	c-4.6,0.8-8.9-2.3-9.7-6.9l-11-63C228.7,373,228.7,371.7,229.1,370.5z M250.6,436.5c0.1-0.4,0.1-0.7,0.1-1.1l-11-63
	c-0.3-1.4-1.6-2.2-3-1.9c-1.3,0.3-2.1,1.5-1.9,2.8l11,63c0.3,1.4,1.5,2.2,2.9,2l0,0c0.7-0.1,1.2-0.5,1.6-1
	C250.4,437.1,250.5,436.8,250.6,436.5L250.6,436.5z"/>
<path class="st11" d="M214.3,361.2L214.3,361.2c3-0.5,5.8,1.5,6.3,4.4l11,63.1c0.5,3-1.5,5.8-4.4,6.3l0,0c-3,0.5-5.8-1.5-6.3-4.4
	l-11-63.1C209.4,364.5,211.3,361.7,214.3,361.2z"/>
<path class="st4" d="M226,435.2c-0.5,0.1-1.1,0.1-1.6,0c2.2-1.1,3.4-3.5,2.9-5.8l-11-63c-0.2-1.4-1.1-2.7-2.2-3.5
	c-0.7-0.5-1.6-0.9-2.5-1c2.7-1.3,6-0.2,7.3,2.5c0.2,0.5,0.4,1,0.5,1.5l11,63C231,431.8,229,434.7,226,435.2L226,435.2z"/>
<path class="st0" d="M207.1,364.3c1.3-4.5,5.9-7.1,10.4-5.8c3.1,0.9,5.4,3.5,6,6.6l11,63c0.8,4.6-2.3,8.9-6.9,9.7l0,0
	c-4.6,0.8-8.9-2.3-9.7-6.9l-11-63C206.7,366.8,206.8,365.5,207.1,364.3z M228.7,430.3c0.1-0.4,0.1-0.7,0.1-1.1l-11-63
	c-0.3-1.4-1.6-2.2-3-1.9c-1.3,0.3-2.1,1.5-1.9,2.8l11,63c0.3,1.4,1.5,2.2,2.9,2l0,0c0.7-0.1,1.2-0.5,1.6-1
	C228.4,430.8,228.6,430.6,228.7,430.3L228.7,430.3z"/>
<path class="st11" d="M192.4,354.9L192.4,354.9c3-0.5,5.8,1.5,6.3,4.4l11,63.1c0.5,3-1.5,5.8-4.4,6.3l0,0c-3,0.5-5.8-1.5-6.3-4.4
	l-11-63.1C187.4,358.3,189.4,355.5,192.4,354.9z"/>
<path class="st4" d="M204.1,429c-0.5,0.1-1.1,0.1-1.6,0c2.2-1.1,3.4-3.5,2.9-5.8l-11-63c-0.2-1.4-1.1-2.7-2.2-3.5
	c-0.7-0.5-1.6-0.9-2.5-1c2.7-1.3,6-0.2,7.3,2.5c0.2,0.5,0.4,1,0.5,1.5l11,63C209.1,425.6,207.1,428.5,204.1,429L204.1,429z"/>
<path class="st0" d="M185.2,358c1.3-4.5,6-7.1,10.4-5.8c3.1,0.9,5.4,3.5,6,6.6l11,63c0.8,4.6-2.3,8.9-6.9,9.7l0,0
	c-4.6,0.8-8.9-2.3-9.7-6.9l-11-63C184.8,360.5,184.8,359.2,185.2,358z M206.7,424c0.1-0.4,0.1-0.7,0.1-1.1l-11-63
	c-0.3-1.4-1.6-2.2-3-1.9c-1.3,0.3-2.1,1.5-1.9,2.8l11,63c0.3,1.4,1.5,2.2,2.9,2l0,0c0.7-0.1,1.2-0.5,1.6-1
	C206.5,424.5,206.6,424.3,206.7,424L206.7,424z"/>
<path class="st11" d="M303.5,383.4L303.5,383.4c3-0.5,5.8,1.5,6.3,4.4l11,63.1c0.5,3-1.5,5.8-4.4,6.3l0,0c-3,0.5-5.8-1.5-6.3-4.4
	l-11-63.1C298.5,386.8,300.5,384,303.5,383.4z"/>
<path class="st4" d="M315.2,457.5c-0.5,0.1-1.1,0.1-1.6,0c2.2-1.1,3.4-3.5,2.9-5.8l-11-63c-0.2-1.4-1.1-2.7-2.2-3.5
	c-0.7-0.5-1.6-0.9-2.5-1c2.7-1.3,6-0.2,7.3,2.5c0.2,0.5,0.4,1,0.5,1.5l11,63C320.2,454.1,318.2,456.9,315.2,457.5L315.2,457.5z"/>
<path class="st0" d="M296.3,386.5c1.3-4.5,5.9-7.1,10.4-5.8c3.1,0.9,5.4,3.5,6,6.6l11,63c0.8,4.6-2.3,8.9-6.9,9.7l0,0
	c-4.6,0.8-8.9-2.3-9.7-6.9l-11-63C295.9,389,295.9,387.8,296.3,386.5z M317.8,452.5c0.1-0.4,0.1-0.7,0.1-1.1l-11-63
	c-0.3-1.4-1.6-2.2-3-1.9c-1.3,0.3-2.1,1.5-1.9,2.8l11,63c0.3,1.4,1.5,2.2,2.9,2l0,0c0.7-0.1,1.2-0.5,1.6-1
	C317.6,453.1,317.7,452.8,317.8,452.5L317.8,452.5z"/>
<path class="st11" d="M281.5,377.2L281.5,377.2c3-0.5,5.8,1.5,6.3,4.4l11,63.1c0.5,3-1.5,5.8-4.4,6.3l0,0c-3,0.5-5.8-1.5-6.3-4.4
	l-11-63.1C276.6,380.6,278.6,377.7,281.5,377.2z"/>
<path class="st4" d="M293.2,451.2c-0.5,0.1-1.1,0.1-1.6,0c2.2-1.1,3.4-3.5,2.9-5.8l-11-63c-0.2-1.4-1.1-2.7-2.2-3.5
	c-0.7-0.5-1.6-0.9-2.5-1c2.7-1.3,6-0.2,7.3,2.5c0.2,0.5,0.4,1,0.5,1.5l11,63C298.2,447.8,296.2,450.7,293.2,451.2
	C293.3,451.2,293.2,451.2,293.2,451.2z"/>
<path class="st0" d="M274.3,380.3c1.3-4.5,5.9-7.1,10.4-5.8c3.1,0.9,5.4,3.5,6,6.6l11,63c0.8,4.6-2.3,8.9-6.9,9.7l0,0
	c-4.6,0.8-8.9-2.3-9.7-6.9l-11-63C273.9,382.8,274,381.5,274.3,380.3z M295.9,446.3c0.1-0.4,0.1-0.7,0.1-1.1l-11-63
	c-0.4-1.3-1.8-2.1-3.1-1.7c-1.1,0.3-1.9,1.4-1.8,2.6l11,63c0.3,1.4,1.5,2.2,2.9,2l0,0c0.7-0.1,1.2-0.5,1.6-1
	C295.7,446.8,295.8,446.6,295.9,446.3L295.9,446.3z"/>
<path class="st11" d="M259.6,371L259.6,371c3-0.5,5.8,1.5,6.3,4.4l11,63.1c0.5,3-1.5,5.8-4.4,6.3l0,0c-3,0.5-5.8-1.5-6.3-4.4
	l-11-63.1C254.6,374.3,256.6,371.5,259.6,371z"/>
<path class="st4" d="M271.3,445c-0.5,0.1-1.1,0.1-1.6,0c2.2-1.1,3.4-3.5,2.9-5.8l-11-63c-0.2-1.4-1.1-2.7-2.2-3.5
	c-0.7-0.5-1.6-0.9-2.5-1c2.7-1.3,6-0.2,7.3,2.5c0.2,0.5,0.4,1,0.5,1.5l11,63C276.3,441.6,274.3,444.5,271.3,445L271.3,445z"/>
<path class="st0" d="M252.4,374.1c1.3-4.5,6-7.1,10.4-5.8c3.1,0.9,5.4,3.5,6,6.6l11,63c0.8,4.6-2.3,8.9-6.9,9.7l0,0
	c-4.6,0.8-8.9-2.3-9.7-6.9l-11-63C252,376.6,252,375.3,252.4,374.1z M273.9,440.1c0.1-0.3,0.1-0.7,0.1-1.1l-11-63
	c-0.3-1.4-1.6-2.2-3-1.9c-1.3,0.3-2.1,1.5-1.9,2.8l11,63c0.3,1.4,1.5,2.2,2.9,2l0,0c0.7-0.1,1.2-0.5,1.6-1
	C273.7,440.6,273.8,440.4,273.9,440.1L273.9,440.1z"/>
<path class="st11" d="M430.1,597.4l44.2-155.6c2.1-7.3,9.7-11.6,17.1-9.5l0,0c7.3,2.1,11.6,9.7,9.5,17.1L456.7,605
	c-2.1,7.3-9.7,11.6-17.1,9.5l0,0C432.2,612.3,428,604.7,430.1,597.4z"/>
<path class="st4" d="M436.7,613.6c-1.3-0.4-2.5-0.9-3.6-1.6c6.1-0.1,11.4-4.1,13.1-10l44.2-155.6c1-3.5,0.6-7.3-1.2-10.5
	c-1.1-2-2.7-3.7-4.6-4.9c7.6-0.1,13.9,6,14,13.6c0,1.3-0.2,2.7-0.5,4l-44.2,155.6C451.7,611.4,444.1,615.6,436.7,613.6z"/>
<path class="st0" d="M478,511.6l-21.5,75.8l1.9,0.7l19.7-69.3l0.2-0.7v-7.2L478,511.6z M451,523.7l-15.5,54.5c1.4,1,2.9,1.9,4.4,2.7
	l16.6-58.6L451,523.7z M505.3,439.6c-0.2-0.6-0.5-1.3-0.7-1.9l-0.2-0.5c-4.6-9.3-15.8-13.1-25-8.5c-0.4,0.2-0.7,0.4-1.1,0.6
	l-0.2,0.1c-2.8,1.7-5.1,4-6.7,6.9c-0.7,1.3-1.3,2.7-1.7,4.1l-0.1,0.5l-1.4,4.8l-2.8,9.7l-16.1,56.5l-3.8,13.2L431.3,575l-4.5,15.8
	l-1.3,4.7l-0.1,0.5c-1.5,5.4-0.6,11.3,2.7,15.9c6,8.5,17.7,10.5,26.1,4.5c2.2-1.6,4.1-3.6,5.5-6c0.7-1.3,1.3-2.7,1.7-4.1l0.1-0.5
	l1.4-4.7l2.9-10.3l12.2-43.1l0.2-0.7l3.1-11l20-70.4l2.8-9.7l0.3-0.9l0.2-0.8l0.7-2.6l0.1-0.5l0.1-0.5
	C506.6,447,506.5,443.2,505.3,439.6L505.3,439.6z M434.8,598.7l0.1-0.5l1.3-4.7l3.6-12.5l16.6-58.6l0.6-2.3l17.6-62l2.8-9.7l0.5-1.6
	l0.2-0.7l0.7-2.4l0.1-0.5c1.3-4.6,6.1-7.3,10.7-6.2c0.1,0,0.2,0,0.3,0.1c4.7,1.3,7.5,6.2,6.1,10.9c0,0,0,0,0,0.1l-0.1,0.5l-1.4,4.8
	l-2.8,9.7l-9.4,33l-4.2,14.9l-0.2,0.7l-21.5,75.8l-3.1,10.9L452,603l-0.1,0.5c-0.4,1.5-1.2,2.9-2.4,3.9c-2.3,2.2-5.5,3-8.6,2.2
	l-0.3-0.1C436.1,608.1,433.5,603.2,434.8,598.7L434.8,598.7z"/>
<path class="st0" d="M571.8,491.7l-3.4,12c-0.3,0.9-1.2,1.4-2.1,1.1l-1.9-0.5c-0.9-0.3-1.4-1.2-1.1-2.1l3.4-12
	c0.3-0.9,1.2-1.4,2.1-1.1l1.9,0.5C571.5,489.9,572.1,490.8,571.8,491.7z"/>
<path class="st0" d="M565.9,512.4l-3.4,12c-0.3,0.9-1.2,1.4-2.1,1.1l-1.9-0.5c-0.9-0.3-1.4-1.2-1.1-2.1l3.4-12
	c0.3-0.9,1.2-1.4,2.1-1.1l1.9,0.5C565.7,510.6,566.2,511.5,565.9,512.4z"/>
<path class="st0" d="M560,533l-3.4,12c-0.3,0.9-1.2,1.4-2.1,1.1l-1.9-0.5c-0.9-0.3-1.4-1.2-1.1-2.1l3.4-12c0.3-0.9,1.2-1.4,2.1-1.1
	l1.9,0.5C559.8,531.2,560.3,532.1,560,533z"/>
<path class="st0" d="M557.1,554.6l-3.4,12c-0.2,0.9-1.2,1.4-2,1.1l-1.9-0.5c-0.9-0.2-1.4-1.2-1.1-2l3.4-12c0.2-0.9,1.2-1.4,2-1.1
	l1.9,0.5C556.8,552.8,557.3,553.7,557.1,554.6z"/>
<path class="st0" d="M548.3,574.4l-3.4,12c-0.3,0.9-1.2,1.4-2.1,1.1l-1.9-0.5c-0.9-0.3-1.4-1.2-1.1-2.1l3.4-12
	c0.3-0.9,1.2-1.4,2.1-1.1l1.9,0.5C548,572.6,548.5,573.5,548.3,574.4z"/>
<path class="st0" d="M542.4,595.1l-3.4,12c-0.3,0.9-1.2,1.4-2.1,1.1l-1.9-0.5c-0.9-0.3-1.4-1.2-1.1-2.1l3.4-12
	c0.3-0.9,1.2-1.4,2.1-1.1l1.9,0.5C542.2,593.3,542.7,594.2,542.4,595.1z"/>
<path class="st0" d="M563.8,489.4l-3.4,12c-0.3,0.9-1.2,1.4-2.1,1.1l-1.9-0.5c-0.9-0.3-1.4-1.2-1.1-2.1l3.4-12
	c0.3-0.9,1.2-1.4,2.1-1.1l1.9,0.5C563.5,487.6,564,488.5,563.8,489.4z"/>
<path class="st0" d="M557.9,510.1l-3.4,12c-0.3,0.9-1.2,1.4-2.1,1.1l-1.9-0.5c-0.9-0.3-1.4-1.2-1.1-2.1l3.4-12
	c0.3-0.9,1.2-1.4,2.1-1.1l1.9,0.5C557.6,508.3,558.2,509.2,557.9,510.1z"/>
<path class="st0" d="M552,530.8l-3.4,12c-0.3,0.9-1.2,1.4-2.1,1.1l-1.9-0.5c-0.9-0.3-1.4-1.2-1.1-2.1l3.4-12
	c0.3-0.9,1.2-1.4,2.1-1.1l1.9,0.5C551.8,529,552.3,529.9,552,530.8z"/>
<path class="st0" d="M546.2,551.4l-3.4,12c-0.3,0.9-1.2,1.4-2.1,1.1l-1.9-0.5c-0.9-0.3-1.4-1.2-1.1-2.1l3.4-12
	c0.3-0.9,1.2-1.4,2.1-1.1l1.9,0.5C545.9,549.6,546.4,550.5,546.2,551.4z"/>
<path class="st0" d="M543.2,573.1l-3.4,12c-0.2,0.9-1.2,1.4-2,1.1l-1.9-0.5c-0.9-0.2-1.4-1.2-1.1-2l3.4-12c0.2-0.9,1.2-1.4,2-1.1
	l1.9,0.5C542.9,571.3,543.4,572.2,543.2,573.1z"/>
<path class="st0" d="M534.4,592.8l-3.4,12c-0.3,0.9-1.2,1.4-2.1,1.1l-1.9-0.5c-0.9-0.3-1.4-1.2-1.1-2.1l3.4-12
	c0.3-0.9,1.2-1.4,2.1-1.1l1.9,0.5C534.1,591,534.6,591.9,534.4,592.8z"/>
<path class="st0" d="M555.8,487.1l-3.4,12c-0.3,0.9-1.2,1.4-2.1,1.1l-1.9-0.5c-0.9-0.3-1.4-1.2-1.1-2.1l3.4-12
	c0.3-0.9,1.2-1.4,2.1-1.1l1.9,0.5C555.5,485.3,556,486.2,555.8,487.1z"/>
<path class="st0" d="M549.9,507.8l-3.4,12c-0.3,0.9-1.2,1.4-2.1,1.1l-1.9-0.5c-0.9-0.3-1.4-1.2-1.1-2.1l3.4-12
	c0.3-0.9,1.2-1.4,2.1-1.1l1.9,0.5C549.6,506,550.1,506.9,549.9,507.8z"/>
<path class="st0" d="M544,528.5l-3.4,12c-0.3,0.9-1.2,1.4-2.1,1.1l-1.9-0.5c-0.9-0.3-1.4-1.2-1.1-2.1l3.4-12
	c0.3-0.9,1.2-1.4,2.1-1.1l1.9,0.5C543.8,526.7,544.3,527.6,544,528.5z"/>
<path class="st0" d="M541,550.1l-3.4,12c-0.2,0.9-1.2,1.4-2,1.1l-1.9-0.5c-0.9-0.2-1.4-1.2-1.1-2l3.4-12c0.2-0.9,1.2-1.4,2-1.1
	l1.9,0.5C540.7,548.3,541.2,549.2,541,550.1z"/>
<path class="st0" d="M532.3,569.8l-3.4,12c-0.3,0.9-1.2,1.4-2.1,1.1l-1.9-0.5c-0.9-0.3-1.4-1.2-1.1-2.1l3.4-12
	c0.3-0.9,1.2-1.4,2.1-1.1l1.9,0.5C532,568,532.5,568.9,532.3,569.8z"/>
<path class="st0" d="M526.4,590.5l-3.4,12c-0.3,0.9-1.2,1.4-2.1,1.1l-1.9-0.5c-0.9-0.3-1.4-1.2-1.1-2.1l3.4-12
	c0.3-0.9,1.2-1.4,2.1-1.1l1.9,0.5C526.1,588.7,526.6,589.6,526.4,590.5z"/>
<path class="st0" d="M547.7,484.8l-3.4,12c-0.3,0.9-1.2,1.4-2.1,1.1l-1.9-0.5c-0.9-0.3-1.4-1.2-1.1-2.1l3.4-12
	c0.3-0.9,1.2-1.4,2.1-1.1l1.9,0.5C547.5,483,548,484,547.7,484.8z"/>
<path class="st0" d="M541.9,505.5l-3.4,12c-0.3,0.9-1.2,1.4-2.1,1.1l-1.9-0.5c-0.9-0.3-1.4-1.2-1.1-2.1l3.4-12
	c0.3-0.9,1.2-1.4,2.1-1.1l1.9,0.5C541.6,503.7,542.1,504.6,541.9,505.5z"/>
<path class="st0" d="M536,526.2l-3.4,12c-0.3,0.9-1.2,1.4-2.1,1.1l-1.9-0.5c-0.9-0.3-1.4-1.2-1.1-2.1l3.4-12
	c0.3-0.9,1.2-1.4,2.1-1.1l1.9,0.5C535.7,524.4,536.2,525.3,536,526.2z"/>
<path class="st0" d="M530.1,546.9l-3.4,12c-0.3,0.9-1.2,1.4-2.1,1.1l-1.9-0.5c-0.9-0.3-1.4-1.2-1.1-2.1l3.4-12
	c0.3-0.9,1.2-1.4,2.1-1.1l1.9,0.5C529.9,545.1,530.4,546,530.1,546.9z"/>
<path class="st0" d="M524.2,567.5l-3.4,12c-0.3,0.9-1.2,1.4-2.1,1.1l-1.9-0.5c-0.9-0.3-1.4-1.2-1.1-2.1l3.4-12
	c0.3-0.9,1.2-1.4,2.1-1.1l1.9,0.5C524,565.8,524.5,566.7,524.2,567.5z"/>
<path class="st0" d="M518.4,588.2l-3.4,12c-0.3,0.9-1.2,1.4-2.1,1.1l-1.9-0.5c-0.9-0.3-1.4-1.2-1.1-2.1l3.4-12
	c0.3-0.9,1.2-1.4,2.1-1.1l1.9,0.5C518.1,586.4,518.6,587.3,518.4,588.2z"/>
<path class="st0" d="M539.7,482.6l-3.4,12c-0.3,0.9-1.2,1.4-2.1,1.1l-1.9-0.5c-0.9-0.3-1.4-1.2-1.1-2.1l3.4-12
	c0.3-0.9,1.2-1.4,2.1-1.1l1.9,0.5C539.5,480.8,540,481.7,539.7,482.6z"/>
<path class="st0" d="M533.8,503.2l-3.4,12c-0.3,0.9-1.2,1.4-2.1,1.1l-1.9-0.5c-0.9-0.3-1.4-1.2-1.1-2.1l3.4-12
	c0.3-0.9,1.2-1.4,2.1-1.1l1.9,0.5C533.6,501.4,534.1,502.4,533.8,503.2z"/>
<path class="st0" d="M528,523.9l-3.4,12c-0.3,0.9-1.2,1.4-2.1,1.1l-1.9-0.5c-0.9-0.3-1.4-1.2-1.1-2.1l3.4-12
	c0.3-0.9,1.2-1.4,2.1-1.1l1.9,0.5C527.7,522.1,528.2,523,528,523.9z"/>
<path class="st0" d="M522.1,544.6l-3.4,12c-0.3,0.9-1.2,1.4-2.1,1.1l-1.9-0.5c-0.9-0.3-1.4-1.2-1.1-2.1l3.4-12
	c0.3-0.9,1.2-1.4,2.1-1.1l1.9,0.5C521.8,542.8,522.3,543.7,522.1,544.6z"/>
<path class="st0" d="M516.2,565.3l-3.4,12c-0.3,0.9-1.2,1.4-2.1,1.1l-1.9-0.5c-0.9-0.3-1.4-1.2-1.1-2.1l3.4-12
	c0.3-0.9,1.2-1.4,2.1-1.1l1.9,0.5C516,563.5,516.5,564.4,516.2,565.3z"/>
<path class="st0" d="M510.3,585.9l-3.4,12c-0.3,0.9-1.2,1.4-2.1,1.1l-1.9-0.5c-0.9-0.3-1.4-1.2-1.1-2.1l3.4-12
	c0.3-0.9,1.2-1.4,2.1-1.1l1.9,0.5C510.1,584.1,510.6,585.1,510.3,585.9z"/>
<path class="st0" d="M531.7,480.3l-3.4,12c-0.3,0.9-1.2,1.4-2.1,1.1l-1.9-0.5c-0.9-0.3-1.4-1.2-1.1-2.1l3.4-12
	c0.3-0.9,1.2-1.4,2.1-1.1l1.9,0.5C531.4,478.5,531.9,479.4,531.7,480.3z"/>
<path class="st0" d="M525.8,500.9l-3.4,12c-0.3,0.9-1.2,1.4-2.1,1.1l-1.9-0.5c-0.9-0.3-1.4-1.2-1.1-2.1l3.4-12
	c0.3-0.9,1.2-1.4,2.1-1.1l1.9,0.5C525.6,499.1,526.1,500.1,525.8,500.9z"/>
<path class="st0" d="M522.7,522.5l-3.4,12c-0.2,0.9-1.2,1.4-2,1.1l-1.9-0.5c-0.9-0.2-1.4-1.2-1.1-2l3.4-12c0.2-0.9,1.2-1.4,2-1.1
	l1.9,0.5C522.4,520.7,522.9,521.6,522.7,522.5z"/>
<path class="st0" d="M514.1,542.3l-3.4,12c-0.3,0.9-1.2,1.4-2.1,1.1l-1.9-0.5c-0.9-0.3-1.4-1.2-1.1-2.1l3.4-12
	c0.3-0.9,1.2-1.4,2.1-1.1l1.9,0.5C513.8,540.5,514.3,541.4,514.1,542.3z"/>
<path class="st0" d="M508.2,563l-3.4,12c-0.3,0.9-1.2,1.4-2.1,1.1l-1.9-0.5c-0.9-0.3-1.4-1.2-1.1-2.1l3.4-12
	c0.3-0.9,1.2-1.4,2.1-1.1l1.9,0.5C507.9,561.2,508.5,562.1,508.2,563z"/>
<path class="st0" d="M502.3,583.7l-3.4,12c-0.3,0.9-1.2,1.4-2.1,1.1l-1.9-0.5c-0.9-0.3-1.4-1.2-1.1-2.1l3.4-12
	c0.3-0.9,1.2-1.4,2.1-1.1l1.9,0.5C502.1,581.9,502.6,582.8,502.3,583.7z"/>
<path class="st0" d="M523.7,478l-3.4,12c-0.3,0.9-1.2,1.4-2.1,1.1l-1.9-0.5c-0.9-0.3-1.4-1.2-1.1-2.1l3.4-12
	c0.3-0.9,1.2-1.4,2.1-1.1l1.9,0.5C523.4,476.2,523.9,477.1,523.7,478z"/>
<path class="st0" d="M517.8,498.7l-3.4,12c-0.3,0.9-1.2,1.4-2.1,1.1l-1.9-0.5c-0.9-0.3-1.4-1.2-1.1-2.1l3.4-12
	c0.3-0.9,1.2-1.4,2.1-1.1l1.9,0.5C517.5,496.9,518.1,497.8,517.8,498.7z"/>
<path class="st0" d="M511.9,519.3l-3.4,12c-0.3,0.9-1.2,1.4-2.1,1.1l-1.9-0.5c-0.9-0.3-1.4-1.2-1.1-2.1l3.4-12
	c0.3-0.9,1.2-1.4,2.1-1.1l1.9,0.5C511.7,517.5,512.2,518.5,511.9,519.3z"/>
<path class="st0" d="M508.8,541l-3.4,12c-0.2,0.9-1.2,1.4-2,1.1l-1.9-0.5c-0.9-0.2-1.4-1.2-1.1-2l3.4-12c0.2-0.9,1.2-1.4,2-1.1
	l1.9,0.5C508.5,539.2,509,540.1,508.8,541z"/>
<path class="st0" d="M500.2,560.7l-3.4,12c-0.3,0.9-1.2,1.4-2.1,1.1l-1.9-0.5c-0.9-0.3-1.4-1.2-1.1-2.1l3.4-12
	c0.3-0.9,1.2-1.4,2.1-1.1l1.9,0.5C499.9,558.9,500.4,559.8,500.2,560.7z"/>
<path class="st0" d="M494.3,581.4l-3.4,12c-0.3,0.9-1.2,1.4-2.1,1.1l-1.9-0.5c-0.9-0.3-1.4-1.2-1.1-2.1l3.4-12
	c0.3-0.9,1.2-1.4,2.1-1.1l1.9,0.5C494,579.6,494.6,580.5,494.3,581.4z"/>
<path class="st0" d="M515.7,475.7l-3.4,12c-0.3,0.9-1.2,1.4-2.1,1.1l-1.9-0.5c-0.9-0.3-1.4-1.2-1.1-2.1l3.4-12
	c0.3-0.9,1.2-1.4,2.1-1.1l1.9,0.5C515.4,473.9,515.9,474.8,515.7,475.7z"/>
<path class="st0" d="M509.8,496.4l-3.4,12c-0.3,0.9-1.2,1.4-2.1,1.1l-1.9-0.5c-0.9-0.3-1.4-1.2-1.1-2.1l3.4-12
	c0.3-0.9,1.2-1.4,2.1-1.1l1.9,0.5C509.5,494.6,510,495.5,509.8,496.4z"/>
<path class="st0" d="M503.9,517.1l-3.4,12c-0.3,0.9-1.2,1.4-2.1,1.1l-1.9-0.5c-0.9-0.3-1.4-1.2-1.1-2.1l3.4-12
	c0.3-0.9,1.2-1.4,2.1-1.1l1.9,0.5C503.6,515.3,504.2,516.2,503.9,517.1z"/>
<path class="st0" d="M498,537.8l-3.4,12c-0.3,0.9-1.2,1.4-2.1,1.1l-1.9-0.5c-0.9-0.3-1.4-1.2-1.1-2.1l3.4-12
	c0.3-0.9,1.2-1.4,2.1-1.1l1.9,0.5C497.8,536,498.3,536.9,498,537.8z"/>
<path class="st0" d="M492.2,558.4l-3.4,12c-0.3,0.9-1.2,1.4-2.1,1.1l-1.9-0.5c-0.9-0.3-1.4-1.2-1.1-2.1l3.4-12
	c0.3-0.9,1.2-1.4,2.1-1.1l1.9,0.5C491.9,556.6,492.4,557.6,492.2,558.4z"/>
<path class="st0" d="M486.3,579.1l-3.4,12c-0.3,0.9-1.2,1.4-2.1,1.1l-1.9-0.5c-0.9-0.3-1.4-1.2-1.1-2.1l3.4-12
	c0.3-0.9,1.2-1.4,2.1-1.1l1.9,0.5C486,577.3,486.5,578.2,486.3,579.1z"/>
<path class="st0" d="M507.6,473.4l-3.4,12c-0.3,0.9-1.2,1.4-2.1,1.1l-1.9-0.5c-0.9-0.3-1.4-1.2-1.1-2.1l3.4-12
	c0.3-0.9,1.2-1.4,2.1-1.1l1.9,0.5C507.4,471.6,507.9,472.6,507.6,473.4z"/>
<path class="st0" d="M501.8,494.1l-3.4,12c-0.3,0.9-1.2,1.4-2.1,1.1l-1.9-0.5c-0.9-0.3-1.4-1.2-1.1-2.1l3.4-12
	c0.3-0.9,1.2-1.4,2.1-1.1l1.9,0.5C501.5,492.3,502,493.2,501.8,494.1z"/>
<path class="st0" d="M495.9,514.8l-3.4,12c-0.3,0.9-1.2,1.4-2.1,1.1l-1.9-0.5c-0.9-0.3-1.4-1.2-1.1-2.1l3.4-12
	c0.3-0.9,1.2-1.4,2.1-1.1l1.9,0.5C495.6,513,496.1,513.9,495.9,514.8z"/>
<path class="st0" d="M492.7,536.4l-3.4,12c-0.2,0.9-1.2,1.4-2,1.1l-1.9-0.5c-0.9-0.2-1.4-1.2-1.1-2l3.4-12c0.2-0.9,1.2-1.4,2-1.1
	l1.9,0.5C492.4,534.6,492.9,535.5,492.7,536.4z"/>
<path class="st0" d="M484.1,556.2l-3.4,12c-0.3,0.9-1.2,1.4-2.1,1.1l-1.9-0.5c-0.9-0.3-1.4-1.2-1.1-2.1l3.4-12
	c0.3-0.9,1.2-1.4,2.1-1.1l1.9,0.5C483.9,554.4,484.4,555.3,484.1,556.2z"/>
<path class="st0" d="M478.3,576.8l-3.4,12c-0.3,0.9-1.2,1.4-2.1,1.1l-1.9-0.5c-0.9-0.3-1.4-1.2-1.1-2.1l3.4-12
	c0.3-0.9,1.2-1.4,2.1-1.1l1.9,0.5C478,575,478.5,575.9,478.3,576.8z"/>
<path class="st0" d="M459.9,459.9l-3.4,12c-0.3,0.9-1.2,1.4-2.1,1.1l-1.9-0.5c-0.9-0.3-1.4-1.2-1.1-2.1l3.4-12
	c0.3-0.9,1.2-1.4,2.1-1.1l1.9,0.5C459.6,458.1,460.1,459,459.9,459.9z"/>
<path class="st0" d="M454,480.5l-3.4,12c-0.3,0.9-1.2,1.4-2.1,1.1l-1.9-0.5c-0.9-0.3-1.4-1.2-1.1-2.1l3.4-12
	c0.3-0.9,1.2-1.4,2.1-1.1l1.9,0.5C453.7,478.7,454.2,479.6,454,480.5z"/>
<path class="st0" d="M448.1,501.2l-3.4,12c-0.3,0.9-1.2,1.4-2.1,1.1l-1.9-0.5c-0.9-0.3-1.4-1.2-1.1-2.1l3.4-12
	c0.3-0.9,1.2-1.4,2.1-1.1l1.9,0.5C447.9,499.4,448.4,500.3,448.1,501.2z"/>
<path class="st0" d="M442.2,521.9l-3.4,12c-0.3,0.9-1.2,1.4-2.1,1.1l-1.9-0.5c-0.9-0.3-1.4-1.2-1.1-2.1l3.4-12
	c0.3-0.9,1.2-1.4,2.1-1.1l1.9,0.5C442,520.1,442.5,521,442.2,521.9z"/>
<path class="st0" d="M436.4,542.6l-3.4,12c-0.3,0.9-1.2,1.4-2.1,1.1l-1.9-0.5c-0.9-0.3-1.4-1.2-1.1-2.1l3.4-12
	c0.3-0.9,1.2-1.4,2.1-1.1l1.9,0.5C436.1,540.8,436.6,541.7,436.4,542.6z"/>
<path class="st0" d="M430.5,563.2l-3.4,12c-0.3,0.9-1.2,1.4-2.1,1.1l-1.9-0.5c-0.9-0.3-1.4-1.2-1.1-2.1l3.4-12
	c0.3-0.9,1.2-1.4,2.1-1.1l1.9,0.5C430.2,561.4,430.7,562.4,430.5,563.2z"/>
<path class="st0" d="M454.2,458.3l-3.4,12c-0.2,0.9-1.2,1.4-2,1.1l-1.9-0.5c-0.9-0.2-1.4-1.2-1.1-2l3.4-12c0.2-0.9,1.2-1.4,2-1.1
	l1.9,0.5C454,456.5,454.5,457.5,454.2,458.3z"/>
<path class="st0" d="M446,478.3l-3.4,12c-0.3,0.9-1.2,1.4-2.1,1.1l-1.9-0.5c-0.9-0.3-1.4-1.2-1.1-2.1l3.4-12
	c0.3-0.9,1.2-1.4,2.1-1.1l1.9,0.5C445.7,476.5,446.2,477.4,446,478.3z"/>
<path class="st0" d="M440.1,498.9l-3.4,12c-0.3,0.9-1.2,1.4-2.1,1.1l-1.9-0.5c-0.9-0.3-1.4-1.2-1.1-2.1l3.4-12
	c0.3-0.9,1.2-1.4,2.1-1.1l1.9,0.5C439.8,497.1,440.3,498.1,440.1,498.9z"/>
<path class="st0" d="M434.2,519.6l-3.4,12c-0.3,0.9-1.2,1.4-2.1,1.1l-1.9-0.5c-0.9-0.3-1.4-1.2-1.1-2.1l3.4-12
	c0.3-0.9,1.2-1.4,2.1-1.1l1.9,0.5C434,517.8,434.5,518.7,434.2,519.6z"/>
<path class="st0" d="M428.3,540.3l-3.4,12c-0.3,0.9-1.2,1.4-2.1,1.1l-1.9-0.5c-0.9-0.3-1.4-1.2-1.1-2.1l3.4-12
	c0.3-0.9,1.2-1.4,2.1-1.1l1.9,0.5C428.1,538.5,428.6,539.4,428.3,540.3z"/>
<path class="st0" d="M422.5,561l-3.4,12c-0.3,0.9-1.2,1.4-2.1,1.1l-1.9-0.5c-0.9-0.3-1.4-1.2-1.1-2.1l3.4-12
	c0.3-0.9,1.2-1.4,2.1-1.1l1.9,0.5C422.2,559.2,422.7,560.1,422.5,561z"/>
<path class="st0" d="M443.8,455.3l-3.4,12c-0.3,0.9-1.2,1.4-2.1,1.1l-1.9-0.5c-0.9-0.3-1.4-1.2-1.1-2.1l3.4-12
	c0.3-0.9,1.2-1.4,2.1-1.1l1.9,0.5C443.6,453.5,444.1,454.4,443.8,455.3z"/>
<path class="st0" d="M440.3,476.8l-3.4,12c-0.2,0.9-1.2,1.4-2,1.1l-1.9-0.5c-0.9-0.2-1.4-1.2-1.1-2l3.4-12c0.2-0.9,1.2-1.4,2-1.1
	l1.9,0.5C440.1,475,440.6,475.9,440.3,476.8z"/>
<path class="st0" d="M434.5,497.6l-3.4,12c-0.2,0.9-1.2,1.4-2,1.1l-1.9-0.5c-0.9-0.2-1.4-1.2-1.1-2l3.4-12c0.2-0.9,1.2-1.4,2-1.1
	l1.9,0.5C434.2,495.8,434.7,496.7,434.5,497.6z"/>
<path class="st0" d="M426.2,517.3l-3.4,12c-0.3,0.9-1.2,1.4-2.1,1.1l-1.9-0.5c-0.9-0.3-1.4-1.2-1.1-2.1l3.4-12
	c0.3-0.9,1.2-1.4,2.1-1.1l1.9,0.5C425.9,515.5,426.4,516.5,426.2,517.3z"/>
<path class="st0" d="M420.3,538l-3.4,12c-0.3,0.9-1.2,1.4-2.1,1.1l-1.9-0.5c-0.9-0.3-1.4-1.2-1.1-2.1l3.4-12
	c0.3-0.9,1.2-1.4,2.1-1.1l1.9,0.5C420.1,536.2,420.6,537.1,420.3,538z"/>
<path class="st0" d="M414.4,558.7l-3.4,12c-0.3,0.9-1.2,1.4-2.1,1.1l-1.9-0.5c-0.9-0.3-1.4-1.2-1.1-2.1l3.4-12
	c0.3-0.9,1.2-1.4,2.1-1.1l1.9,0.5C414.2,556.9,414.7,557.8,414.4,558.7z"/>
<path class="st0" d="M435.8,453l-3.4,12c-0.3,0.9-1.2,1.4-2.1,1.1l-1.9-0.5c-0.9-0.3-1.4-1.2-1.1-2.1l3.4-12
	c0.3-0.9,1.2-1.4,2.1-1.1l1.9,0.5C435.6,451.2,436.1,452.1,435.8,453z"/>
<path class="st0" d="M429.9,473.7l-3.4,12c-0.3,0.9-1.2,1.4-2.1,1.1l-1.9-0.5c-0.9-0.3-1.4-1.2-1.1-2.1l3.4-12
	c0.3-0.9,1.2-1.4,2.1-1.1l1.9,0.5C429.7,471.9,430.2,472.8,429.9,473.7z"/>
<path class="st0" d="M424.1,494.4l-3.4,12c-0.3,0.9-1.2,1.4-2.1,1.1l-1.9-0.5c-0.9-0.3-1.4-1.2-1.1-2.1l3.4-12
	c0.3-0.9,1.2-1.4,2.1-1.1l1.9,0.5C423.8,492.6,424.3,493.5,424.1,494.4z"/>
<path class="st0" d="M418.2,515.1l-3.4,12c-0.3,0.9-1.2,1.4-2.1,1.1l-1.9-0.5c-0.9-0.3-1.4-1.2-1.1-2.1l3.4-12
	c0.3-0.9,1.2-1.4,2.1-1.1l1.9,0.5C417.9,513.3,418.4,514.2,418.2,515.1z"/>
<path class="st0" d="M412.3,535.7l-3.4,12c-0.3,0.9-1.2,1.4-2.1,1.1l-1.9-0.5c-0.9-0.3-1.4-1.2-1.1-2.1l3.4-12
	c0.3-0.9,1.2-1.4,2.1-1.1l1.9,0.5C412,533.9,412.6,534.9,412.3,535.7z"/>
<path class="st0" d="M406.4,556.4l-3.4,12c-0.3,0.9-1.2,1.4-2.1,1.1L399,569c-0.9-0.3-1.4-1.2-1.1-2.1l3.4-12
	c0.3-0.9,1.2-1.4,2.1-1.1l1.9,0.5C406.2,554.6,406.7,555.5,406.4,556.4z"/>
<circle class="st21" cx="336.5" cy="486.4" r="15.8"/>
<path class="st0" d="M316.5,481c3.1-11,14.6-17.4,25.6-14.3s17.4,14.6,14.3,25.6s-14.6,17.4-25.6,14.3l0,0
	C319.8,503.4,313.4,492,316.5,481z M346.9,489.6c1.6-5.8-1.7-11.8-7.5-13.4s-11.8,1.7-13.4,7.5s1.7,11.8,7.5,13.4l0,0
	C339.2,498.7,345.2,495.4,346.9,489.6L346.9,489.6z"/>
<polygon class="st0" points="32.1,399.2 23.1,399.2 23.1,91.1 3.4,71.4 9.8,65 32.1,87.3 "/>
<path class="st0" d="M1943.5,814.5h-354c-2.8,0-5-2.2-5-5s2.2-5,5-5h354c2.8,0,5,2.2,5,5S1946.3,814.5,1943.5,814.5z"/>
<path class="st22" d="M1944,820.2h-354c-2.8,0-5-2.2-5-5s2.2-5,5-5h354c2.8,0,5,2.2,5,5S1946.8,820.2,1944,820.2z"/>
<path class="st23" d="M1382.6,150.9h29.8c4.2,0,7.6,3.4,7.6,7.6v23.3c0,4.2-3.4,7.6-7.6,7.6h-29.8c-4.2,0-7.6-3.4-7.6-7.6v-23.3
	C1375,154.2,1378.4,150.9,1382.6,150.9z"/>
<path class="st23" d="M1382.6,207.3h29.8c4.2,0,7.6,3.4,7.6,7.6v23.3c0,4.2-3.4,7.6-7.6,7.6h-29.8c-4.2,0-7.6-3.4-7.6-7.6v-23.3
	C1375,210.7,1378.4,207.3,1382.6,207.3z"/>
<path class="st23" d="M1382.6,263.8h29.8c4.2,0,7.6,3.4,7.6,7.6v23.3c0,4.2-3.4,7.6-7.6,7.6h-29.8c-4.2,0-7.6-3.4-7.6-7.6v-23.3
	C1375,267.2,1378.4,263.8,1382.6,263.8z"/>
<path class="st5" d="M138,833.2h658c3.9,0,7,3.1,7,7v21c0,3.9-3.1,7-7,7H138c-3.9,0-7-3.1-7-7v-21C131,836.4,134.1,833.2,138,833.2z
	"/>
<path class="st4" d="M137,833.2h658c3.9,0,7,3.1,7,7v6c0,3.9-3.1,7-7,7H137c-3.9,0-7-3.1-7-7v-6C130,836.4,133.1,833.2,137,833.2z"
	/>
<path class="st0" d="M798,877.2H140c-6.6,0-12-5.4-12-12v-21c0-6.6,5.4-12,12-12h403.5c2.8,0,5,2.2,5,5s-2.2,5-5,5H140
	c-1.1,0-2,0.9-2,2v21c0,1.1,0.9,2,2,2h658c1.1,0,2-0.9,2-2v-21c0-1.1-0.9-2-2-2H571.5c-2.8,0-5-2.2-5-5s2.2-5,5-5H798
	c6.6,0,12,5.4,12,12v21C810,871.8,804.6,877.2,798,877.2z"/>
<path class="st5" d="M1116.5,820.2h38c15.7,0,28.5,12.8,28.5,28.5l0,0v6.2c0,9.5-7.7,17.3-17.3,17.3l0,0h-60.4
	c-9.5,0-17.3-7.7-17.3-17.3v-6.2C1088,833,1100.8,820.2,1116.5,820.2L1116.5,820.2z"/>
<path class="st2" d="M1182,847.7v6.2c0,9.5-7.7,17.3-17.3,17.3l0,0h-60.4c-9.5,0-17.3-7.7-17.3-17.3v-6.2c0-1.5,0.1-2.9,0.3-4.4
	c1.6,8.1,8.7,13.9,16.9,13.9h60.4c8.2,0,15.3-5.8,16.9-13.9C1181.9,844.8,1182,846.3,1182,847.7z"/>
<path class="st0" d="M1165.7,878.2h-60.4c-12.3,0-22.3-10-22.3-22.3v-6.2c0-18.5,15-33.5,33.5-33.5h38c18.5,0,33.5,15,33.5,33.5v6.2
	C1188,868.2,1178,878.2,1165.7,878.2z M1116.5,826.2c-13,0-23.5,10.5-23.5,23.5v6.2c0,6.8,5.5,12.3,12.3,12.3h60.4
	c6.8,0,12.3-5.5,12.3-12.3v-6.2c0-13-10.5-23.5-23.5-23.5H1116.5z"/>
<path class="st2" d="M1661.5,767.2h204c3.6,0,6.5,2.9,6.5,6.5l0,0c0,3.6-2.9,6.5-6.5,6.5h-204c-3.6,0-6.5-2.9-6.5-6.5l0,0
	C1655,770.1,1657.9,767.2,1661.5,767.2z"/>
<path class="st0" d="M1856.2,524.5H1675c-9.3,0-16.9-7.6-16.9-16.9v-41.2c0-9.3,7.6-16.9,16.9-16.9h181.2c9.3,0,16.9,7.6,16.9,16.9
	v41.2C1873.1,516.9,1865.5,524.4,1856.2,524.5z M1675.1,459.5c-3.8,0-6.9,3.1-6.9,6.9v41.2c0,3.8,3.1,6.9,6.9,6.9h181.2
	c3.8,0,6.9-3.1,6.9-6.9v-41.2c0-3.8-3.1-6.9-6.9-6.9H1675.1z"/>
<path class="st0" d="M1843.2,492h-154c-2.8,0-5-2.2-5-5s2.2-5,5-5h154c2.8,0,5,2.2,5,5S1845.9,492,1843.2,492z"/>
<path class="st0" d="M1856.2,630.5H1675c-9.3,0-16.9-7.6-16.9-16.9v-41.2c0-9.3,7.6-16.9,16.9-16.9h181.2c9.3,0,16.9,7.6,16.9,16.9
	v41.2C1873.1,622.9,1865.5,630.4,1856.2,630.5z M1675.1,565.5c-3.8,0-6.9,3.1-6.9,6.9v41.2c0,3.8,3.1,6.9,6.9,6.9h181.2
	c3.8,0,6.9-3.1,6.9-6.9v-41.2c0-3.8-3.1-6.9-6.9-6.9H1675.1z"/>
<path class="st0" d="M1843.2,598h-154c-2.8,0-5-2.2-5-5s2.2-5,5-5h154c2.8,0,5,2.2,5,5S1845.9,598,1843.2,598z"/>
<path class="st24" d="M1667.7,380.2h200.4c14.2,0,25.8,11.5,25.8,25.8v336.4c0,14.2-11.5,25.8-25.8,25.8h-200.4
	c-14.2,0-25.8-11.5-25.8-25.8V406C1641.9,391.8,1653.4,380.2,1667.7,380.2z"/>
<path class="st13" d="M1890.8,756.6c-4.1,9.5-13.4,15.6-23.7,15.6h-200.4c-14.2,0-25.8-11.5-25.8-25.8l0,0V410
	c0-10.3,6.1-19.6,15.6-23.7c-1.4,3.2-2.1,6.7-2.1,10.2v336.4c0,14.2,11.5,25.8,25.8,25.8l0,0h200.4
	C1884.1,758.7,1887.6,758,1890.8,756.6z"/>
<g class="st25">
	<path class="st11" d="M1759.4,379.2l-70.7,388h-28c-9.1,0-17.5-4.8-22.1-12.6l68.5-375.4L1759.4,379.2L1759.4,379.2z"/>
	<polygon class="st11" points="1848.1,379.2 1777.3,767.2 1703.3,767.2 1774,379.2 	"/>
</g>
<path class="st0" d="M1863.6,773.2h-200.4c-17,0-30.8-13.8-30.8-30.8V406c0-17,13.8-30.8,30.8-30.8h200.4c17,0,30.8,13.8,30.8,30.8
	v336.4C1894.4,759.4,1880.6,773.2,1863.6,773.2z M1663.2,385.2c-11.5,0-20.8,9.3-20.8,20.8v336.4c0,11.5,9.3,20.8,20.8,20.8h200.4
	c11.5,0,20.8-9.3,20.8-20.8V406c0-11.5-9.3-20.8-20.8-20.8H1663.2z"/>
</svg>
