<?xml version="1.0" encoding="utf-8"?>
<!-- Generator: Adobe Illustrator 25.0.0, SVG Export Plug-In . SVG Version: 6.00 Build 0)  -->
<svg version="1.1" id="Layer_1" xmlns="http://www.w3.org/2000/svg" xmlns:xlink="http://www.w3.org/1999/xlink" x="0px" y="0px"
	 viewBox="0 0 1772 1774" style="enable-background:new 0 0 1772 1774;" xml:space="preserve">
<style type="text/css">
	.st0{fill-rule:evenodd;clip-rule:evenodd;fill:#FFFFFF;}
	.st1{fill:#FFFFFF;}
</style>
<g>
	<path class="st0" d="M678.8,1472.7c36.9,0,72.8,0,109.2,0c0-116,0-231.7,0-346.9c-80.9,80.7-161.9,161.5-243.2,242.5
		c25.6,25.5,51.2,51.1,77.8,77.7c-121,21.8-240.3,43.2-360.5,64.8c21.6-120.1,43-239.6,64.5-359.3c25.9,25.9,51.4,51.4,76.3,76.2
		c82.6-82.2,164.5-163.8,246.7-245.7c-114.6,0-229,0-344.1,0c0,36.2,0,72.3,0,109.7C204.9,1021.9,105.4,952.7,5.1,882.9
		c100-69.6,199.6-138.8,300-208.6c0,36.8,0,72.8,0,109.2c116.2,0,231.7,0,346.3,0c-80.6-80.6-161.6-161.6-242.8-242.8
		c-24.7,24.8-50.2,50.3-76.6,76.8c-21.7-120.5-43.1-240-64.7-360.3c120.1,21.6,239.5,43.1,359.1,64.6
		c-25.8,25.8-51.4,51.4-76.7,76.8c82.5,82.4,164.3,164.1,245.9,245.6c0-113.7,0-228.2,0-343.4c-36,0-72.2,0-109.6,0
		C755.8,200,825,100.4,894.7,0c69.5,100.1,138.8,199.8,208.5,300.2c-36.7,0-72.7,0-109.1,0c0,116.2,0,231.7,0,345.9
		c80.3-80.1,161.4-160.9,243.2-242.5c-25.1-24.9-50.8-50.4-77.1-76.5c120.4-21.7,239.7-43.1,359.8-64.7
		c-21.6,120.1-43,239.5-64.4,358.8c-25.7-25.7-51.3-51.3-76.4-76.4c-82.9,82.5-164.8,164.1-247.2,246.2c115.1,0,229.6,0,344.6,0
		c0-36.1,0-72.2,0-109.6c100.6,70,200.2,139.2,300.4,208.9c-100,69.6-199.6,138.8-300.1,208.7c0-36.9,0-72.9,0-109.3
		c-116.1,0-231.7,0-346.5,0c80.7,80.6,161.7,161.6,242.7,242.5c24.7-24.7,50.3-50.1,77-76.7c21.7,120.8,43.2,240.3,64.8,360.6
		c-120-21.6-239.4-43.1-358.4-64.5c25.5-25.5,51.1-51.1,76.3-76.4c-82.9-82.8-164.8-164.5-246.4-246c0,113.8,0,228.3,0,343.3
		c36.3,0,72.4,0,109.7,0c-69.9,100.7-139.2,200.4-208.8,300.7C817.8,1672.9,748.5,1573.2,678.8,1472.7z M891.1,1087.9
		c111.3,0,201.2-90,201.2-201.3c0-111.3-90-201.4-201.2-201.3c-111.3,0-201.2,90-201.2,201.4C689.9,998,779.8,1087.9,891.1,1087.9z"
		/>
</g>
<g id="g1343">
	<path id="path1345" class="st1" d="M969.5,747.6c0,0,137.6,107.6,36.5,262.4C1101.3,951.7,1109.5,791.6,969.5,747.6z"/>
	<path id="path1347" class="st1" d="M892,732.3c-21.9,24.7-59.6,0.1-46.6-26.8c22.6,40.6,46.6,7.8,46.6,7.8s24,32.8,46.6-7.8
		C951.6,732.5,913.9,757,892,732.3z"/>
	<path id="path1349" class="st1" d="M892,1067.6l-15.7-20.6c0,0-37.1,12.4-85.9-4.7c40,0,62.4-7.1,70.6-11.2
		c0,0-90.6-48.8-88.8-148.2c5.3-100.6,58.8-131.2,58.8-131.2s-95.3,138.8,44.7,254.8l-6.2-143.5c0,0,0-94.6,0-105.4
		c7.9-1.9,22.5-18.7,22.5-18.7s14.6,16.8,22.5,18.7c0,10.9,0,105.4,0,105.4l-6.2,143.5c140-116,44.7-254.8,44.7-254.8
		s53.5,30.6,58.8,131.2c1.8,99.4-88.8,148.2-88.8,148.2c8.2,4.1,30.6,11.2,70.6,11.2c-48.8,17.1-85.9,4.7-85.9,4.7L892,1067.6z"/>
	<path id="path1351" class="st1" d="M814.5,747.6c0,0-137.6,107.6-36.5,262.4C682.8,951.7,674.5,791.6,814.5,747.6z"/>
</g>
</svg>
