<?xml version="1.0" encoding="utf-8"?>
<!-- Generator: Adobe Illustrator 24.2.1, SVG Export Plug-In . SVG Version: 6.00 Build 0)  -->
<svg version="1.1" id="Layer_1" xmlns="http://www.w3.org/2000/svg" xmlns:xlink="http://www.w3.org/1999/xlink" x="0px" y="0px"
	 viewBox="0 0 1000 634.2" style="enable-background:new 0 0 1000 634.2;" xml:space="preserve">
<style type="text/css">
	.st0{fill:none;}
	.st1{fill:#4E5A7D;}
	.st2{fill:#BCAFAA;}
	.st3{fill:#A09592;}
	.st4{fill:#D1CAC7;}
	.st5{fill:#E08484;}
	.st6{fill:#E99697;}
	.st7{fill:#D87171;}
	.st8{fill:#FBE3D5;}
	.st9{fill:#FFF4EE;}
	.st10{fill:#F9D1BD;}
	.st11{fill:none;stroke:#4E5A7D;stroke-width:6;stroke-linecap:round;stroke-linejoin:round;stroke-miterlimit:10;}
	.st12{fill:#FFFFFF;}
</style>
<g id="XMLID_133_">
	<rect y="-169.8" class="st0" width="1000" height="1000"/>
</g>
<g id="XMLID_382_">
	<path class="st1" d="M708.6,609.7h-480c-1.7,0-3-1.3-3-3s1.3-3,3-3h480c1.7,0,3,1.3,3,3S710.3,609.7,708.6,609.7z"/>
</g>
<g id="XMLID_381_">
	<path class="st1" d="M785,609.7h-49.4c-1.7,0-3-1.3-3-3s1.3-3,3-3H785c1.7,0,3,1.3,3,3S786.7,609.7,785,609.7z"/>
</g>
<g id="XMLID_380_">
	<path class="st1" d="M208.8,609.7h-34.7c-1.7,0-3-1.3-3-3s1.3-3,3-3h34.7c1.7,0,3,1.3,3,3S210.5,609.7,208.8,609.7z"/>
</g>
<g id="XMLID_379_">
	<path class="st1" d="M811,609.7h-8.6c-1.7,0-3-1.3-3-3s1.3-3,3-3h8.6c1.7,0,3,1.3,3,3S812.7,609.7,811,609.7z"/>
</g>
<g id="XMLID_390_">
	<path class="st1" d="M511.4,283.3h-24.2c-1.2,0-2.1-1-2.1-2.1v-51c0-1.2,1-2.1,2.1-2.1h24.2c1.2,0,2.1,1,2.1,2.1v51
		C513.5,282.3,512.6,283.3,511.4,283.3z"/>
</g>
<g id="XMLID_335_">
	<path class="st1" d="M511.4,286.3h-24.2c-2.8,0-5.1-2.3-5.1-5.1v-51c0-2.8,2.3-5.1,5.1-5.1h24.2c2.8,0,5.1,2.3,5.1,5.1v51
		C516.5,284,514.2,286.3,511.4,286.3z M488.1,280.3h22.4v-49.2h-22.4V280.3z"/>
</g>
<g id="XMLID_394_">
	<path class="st2" d="M543,250.3h-87.4c-9.4,0-17.1-7.6-17.1-17.1v-10.3c0-9.4,7.6-17.1,17.1-17.1H543c9.4,0,17.1,7.6,17.1,17.1
		v10.3C560,242.6,552.4,250.3,543,250.3z"/>
</g>
<g id="XMLID_330_">
	<path class="st3" d="M543,241h-87.4c-9.4,0-17.1-7.6-17.1-17.1v9.3c0,9.4,7.6,17.1,17.1,17.1H543c9.4,0,17.1-7.6,17.1-17.1v-9.3
		C560,233.4,552.4,241,543,241z"/>
</g>
<g id="XMLID_329_">
	<path class="st4" d="M543,205.9h-87.4c-9.4,0-17.1,7.6-17.1,17.1v10.2c0,0.2,0,0.3,0,0.5c0.3-9.2,7.8-16.5,17-16.5H543
		c9.2,0,16.7,7.4,17,16.5c0-0.2,0-0.3,0-0.5v-10.3C560,213.5,552.4,205.9,543,205.9z"/>
</g>
<g id="XMLID_336_">
	<path class="st1" d="M543,253.3h-87.4c-11.1,0-20.1-9-20.1-20.1v-10.3c0-11.1,9-20.1,20.1-20.1H543c11.1,0,20.1,9,20.1,20.1v10.3
		C563,244.3,554,253.3,543,253.3z M455.6,208.8c-7.8,0-14.1,6.3-14.1,14.1v10.3c0,7.8,6.3,14.1,14.1,14.1H543
		c7.7,0,14-6.3,14.1-14.1v-10.3c0-7.8-6.3-14.1-14.1-14.1H455.6z"/>
</g>
<g id="XMLID_257_">
	<g id="XMLID_255_">
		<rect x="564.5" y="285.3" transform="matrix(0.5 -0.866 0.866 0.5 35.3539 649.8738)" class="st1" width="32" height="18"/>
	</g>
	<g id="XMLID_31_">
		<path class="st1" d="M580.3,315.6c-0.5,0-1-0.1-1.5-0.4l-15.6-9c-1.4-0.8-1.9-2.7-1.1-4.1l16-27.7c0.4-0.7,1.1-1.2,1.8-1.4
			c0.8-0.2,1.6-0.1,2.3,0.3l15.6,9c1.4,0.8,1.9,2.7,1.1,4.1l-16,27.7c-0.4,0.7-1.1,1.2-1.8,1.4C580.8,315.6,580.6,315.6,580.3,315.6
			z M568.8,302.6l10.4,6l13-22.5l-10.4-6L568.8,302.6z"/>
	</g>
	<g id="XMLID_256_">
		<path class="st5" d="M600,287.1l-23-13.3c-4.8-2.8-6.4-8.8-3.6-13.6l0.8-1.4c2.8-4.8,8.8-6.4,13.6-3.6l23,13.3
			c4.8,2.8,6.4,8.8,3.6,13.6l-0.8,1.4C610.9,288.2,604.8,289.9,600,287.1z"/>
	</g>
	<g id="XMLID_365_">
		<path class="st5" d="M600,287.1l-23-13.3c-4.8-2.8-6.4-8.8-3.6-13.6l0.8-1.4c2.8-4.8,8.8-6.4,13.6-3.6l23,13.3
			c4.8,2.8,6.4,8.8,3.6,13.6l-0.8,1.4C610.9,288.2,604.8,289.9,600,287.1z"/>
	</g>
	<g id="XMLID_375_">
		<path class="st6" d="M572.3,265.5l0.8-1.4c2.8-4.8,8.8-6.4,13.6-3.6l23,13.3c2.7,1.6,4.4,4.2,4.9,7c2.5-4.7,0.9-10.7-3.8-13.4
			l-23-13.3c-4.8-2.8-10.9-1.1-13.6,3.6l-0.8,1.4c-1.2,2.1-1.6,4.4-1.2,6.6C572.2,265.7,572.2,265.6,572.3,265.5z"/>
	</g>
	<g id="XMLID_254_">
		<path class="st1" d="M605,291.5c-2.3,0-4.5-0.6-6.5-1.8l-23-13.3c-3-1.8-5.2-4.6-6-7.9c-0.9-3.3-0.4-6.8,1.4-9.8l0.8-1.4
			c1.8-3,4.6-5.2,7.9-6.1c3.3-0.9,6.8-0.4,9.8,1.4l23,13.3c6.3,3.7,8.3,11.4,4.7,17.7l-0.8,1.4c-1.7,3-4.5,5.1-7.9,6
			C607.2,291.3,606.1,291.5,605,291.5z M582.8,256.8c-0.6,0-1.2,0.1-1.7,0.2c-1.8,0.5-3.3,1.6-4.2,3.3l-0.8,1.4
			c-1,1.6-1.2,3.5-0.8,5.3c0.5,1.8,1.6,3.3,3.3,4.2l23,13.3l0,0c1.6,0.9,3.5,1.2,5.3,0.7s3.3-1.6,4.2-3.2l0.8-1.4
			c2-3.4,0.9-7.6-2.5-9.5l-23-13.3C585.2,257.2,584,256.8,582.8,256.8z"/>
	</g>
</g>
<g id="XMLID_17_">
	<g id="XMLID_20_">
		<rect x="410.5" y="278.4" transform="matrix(0.866 -0.5 0.5 0.866 -91.0091 249.2015)" class="st1" width="18" height="32"/>
	</g>
	<g id="XMLID_109_">
		<path class="st1" d="M419.7,315.7c-1,0-2-0.5-2.6-1.5l-16-27.7c-0.4-0.7-0.5-1.5-0.3-2.3s0.7-1.4,1.4-1.8l15.6-9
			c1.4-0.8,3.3-0.3,4.1,1.1l16,27.7c0.4,0.7,0.5,1.5,0.3,2.3s-0.7,1.4-1.4,1.8l-15.6,9C420.8,315.6,420.2,315.7,419.7,315.7z
			 M407.8,286.1l13,22.5l10.4-6l-13-22.5L407.8,286.1z"/>
	</g>
	<g id="XMLID_19_">
		<path class="st5" d="M400,287.1l23-13.3c4.8-2.8,6.4-8.8,3.6-13.6l-0.8-1.4c-2.8-4.8-8.8-6.4-13.6-3.6l-23,13.3
			c-4.8,2.8-6.4,8.8-3.6,13.6l0.8,1.4C389.1,288.2,395.2,289.9,400,287.1z"/>
	</g>
	<g id="XMLID_364_">
		<path class="st5" d="M400,287.1l23-13.3c4.8-2.8,6.4-8.8,3.6-13.6l-0.8-1.4c-2.8-4.8-8.8-6.4-13.6-3.6l-23,13.3
			c-4.8,2.8-6.4,8.8-3.6,13.6l0.8,1.4C389.1,288.2,395.2,289.9,400,287.1z"/>
	</g>
	<g id="XMLID_372_">
		<path class="st6" d="M389.6,274.8l23-13.3c4.8-2.8,10.9-1.1,13.6,3.6l0.8,1.4c0.2,0.4,0.4,0.9,0.6,1.3c0.7-2.5,0.4-5.2-1-7.6
			l-0.8-1.4c-2.8-4.8-8.8-6.4-13.6-3.6l-23,13.3c-4.3,2.5-6.1,7.8-4.3,12.3C385.6,278.4,387.2,276.2,389.6,274.8z"/>
	</g>
	<g id="XMLID_18_">
		<path class="st1" d="M395,291.5c-1.1,0-2.2-0.1-3.4-0.4c-3.4-0.9-6.1-3-7.9-6l-0.8-1.4c-1.7-3-2.2-6.5-1.3-9.8
			c0.9-3.3,3-6.1,6-7.9l23-13.3c3-1.8,6.5-2.2,9.8-1.4c3.3,0.9,6.1,3,7.9,6l0.8,1.4c3.6,6.2,1.6,14-4.7,17.7l-23,13.3
			C399.5,290.9,397.3,291.5,395,291.5z M417.2,256.8c-1.2,0-2.4,0.3-3.5,1l-23,13.3c-1.6,0.9-2.8,2.4-3.3,4.2
			c-0.5,1.8-0.2,3.6,0.7,5.3l0.8,1.4c0.9,1.6,2.4,2.7,4.2,3.2c1.8,0.5,3.7,0.2,5.3-0.7l0,0l23-13.3c3.4-2,4.5-6.1,2.5-9.5l-0.8-1.4
			c-0.9-1.6-2.4-2.8-4.2-3.2C418.4,256.9,417.8,256.8,417.2,256.8z"/>
	</g>
</g>
<g id="XMLID_464_">
	<g id="XMLID_476_">
		<g id="XMLID_477_">
			<path class="st1" d="M544.1,253.3c-1.7,0-3-1.3-3-3v-44.1c0-1.7,1.3-3,3-3s3,1.3,3,3v44.1C547.1,252,545.8,253.3,544.1,253.3z"/>
		</g>
	</g>
	<g id="XMLID_474_">
		<g id="XMLID_475_">
			<path class="st1" d="M526.1,253.3c-1.7,0-3-1.3-3-3v-44.1c0-1.7,1.3-3,3-3s3,1.3,3,3v44.1C529.1,252,527.8,253.3,526.1,253.3z"/>
		</g>
	</g>
	<g id="XMLID_471_">
		<g id="XMLID_472_">
			<path class="st1" d="M508.1,253.3c-1.7,0-3-1.3-3-3v-44.1c0-1.7,1.3-3,3-3s3,1.3,3,3v44.1C511.1,252,509.8,253.3,508.1,253.3z"/>
		</g>
	</g>
	<g id="XMLID_469_">
		<g id="XMLID_470_">
			<path class="st1" d="M490.1,253.3c-1.7,0-3-1.3-3-3v-44.1c0-1.7,1.3-3,3-3s3,1.3,3,3v44.1C493.1,252,491.8,253.3,490.1,253.3z"/>
		</g>
	</g>
	<g id="XMLID_467_">
		<g id="XMLID_468_">
			<path class="st1" d="M472.1,253.3c-1.7,0-3-1.3-3-3v-44.1c0-1.7,1.3-3,3-3s3,1.3,3,3v44.1C475.1,252,473.8,253.3,472.1,253.3z"/>
		</g>
	</g>
	<g id="XMLID_465_">
		<g id="XMLID_466_">
			<path class="st1" d="M454.1,253.3c-1.7,0-3-1.3-3-3v-44.1c0-1.7,1.3-3,3-3s3,1.3,3,3v44.1C457.1,252,455.8,253.3,454.1,253.3z"/>
		</g>
	</g>
</g>
<g id="XMLID_16_">
	<circle class="st5" cx="499.3" cy="440" r="166.7"/>
</g>
<g id="XMLID_368_">
	<path class="st7" d="M499.3,593.4c-89.8,0-163-71-166.5-160c-0.1,2.2-0.1,4.4-0.1,6.7c0,92.1,74.6,166.7,166.7,166.7
		s166.7-74.6,166.7-166.7c0-2.2-0.1-4.5-0.1-6.7C662.3,522.3,589.1,593.4,499.3,593.4z"/>
</g>
<g id="XMLID_367_">
	<path class="st6" d="M499.3,284.2c90.2,0,163.7,71.7,166.6,161.3c0.1-1.8,0.1-3.6,0.1-5.4c0-92.1-74.6-166.7-166.7-166.7
		S332.6,348,332.6,440.1c0,1.8,0,3.6,0.1,5.4C335.6,355.9,409,284.2,499.3,284.2z"/>
</g>
<g id="XMLID_350_">
	<circle class="st8" cx="499.3" cy="440" r="131.8"/>
</g>
<g id="XMLID_370_">
	<path class="st9" d="M499.3,555.5c-70,0-127.3-54.6-131.5-123.6c-0.2,2.7-0.3,5.4-0.3,8.1c0,72.8,59,131.8,131.8,131.8
		s131.8-59,131.8-131.8c0-2.7-0.1-5.4-0.3-8.1C626.6,500.9,569.3,555.5,499.3,555.5z"/>
</g>
<g id="XMLID_369_">
	<path class="st10" d="M499.3,325.1c69.9,0,127.1,54.5,131.5,123.3c0.2-2.8,0.3-5.6,0.3-8.4c0-72.8-59-131.8-131.8-131.8
		s-131.8,59-131.8,131.8c0,2.8,0.1,5.6,0.3,8.4C372.2,379.6,429.4,325.1,499.3,325.1z"/>
</g>
<g id="XMLID_383_">
	<path class="st1" d="M500,493.4c-3.6,0-6.5-2.9-6.5-6.5v-49.6c0-3.6,2.9-6.5,6.5-6.5s6.5,2.9,6.5,6.5v49.6
		C506.5,490.5,503.6,493.4,500,493.4z"/>
</g>
<g id="XMLID_378_">
	<path class="st1" d="M500,443.8c-3.6,0-6.5-2.9-6.5-6.5v-73.6c0-3.6,2.9-6.5,6.5-6.5s6.5,2.9,6.5,6.5v73.6
		C506.5,440.9,503.6,443.8,500,443.8z"/>
</g>
<g id="XMLID_334_">
	<path class="st1" d="M499.3,574.8c-74.3,0-134.8-60.5-134.8-134.8S425,305.2,499.3,305.2S634.1,365.7,634.1,440
		S573.6,574.8,499.3,574.8z M499.3,311.2c-71,0-128.8,57.8-128.8,128.8s57.8,128.8,128.8,128.8S628.1,511,628.1,440
		S570.3,311.2,499.3,311.2z"/>
</g>
<g id="XMLID_14_">
	<g id="XMLID_340_">
		<path class="st1" d="M500,343.2c-2.8,0-5-2.2-5-5v-26.1c0-2.8,2.2-5,5-5s5,2.2,5,5v26.1C505,341,502.8,343.2,500,343.2z"/>
	</g>
	<g id="XMLID_15_">
		<path class="st1" d="M500,573c-2.8,0-5-2.2-5-5v-26.1c0-2.8,2.2-5,5-5s5,2.2,5,5V568C505,570.8,502.8,573,500,573z"/>
	</g>
</g>
<g id="XMLID_13_">
	<g id="XMLID_78_">
		<path class="st1" d="M627.9,445h-26c-2.8,0-5-2.2-5-5s2.2-5,5-5h26c2.8,0,5,2.2,5,5S630.7,445,627.9,445z"/>
	</g>
	<g id="XMLID_77_">
		<path class="st1" d="M398.1,445h-26c-2.8,0-5-2.2-5-5s2.2-5,5-5h26c2.8,0,5,2.2,5,5S400.9,445,398.1,445z"/>
	</g>
</g>
<g id="XMLID_388_">
	<g id="XMLID_391_">
		<path class="st1" d="M583.1,360c-0.8,0-1.5-0.3-2.1-0.9c-1.2-1.2-1.2-3.1,0-4.2l9.7-9.8c1.2-1.2,3.1-1.2,4.2,0
			c1.2,1.2,1.2,3.1,0,4.2l-9.7,9.8C584.6,359.7,583.9,360,583.1,360z"/>
	</g>
	<g id="XMLID_393_">
		<path class="st11" d="M592.8,347.2"/>
	</g>
	<g id="XMLID_387_">
		<path class="st11" d="M604.3,335.7"/>
	</g>
	<g id="XMLID_389_">
		<path class="st1" d="M406.5,536.6c-0.8,0-1.5-0.3-2.1-0.9c-1.2-1.2-1.2-3.1,0-4.2l10.4-10.5c1.2-1.2,3.1-1.2,4.2,0
			c1.2,1.2,1.2,3.1,0,4.2l-10.4,10.5C408,536.3,407.3,536.6,406.5,536.6z"/>
	</g>
</g>
<g id="XMLID_385_">
	<g id="XMLID_392_">
		<path class="st1" d="M592.8,535.8c-0.8,0-1.5-0.3-2.1-0.9l-9.7-9.7c-1.2-1.2-1.2-3.1,0-4.2c1.2-1.2,3.1-1.2,4.2,0l9.7,9.7
			c1.2,1.2,1.2,3.1,0,4.2C594.3,535.5,593.6,535.8,592.8,535.8z"/>
	</g>
	<g id="XMLID_386_">
		<path class="st1" d="M416.9,360c-0.8,0-1.5-0.3-2.1-0.9l-10.4-10.5c-1.2-1.2-1.2-3.1,0-4.2c1.2-1.2,3.1-1.2,4.2,0l10.4,10.5
			c1.2,1.2,1.2,3.1,0,4.2C418.4,359.7,417.7,360,416.9,360z"/>
	</g>
</g>
<g id="XMLID_12_">
	<circle class="st8" cx="500" cy="437.3" r="13.5"/>
</g>
<g id="XMLID_11_">
	<path class="st1" d="M500,455.3c-9.9,0-18-8.1-18-18s8.1-18,18-18s18,8.1,18,18S509.9,455.3,500,455.3z M500,428.3c-5,0-9,4-9,9
		s4,9,9,9s9-4,9-9S505,428.3,500,428.3z"/>
</g>
<g id="XMLID_384_">
	<circle class="st8" cx="500" cy="486.9" r="9.3"/>
</g>
<g id="XMLID_10_">
	<path class="st1" d="M500,499.2c-6.8,0-12.3-5.5-12.3-12.3s5.5-12.3,12.3-12.3s12.3,5.5,12.3,12.3S506.8,499.2,500,499.2z
		 M500,480.6c-3.5,0-6.3,2.8-6.3,6.3s2.8,6.3,6.3,6.3s6.3-2.8,6.3-6.3S503.5,480.6,500,480.6z"/>
</g>
<g id="XMLID_306_">
	<path class="st1" d="M499.3,609.7c-93.6,0-169.7-76.1-169.7-169.7s76.1-169.7,169.7-169.7S669,346.4,669,440
		S592.9,609.7,499.3,609.7z M499.3,276.3c-90.3,0-163.7,73.4-163.7,163.7S409,603.7,499.3,603.7S663,530.3,663,440
		S589.6,276.3,499.3,276.3z"/>
</g>
<g id="XMLID_397_">
	<g id="XMLID_374_">
		<path class="st12" d="M520.4,114.3c-25.3,2.4-50.8,2.4-76.1,0c-9.8-0.9-17.7-6.8-19.4-14.6c-4.4-20.4-4.4-39.9,0-60.3
			c1.7-7.7,9.6-13.6,19.4-14.6c25.3-2.4,50.8-2.4,76.1,0c9.8,0.9,17.7,6.8,19.4,14.6c4.4,20.4,4.4,39.9,0,60.3
			C538.2,107.5,530.2,113.4,520.4,114.3z"/>
	</g>
	<g id="XMLID_371_">
		<path class="st1" d="M482.4,119.1c-12.8,0-25.6-0.6-38.3-1.8c-11.2-1-20.1-7.8-22-16.9c-4.5-20.7-4.5-40.9,0-61.6
			c2-9,10.8-15.8,22-17c25.5-2.4,51.3-2.4,76.7,0c11.2,1,20.1,7.8,22,16.9c4.5,20.7,4.5,40.9,0,61.6c-1.8,8.9-10.9,15.9-22.1,17
			C508,118.5,495.2,119.1,482.4,119.1z M482.3,26c-12.6,0-25.2,0.6-37.8,1.8c-8.5,0.9-15.4,5.9-16.8,12.3c-4.3,19.8-4.3,39.2,0,59
			c1.4,6.4,8.3,11.5,16.7,12.2c25.1,2.4,50.5,2.4,75.5,0l0,0c8.5-0.8,15.4-5.8,16.7-12.2c4.3-19.9,4.3-39.2,0-59.1
			c-1.4-6.4-8.3-11.5-16.7-12.2C507.6,26.6,495,26,482.3,26z"/>
	</g>
	<g id="XMLID_366_">
		<path class="st1" d="M474,92.9c-1.8,0-3.7-0.5-5.3-1.4c-3-1.8-4.8-4.8-4.8-8.2V56.1c-0.1-3.3,1.7-6.4,4.7-8.2
			c3.2-1.9,7.1-2,10.4-0.2l25.2,13.6c3.2,1.8,5.1,4.9,5.1,8.4s-1.9,6.6-5.1,8.4L479,91.6C477.5,92.5,475.8,92.9,474,92.9z
			 M474.1,52.4c-0.9,0-1.7,0.3-2.3,0.6c-0.5,0.3-1.8,1.3-1.8,3v27.3c0,1.8,1.3,2.7,1.8,3c1.3,0.8,3,0.8,4.3,0.1l25.2-13.6
			c1.2-0.7,2-1.8,2-3.1s-0.7-2.4-2-3.1L476.1,53l0,0C475.4,52.5,474.7,52.4,474.1,52.4z"/>
	</g>
</g>
<g id="XMLID_398_">
	<g id="XMLID_376_">
		<path class="st12" d="M235.9,326c0,0-45.1,6.9-52.6-0.7c-12.3-12.4,8.6-17.5,7.1-29.4c-3.2-24.9-1.7-52.9,8.2-65.4
			c0.1-0.1,0.2-0.2,0.3-0.4c11.9-14.7,33.7-17.5,48.9-6.2c0.1,0.1,0.3,0.2,0.4,0.3c12.7,9.7,21.1,36.4,24.3,61.3
			c1.5,11.9,23,11.7,14.2,26.7C281.3,321.4,235.9,326,235.9,326z"/>
	</g>
	<g id="XMLID_377_">
		<path class="st1" d="M202.6,331.9c-9.5,0-18.1-1.1-21.4-4.5c-9.1-9.2-3.2-16.1,1.2-21.1c2.8-3.3,5.5-6.4,5.1-10
			c-3-23.5-2.3-53.6,8.8-67.6l0.1-0.1c0.1-0.1,0.1-0.2,0.2-0.3c12.9-15.9,36.6-18.9,53-6.7l0.1,0.1c0.1,0.1,0.3,0.2,0.4,0.3
			c14.1,10.9,22.4,39.8,25.4,63.2c0.5,3.7,3.8,6,7.4,8.5c5.5,3.8,12.9,9,6.4,20.1c-5.9,10-45,14.4-53,15.3
			C231.6,329.7,216.2,331.9,202.6,331.9z M200.9,232.5c-8.1,10.4-11.1,35.1-7.5,63c0.8,6.3-3.2,11-6.5,14.7c-4.7,5.5-6.5,7.9-1.5,13
			c4.4,4.5,31.9,2.6,50-0.2c0.1,0,0.1,0,0.2,0c18.2-1.8,45.3-6.9,48.5-12.3c3.6-6.1,1.3-8-4.6-12.2c-4.1-2.8-9.2-6.4-9.9-12.7
			c-3.6-28-12.7-51.3-23.1-59.3c0,0-0.1,0-0.1-0.1c-0.1-0.1-0.2-0.2-0.4-0.3c-13.8-10.2-33.7-7.7-44.5,5.6
			C201.2,232.1,201,232.3,200.9,232.5z M246.1,226.3l0.1,0.1C246.1,226.4,246.1,226.4,246.1,226.3z M249.8,221.7l0.1,0.1
			C249.9,221.7,249.8,221.7,249.8,221.7z"/>
	</g>
	<g id="XMLID_399_">
		<path class="st1" d="M265.2,305.7c-0.5,0-1.1-0.2-1.5-0.6c-4.5-4.9-7.2-10.6-8-16.9c-0.1-1.1,0.6-2.1,1.7-2.2s2.1,0.6,2.2,1.7
			c0.7,5.6,3,10.4,7,14.7c0.7,0.8,0.7,2.1-0.1,2.8C266.2,305.5,265.7,305.7,265.2,305.7z"/>
	</g>
	<g id="XMLID_363_">
		<path class="st1" d="M255.8,278.2c-0.9,0-1.8-0.7-2-1.6c-3.8-19.4-10.3-32.9-14.6-36.2c-0.1-0.1-0.1-0.1-0.2-0.2l-0.2-0.2
			c-0.8-0.8-0.8-2,0-2.8s2-0.8,2.8,0l0.1,0.1c6,4.7,12.4,20.1,16,38.5c0.2,1.1-0.5,2.1-1.6,2.4C256.1,278.2,255.9,278.2,255.8,278.2
			z"/>
	</g>
	<g id="XMLID_395_">
		<path class="st12" d="M249.4,324.3c0.9,7.3-4.4,14-11.8,14.9c-7.4,0.9-14.2-4.2-15.2-11.5L249.4,324.3z"/>
	</g>
	<g id="XMLID_396_">
		<path class="st1" d="M235.9,342.3c-8.2,0-15.4-6-16.5-14.2c-0.1-0.8,0.1-1.6,0.6-2.2s1.2-1,2-1.1l27-3.4c0.8-0.1,1.6,0.1,2.2,0.6
			c0.6,0.5,1,1.2,1.1,2c0.5,4.3-0.7,8.6-3.4,12c-2.7,3.5-6.7,5.7-11.1,6.2C237.3,342.3,236.6,342.3,235.9,342.3z M226.2,330.2
			c1.9,4,6.3,6.6,11,6c2.8-0.3,5.3-1.8,7.1-4c1.1-1.4,1.7-2.9,2-4.5L226.2,330.2z"/>
	</g>
</g>
<g id="XMLID_451_">
	<g id="XMLID_454_">
		<path class="st12" d="M289.1,287.7c-0.4,0-0.8-0.2-0.9-0.6c-0.2-0.5,0-1.1,0.6-1.3l7.3-2.9c0.5-0.2,1.1,0,1.3,0.6
			c0.2,0.5,0,1.1-0.6,1.3l-7.3,2.9C289.3,287.7,289.2,287.7,289.1,287.7z"/>
	</g>
	<g id="XMLID_453_">
		<path class="st12" d="M282.3,283.2c-0.1,0-0.2,0-0.3,0c-0.5-0.2-0.8-0.7-0.7-1.2l2.6-8.5c0.2-0.5,0.7-0.8,1.2-0.7
			c0.5,0.2,0.8,0.7,0.7,1.2l-2.6,8.5C283.1,282.9,282.7,283.2,282.3,283.2z"/>
	</g>
	<g id="XMLID_452_">
		<path class="st12" d="M285.7,284.8c-0.2,0-0.5-0.1-0.7-0.3c-0.4-0.4-0.5-1-0.1-1.4l7.5-8.5c0.4-0.4,1-0.5,1.4-0.1s0.5,1,0.1,1.4
			l-7.5,8.5C286.3,284.7,286,284.8,285.7,284.8z"/>
	</g>
</g>
<g id="XMLID_488_">
	<g id="XMLID_491_">
		<path class="st12" d="M542.8,23.8c-0.4,0-0.8-0.2-0.9-0.6c-0.2-0.5,0-1.1,0.5-1.3l8.6-3.5c0.5-0.2,1.1,0,1.3,0.5s0,1.1-0.5,1.3
			l-8.6,3.5C543.1,23.8,542.9,23.8,542.8,23.8z"/>
	</g>
	<g id="XMLID_490_">
		<path class="st12" d="M535,18.5c-0.1,0-0.2,0-0.3,0c-0.5-0.2-0.8-0.7-0.7-1.2l2.9-9.9c0.2-0.5,0.7-0.8,1.2-0.7
			c0.5,0.2,0.8,0.7,0.7,1.2l-2.9,9.9C535.8,18.2,535.4,18.5,535,18.5z"/>
	</g>
	<g id="XMLID_489_">
		<path class="st12" d="M538.9,20.3c-0.2,0-0.5-0.1-0.7-0.3c-0.4-0.4-0.5-1-0.1-1.4l8.7-9.8c0.4-0.4,1-0.5,1.4-0.1s0.5,1,0.1,1.4
			l-8.7,9.8C539.5,20.2,539.2,20.3,538.9,20.3z"/>
	</g>
</g>
<g id="XMLID_264_">
	<g id="XMLID_270_">
		<path class="st12" d="M802.3,197.3c-0.4,0-0.8-0.2-0.9-0.6c-0.2-0.5,0-1.1,0.6-1.3l8.5-3.4c0.5-0.2,1.1,0,1.3,0.6
			c0.2,0.5,0,1.1-0.6,1.3l-8.5,3.4C802.5,197.3,802.4,197.3,802.3,197.3z"/>
	</g>
	<g id="XMLID_266_">
		<path class="st12" d="M794.4,192.1c-0.1,0-0.2,0-0.3,0c-0.5-0.2-0.8-0.7-0.7-1.2l3-10c0.2-0.5,0.7-0.8,1.2-0.7
			c0.5,0.2,0.8,0.7,0.7,1.2l-3,10C795.2,191.8,794.8,192.1,794.4,192.1z"/>
	</g>
	<g id="XMLID_265_">
		<path class="st12" d="M798.4,193.9c-0.2,0-0.5-0.1-0.7-0.2c-0.4-0.4-0.5-1-0.1-1.4l8.7-9.9c0.4-0.4,1-0.5,1.4-0.1s0.5,1,0.1,1.4
			l-8.7,9.9C799,193.8,798.7,193.9,798.4,193.9z"/>
	</g>
</g>
<g id="XMLID_484_">
	<g id="XMLID_487_">
		<path class="st12" d="M176.8,302.5c-0.5,0-0.9-0.3-1-0.8l-1.9-7.9c-0.1-0.5,0.2-1.1,0.7-1.2s1.1,0.2,1.2,0.7l1.9,7.9
			c0.1,0.5-0.2,1.1-0.7,1.2C177,302.5,176.9,302.5,176.8,302.5z"/>
	</g>
	<g id="XMLID_486_">
		<path class="st12" d="M171.1,308.8c-0.1,0-0.1,0-0.2,0l-10.3-2c-0.5-0.1-0.9-0.6-0.8-1.2c0.1-0.5,0.6-0.9,1.2-0.8l10.3,2
			c0.5,0.1,0.9,0.6,0.8,1.2C172,308.5,171.6,308.8,171.1,308.8z"/>
	</g>
	<g id="XMLID_485_">
		<path class="st12" d="M173.2,305.5c-0.3,0-0.6-0.1-0.8-0.4l-7.5-8.9c-0.4-0.4-0.3-1.1,0.1-1.4c0.4-0.4,1.1-0.3,1.4,0.1l7.5,8.9
			c0.4,0.4,0.3,1.1-0.1,1.4C173.7,305.4,173.4,305.5,173.2,305.5z"/>
	</g>
</g>
<g id="XMLID_252_">
	<path class="st12" d="M780.6,299.8c-26.1,1.2-52.3,1.2-78.5,0c-9.1-0.4-16.4-7.9-16.4-17v-58.6c0-9.2,7.2-16.6,16.4-17
		c26.1-1.2,52.3-1.2,78.5,0c9.1,0.4,16.4,7.9,16.4,17v58.6C797,291.9,789.7,299.4,780.6,299.8z"/>
</g>
<g id="XMLID_83_">
	<path class="st1" d="M741.4,303.7c-13.2,0-26.3-0.3-39.4-0.9c-10.8-0.5-19.3-9.3-19.3-20v-58.6c0-10.7,8.5-19.5,19.3-20
		c26.1-1.2,52.6-1.2,78.8,0c10.8,0.5,19.3,9.3,19.3,20v58.6c0,10.7-8.5,19.5-19.3,20C767.7,303.4,754.5,303.7,741.4,303.7z
		 M741.3,209.3c-13.1,0-26.1,0.3-39.1,0.9c-7.6,0.3-13.5,6.5-13.5,14v58.6c0,7.5,5.9,13.7,13.5,14c26,1.2,52.3,1.2,78.2,0l0,0
		c7.6-0.3,13.5-6.5,13.5-14v-58.6c0-7.5-5.9-13.7-13.5-14C767.5,209.6,754.4,209.3,741.3,209.3z"/>
</g>
<g id="XMLID_242_">
	<path class="st1" d="M700.9,274.5c-0.6,0-1.3-0.2-1.8-0.6c-1.3-1-1.5-2.9-0.5-4.2l23.8-30.7c1-1.3,2.8-1.5,4.1-0.6l26.2,18.8
		l26.5-25.2c1.2-1.1,3.1-1.1,4.2,0.1c1.1,1.2,1.1,3.1-0.1,4.2l-28.3,27c-1,1-2.6,1.1-3.8,0.3L725.3,245l-22,28.4
		C702.7,274.1,701.8,274.5,700.9,274.5z"/>
</g>
<g id="XMLID_3_">
	<circle class="st12" cx="700.9" cy="272.2" r="5.9"/>
</g>
<g id="XMLID_2_">
	<path class="st1" d="M700.9,281.1c-4.9,0-8.9-4-8.9-8.9s4-8.9,8.9-8.9s8.9,4,8.9,8.9S705.8,281.1,700.9,281.1z M700.9,269.3
		c-1.6,0-2.9,1.3-2.9,2.9s1.3,2.9,2.9,2.9c1.6,0,2.9-1.3,2.9-2.9S702.5,269.3,700.9,269.3z"/>
</g>
<g id="XMLID_244_">
	<circle class="st12" cx="725.2" cy="240.9" r="6.7"/>
</g>
<g id="XMLID_243_">
	<path class="st1" d="M725.2,250.6c-5.3,0-9.7-4.4-9.7-9.7s4.4-9.7,9.7-9.7s9.7,4.4,9.7,9.7S730.5,250.6,725.2,250.6z M725.2,237.2
		c-2,0-3.7,1.7-3.7,3.7s1.7,3.7,3.7,3.7s3.7-1.7,3.7-3.7S727.2,237.2,725.2,237.2z"/>
</g>
<g id="XMLID_246_">
	<circle class="st12" cx="752.8" cy="259" r="7.3"/>
</g>
<g id="XMLID_245_">
	<path class="st1" d="M752.8,269.3c-5.7,0-10.3-4.6-10.3-10.3c0-5.7,4.6-10.3,10.3-10.3s10.3,4.6,10.3,10.3S758.5,269.3,752.8,269.3
		z M752.8,254.7c-2.4,0-4.3,1.9-4.3,4.3s1.9,4.3,4.3,4.3s4.3-1.9,4.3-4.3S755.2,254.7,752.8,254.7z"/>
</g>
<g id="XMLID_248_">
	<circle class="st12" cx="782.4" cy="232.6" r="7.3"/>
</g>
<g id="XMLID_247_">
	<path class="st1" d="M782.4,242.9c-5.7,0-10.3-4.6-10.3-10.3c0-5.7,4.6-10.3,10.3-10.3s10.3,4.6,10.3,10.3S788.1,242.9,782.4,242.9
		z M782.4,228.3c-2.4,0-4.3,1.9-4.3,4.3s1.9,4.3,4.3,4.3s4.3-1.9,4.3-4.3S784.8,228.3,782.4,228.3z"/>
</g>
<g id="XMLID_258_">
	<circle class="st12" cx="794.2" cy="292.1" r="33.1"/>
</g>
<g id="XMLID_259_">
	<circle class="st12" cx="794.2" cy="292.1" r="33.1"/>
</g>
<g id="XMLID_253_">
	<path class="st1" d="M794.2,328.2c-19.9,0-36.1-16.2-36.1-36.1s16.2-36.1,36.1-36.1c19.9,0,36.1,16.2,36.1,36.1
		S814.1,328.2,794.2,328.2z M794.2,262c-16.6,0-30.1,13.5-30.1,30.1s13.5,30.1,30.1,30.1s30.1-13.5,30.1-30.1S810.8,262,794.2,262z"
		/>
</g>
<g id="XMLID_262_">
	<path class="st1" d="M794.2,317.7c-14.2,0-25.7-11.5-25.7-25.6c0-2.1,0.3-4.3,0.9-6.5c0.4-1.3,1.7-2.1,3.1-1.8
		c1.3,0.4,2.1,1.7,1.8,3.1c-0.5,1.8-0.7,3.6-0.7,5.3c0,11.4,9.3,20.6,20.7,20.6s20.7-9.3,20.7-20.7c0-6.7-3.1-12.8-8.5-16.7
		c-1.1-0.8-1.4-2.4-0.6-3.5c0.8-1.1,2.4-1.4,3.5-0.6c6.6,4.8,10.5,12.5,10.5,20.7C819.9,306.2,808.4,317.7,794.2,317.7z"/>
</g>
<g id="XMLID_261_">
	<path class="st1" d="M794.1,308.2c-1.5,0-3-0.2-4.4-0.6c-1.3-0.4-2.1-1.8-1.7-3.1c0.4-1.3,1.8-2.1,3.1-1.7c2.7,0.8,5.8,0.5,8.5-1
		c2.6-1.4,4.5-3.8,5.3-6.6c0.8-2.9,0.5-5.9-1-8.5c0,0,0-0.1-0.1-0.1c-0.4-0.8-1-1.6-1.8-2.4c-1-1-1-2.6,0-3.5c1-1,2.6-1,3.5,0
		c1.2,1.2,2.1,2.4,2.7,3.7c2.1,3.8,2.6,8.2,1.4,12.3c-1.2,4.2-3.9,7.6-7.7,9.6C799.5,307.5,796.8,308.2,794.1,308.2z"/>
</g>
<g id="XMLID_313_">
	<path class="st12" d="M304.5,473.8c-0.4,0-0.8-0.2-1.1-0.5c-4.2-4.3-8.3-8.9-12.1-13.5c-0.5-0.6-0.4-1.6,0.2-2.1s1.6-0.4,2.1,0.2
		c3.8,4.5,7.8,9,12,13.3c0.6,0.6,0.6,1.5,0,2.1C305.3,473.7,304.9,473.8,304.5,473.8z M280.3,444.6c-0.5,0-0.9-0.2-1.2-0.6
		c-3.5-4.9-6.8-10-9.9-15.2c-0.4-0.7-0.2-1.6,0.5-2.1c0.7-0.4,1.6-0.2,2.1,0.5c3.1,5.1,6.3,10.1,9.8,15c0.5,0.7,0.3,1.6-0.4,2.1
		C280.9,444.5,280.6,444.6,280.3,444.6z M260.8,412c-0.6,0-1.1-0.3-1.3-0.8c-2.7-5.4-5.1-11-7.4-16.5c-0.3-0.8,0.1-1.6,0.8-1.9
		c0.8-0.3,1.6,0.1,1.9,0.8c2.2,5.5,4.6,11,7.3,16.3c0.4,0.7,0.1,1.6-0.7,2C261.3,411.9,261,412,260.8,412z M246.9,376.7
		c-0.6,0-1.2-0.4-1.4-1.1c-0.3-0.9-0.5-1.8-0.8-2.7c-0.2-0.8,0.2-1.6,1-1.9c0.8-0.2,1.6,0.2,1.9,1c0.3,0.9,0.5,1.8,0.8,2.7
		c0.2,0.8-0.2,1.6-1,1.9C247.2,376.7,247,376.7,246.9,376.7z"/>
</g>
<g id="XMLID_308_">
	<path class="st12" d="M703.1,458c-0.3,0-0.6-0.1-0.9-0.3c-0.7-0.5-0.8-1.5-0.3-2.1l0.8-1.1c0.5-0.7,1.4-0.8,2.1-0.3
		c0.7,0.5,0.8,1.4,0.3,2.1l-0.8,1.1C704,457.8,703.5,458,703.1,458z M715.4,440.6c-0.3,0-0.6-0.1-0.8-0.2c-0.7-0.4-0.9-1.4-0.4-2.1
		c3.2-5,6.3-10.2,9.1-15.4c0.4-0.7,1.3-1,2-0.6s1,1.3,0.6,2c-2.9,5.3-6,10.5-9.2,15.6C716.4,440.3,715.9,440.6,715.4,440.6z
		 M733.4,407.1c-0.2,0-0.4,0-0.6-0.1c-0.8-0.3-1.1-1.2-0.8-2c2.4-5.5,4.6-11.1,6.5-16.7c0.3-0.8,1.1-1.2,1.9-0.9
		c0.8,0.3,1.2,1.1,0.9,1.9c-2,5.7-4.2,11.4-6.6,16.9C734.5,406.8,734,407.1,733.4,407.1z M745.6,371.2c-0.1,0-0.2,0-0.4,0
		c-0.8-0.2-1.3-1-1.1-1.8c1.4-5.8,2.7-11.7,3.6-17.5c0.1-0.8,0.9-1.4,1.7-1.2c0.8,0.1,1.4,0.9,1.2,1.7c-1,5.9-2.2,11.9-3.7,17.7
		C746.9,370.8,746.3,371.2,745.6,371.2z"/>
</g>
<g id="XMLID_309_">
	<path class="st12" d="M723.7,166.8c-0.4,0-0.9-0.2-1.2-0.6c-3.7-4.6-7.6-9.2-11.7-13.5c-0.6-0.6-0.5-1.6,0.1-2.1
		c0.6-0.6,1.6-0.5,2.1,0.1c4.1,4.4,8.1,9,11.8,13.7c0.5,0.6,0.4,1.6-0.2,2.1C724.4,166.6,724.1,166.8,723.7,166.8z M697.8,139
		c-0.4,0-0.7-0.1-1-0.4c-4.4-4-8.9-7.9-13.6-11.7c-0.6-0.5-0.7-1.5-0.2-2.1s1.5-0.7,2.1-0.2c4.7,3.8,9.3,7.8,13.7,11.8
		c0.6,0.6,0.6,1.5,0.1,2.1C698.6,138.8,698.2,139,697.8,139z M668.1,115.3c-0.3,0-0.6-0.1-0.8-0.3c-4.9-3.4-10-6.6-15.1-9.6
		c-0.7-0.4-0.9-1.3-0.5-2.1c0.4-0.7,1.3-0.9,2.1-0.5c5.2,3.1,10.3,6.4,15.3,9.7c0.7,0.5,0.9,1.4,0.4,2.1
		C669.1,115.1,668.6,115.3,668.1,115.3z M635.4,96.1c-0.2,0-0.5-0.1-0.7-0.2c-5.3-2.7-10.8-5.2-16.3-7.5c-0.8-0.3-1.1-1.2-0.8-2
		c0.3-0.8,1.2-1.1,2-0.8c5.5,2.3,11.1,4.9,16.4,7.6c0.7,0.4,1,1.3,0.7,2C636.5,95.8,635.9,96.1,635.4,96.1z M600.3,81.4
		c-0.2,0-0.3,0-0.5-0.1c-5.6-1.9-11.4-3.7-17.1-5.2c-0.8-0.2-1.3-1-1.1-1.8s1-1.3,1.8-1.1c5.8,1.6,11.6,3.3,17.3,5.3
		c0.8,0.3,1.2,1.1,0.9,1.9C601.5,81.1,601,81.4,600.3,81.4z"/>
</g>
<g id="XMLID_260_">
	<path class="st12" d="M273.4,197.8c-0.2,0-0.5-0.1-0.7-0.2c-0.7-0.4-1-1.3-0.6-2c2.7-5.3,5.7-10.6,8.9-15.8
		c0.4-0.7,1.4-0.9,2.1-0.5s0.9,1.4,0.5,2.1c-3.1,5.1-6.1,10.3-8.8,15.5C274.5,197.5,273.9,197.8,273.4,197.8z M293.6,165.7
		c-0.3,0-0.6-0.1-0.9-0.3c-0.7-0.5-0.8-1.4-0.3-2.1c3.6-4.8,7.5-9.5,11.5-14c0.5-0.6,1.5-0.7,2.1-0.1c0.6,0.5,0.7,1.5,0.1,2.1
		c-3.9,4.5-7.8,9.1-11.3,13.8C294.5,165.5,294,165.7,293.6,165.7z M318.8,137.3c-0.4,0-0.8-0.2-1.1-0.5c-0.6-0.6-0.5-1.5,0.1-2.1
		c4.3-4.1,8.9-8.2,13.6-12c0.6-0.5,1.6-0.4,2.1,0.2s0.4,1.6-0.2,2.1c-4.6,3.8-9.1,7.8-13.4,11.8
		C319.6,137.2,319.2,137.3,318.8,137.3z M348.3,113.4c-0.5,0-0.9-0.2-1.2-0.6c-0.5-0.7-0.3-1.6,0.4-2.1c4.9-3.4,10.1-6.7,15.3-9.7
		c0.7-0.4,1.6-0.2,2.1,0.5c0.4,0.7,0.2,1.6-0.5,2.1c-5.1,3-10.2,6.3-15.1,9.6C348.9,113.3,348.6,113.4,348.3,113.4z M381.1,94.3
		c-0.6,0-1.1-0.3-1.3-0.8c-0.4-0.7-0.1-1.6,0.7-2c4-1.9,8-3.8,12.1-5.5c0.8-0.3,1.6,0,2,0.8c0.3,0.8,0,1.6-0.8,2
		c-4,1.7-8,3.5-12,5.4C381.5,94.2,381.3,94.3,381.1,94.3z"/>
</g>
</svg>
